<svg width="75" height="108" viewBox="0 0 75 108" fill="none" xmlns="http://www.w3.org/2000/svg">
<path d="M25.5296 6.66838C25.5296 6.66838 18.9096 4.66838 12.6296 11.6084C6.75957 18.0884 7.07957 27.3684 6.77957 35.0884C6.46957 43.3284 4.67957 50.1784 1.77957 57.8784C-0.860426 64.9284 2.96957 72.5784 9.52957 76.8784C14.8396 80.3084 21.2096 81.6484 27.4296 82.0684C32.7296 82.4384 37.8496 81.2184 43.0496 81.7284C53.7396 82.7284 64.6196 79.1484 70.9196 69.9884C72.3429 68.0935 73.2585 65.8664 73.5796 63.5184C73.6308 61.2411 73.2926 58.9718 72.5796 56.8084C70.4946 49.0082 69.3762 40.9814 69.2496 32.9084C69.3622 26.3556 67.6295 19.9033 64.2496 14.2884C56.1896 1.66838 34.7896 -4.10162 25.5296 6.66838Z" fill="#725858"/>
<path d="M29.5896 83.0883C28.8696 83.0883 28.1396 83.0883 27.4096 83.0183C19.8196 82.4983 13.8095 80.7483 9.03955 77.6683C1.59955 72.8583 -1.75045 64.5783 0.89955 57.5283C4.11955 48.9383 5.54956 42.4283 5.82956 35.0483C5.82956 34.3183 5.87956 33.5783 5.90956 32.8283C6.12956 25.4383 6.37956 17.0783 11.9096 10.9383C17.4396 4.79826 23.2796 5.21827 25.1896 5.56827C28.9196 1.56827 34.5896 -0.431738 41.1896 0.0782622C50.6896 0.768262 60.2696 6.23827 65.0096 13.6983C68.5114 19.4514 70.3238 26.0737 70.2395 32.8083C70.3791 40.8158 71.5042 48.7757 73.5896 56.5083L73.7095 56.9783C74.3943 59.1017 74.7023 61.3286 74.6196 63.5583C74.2961 66.0815 73.3207 68.4768 71.7896 70.5083C65.7896 79.2883 54.9896 83.8383 42.9996 82.6683C40.3635 82.4893 37.7169 82.5394 35.0896 82.8183C33.2396 82.9483 31.3996 83.0883 29.5896 83.0883ZM23.2596 7.39826C20.9996 7.39826 17.1796 8.13827 13.4196 12.2783C8.35955 17.8683 8.11956 25.8483 7.90956 32.8883C7.90956 33.6483 7.85956 34.3883 7.82956 35.1283C7.53956 42.7383 6.06955 49.4283 2.76955 58.2283C0.459545 64.3883 3.47955 71.6883 10.1196 75.9883C14.5996 78.8783 20.2996 80.5283 27.5496 80.9883C30.0147 81.0989 32.4847 81.0287 34.9396 80.7783C37.6838 80.4959 40.4473 80.4491 43.1995 80.6383C54.4495 81.7383 64.5195 77.5083 70.1395 69.3283C71.4713 67.5754 72.3289 65.509 72.6296 63.3283C72.6765 61.3273 72.3857 59.3326 71.7695 57.4283L71.6496 56.9583C69.5439 49.0764 68.4155 40.9656 68.2896 32.8083C68.3865 26.4379 66.6884 20.1688 63.3895 14.7183C58.9695 7.76827 50.0196 2.71827 41.1196 2.02827C34.8796 1.57827 29.6296 3.43826 26.3396 7.26826C26.2178 7.4073 26.0599 7.50987 25.8834 7.56459C25.7068 7.61931 25.5186 7.62404 25.3396 7.57826C24.6417 7.41768 23.9245 7.35708 23.2095 7.39826H23.2596Z" fill="#093F68"/>
<path d="M62.2496 106.918V85.8083C62.2496 81.2997 60.4585 76.9757 57.2704 73.7875C54.0823 70.5994 49.7583 68.8083 45.2496 68.8083H28.9396C24.4309 68.8083 20.1069 70.5994 16.9187 73.7875C13.7306 76.9757 11.9396 81.2997 11.9396 85.8083V106.878L62.2496 106.918Z" fill="#00ADB5"/>
<path d="M62.2496 107.918H11.9096C11.6444 107.918 11.39 107.813 11.2025 107.625C11.0149 107.438 10.9096 107.184 10.9096 106.918V85.8083C10.9228 81.0385 12.8234 76.4678 16.1962 73.095C19.569 69.7222 24.1397 67.8215 28.9096 67.8083H45.1796C49.9486 67.8242 54.5178 69.7257 57.89 73.0979C61.2622 76.4701 63.1637 81.0393 63.1796 85.8083V106.878C63.1906 107.139 63.0996 107.393 62.9259 107.587C62.7522 107.782 62.5095 107.9 62.2496 107.918ZM12.9096 105.918H61.2496V85.8083C61.2338 81.5698 59.543 77.5093 56.5458 74.5121C53.5486 71.5149 49.4882 69.8242 45.2496 69.8083H28.9396C24.701 69.8242 20.6405 71.5149 17.6433 74.5121C14.6462 77.5093 12.9554 81.5698 12.9396 85.8083L12.9096 105.918Z" fill="#093F68"/>
<path d="M37.8896 101.348L34.0496 71.0483L42.3896 71.4283L37.8896 101.348Z" fill="white"/>
<path d="M37.8896 102.348C37.6439 102.35 37.4061 102.261 37.2217 102.099C37.0373 101.937 36.919 101.712 36.8896 101.468L33.0496 71.1782C33.0294 71.0331 33.0413 70.8853 33.0845 70.7454C33.1277 70.6054 33.2011 70.4766 33.2996 70.3682C33.3984 70.2612 33.5195 70.1772 33.6542 70.1219C33.7889 70.0667 33.9341 70.0415 34.0796 70.0482L42.4296 70.4282C42.5687 70.4362 42.7047 70.4733 42.8287 70.537C42.9527 70.6008 43.062 70.6897 43.1496 70.7982C43.2386 70.9056 43.3042 71.0305 43.3421 71.1649C43.38 71.2992 43.3894 71.44 43.3696 71.5782L38.8696 101.488C38.8361 101.725 38.7188 101.942 38.539 102.1C38.3592 102.258 38.1288 102.346 37.8896 102.348ZM35.1896 72.0982L37.9696 94.0982L41.2396 72.4182L35.1896 72.0982Z" fill="#093F68"/>
<path d="M37.8895 102.348C37.7274 102.347 37.5681 102.306 37.4252 102.23C37.2824 102.153 37.1603 102.043 37.0696 101.908L26.5895 86.8083C26.4636 86.6238 26.403 86.4025 26.4175 86.1796C26.432 85.9566 26.5207 85.745 26.6695 85.5783L30.8595 80.8183L26.2795 78.7583C26.1478 78.6992 26.0305 78.6123 25.9355 78.5036C25.8406 78.3948 25.7703 78.2668 25.7295 78.1283C25.6883 77.9896 25.6776 77.8435 25.6983 77.7002C25.7191 77.5568 25.7706 77.4198 25.8495 77.2983L31.6596 68.2983C31.7306 68.1868 31.8231 68.0905 31.9316 68.0149C32.0402 67.9394 32.1627 67.8861 32.2919 67.8582C32.4212 67.8303 32.5547 67.8283 32.6848 67.8524C32.8148 67.8764 32.9388 67.926 33.0495 67.9983C33.2704 68.1434 33.4249 68.37 33.4792 68.6285C33.5335 68.8871 33.4833 69.1567 33.3395 69.3783L28.1596 77.3783L32.9096 79.5183C33.0528 79.5822 33.179 79.6788 33.278 79.8004C33.377 79.922 33.4461 80.0651 33.4796 80.2183C33.5119 80.3712 33.5079 80.5296 33.4679 80.6807C33.428 80.8318 33.3532 80.9714 33.2495 81.0883L28.6795 86.2783L38.6795 100.788C38.8304 101.006 38.8887 101.274 38.8419 101.535C38.795 101.796 38.6467 102.027 38.4295 102.178C38.2697 102.286 38.0822 102.345 37.8895 102.348Z" fill="#093F68"/>
<path d="M37.8096 102.348C37.6091 102.346 37.414 102.283 37.2496 102.168C37.0308 102.018 36.8805 101.788 36.8317 101.527C36.783 101.266 36.8397 100.997 36.9896 100.778L46.9896 86.2682L42.4195 81.0782C42.3159 80.9613 42.2411 80.8216 42.2012 80.6705C42.1612 80.5195 42.1573 80.3611 42.1896 80.2082C42.223 80.055 42.2921 79.9118 42.3911 79.7902C42.4901 79.6686 42.6163 79.572 42.7596 79.5082L47.5096 77.3682L42.3296 69.3682C42.2502 69.258 42.1941 69.1329 42.1647 69.0003C42.1353 68.8678 42.1332 68.7306 42.1585 68.5972C42.1838 68.4638 42.236 68.337 42.312 68.2244C42.3879 68.1118 42.486 68.0159 42.6002 67.9425C42.7144 67.8691 42.8424 67.8197 42.9763 67.7973C43.1102 67.775 43.2473 67.7801 43.3792 67.8125C43.511 67.8448 43.6349 67.9037 43.7433 67.9855C43.8517 68.0673 43.9423 68.1703 44.0096 68.2882L49.8196 77.2882C49.8985 77.4096 49.9501 77.5467 49.9708 77.69C49.9915 77.8333 49.9809 77.9794 49.9396 78.1182C49.8988 78.2567 49.8285 78.3847 49.7336 78.4935C49.6386 78.6022 49.5213 78.6891 49.3896 78.7482L44.8296 80.8082L49.0196 85.5682C49.1669 85.736 49.2538 85.9482 49.2665 86.1712C49.2792 86.3941 49.2169 86.6148 49.0896 86.7982L38.6396 101.908C38.5478 102.044 38.4242 102.155 38.2794 102.232C38.1347 102.308 37.9734 102.348 37.8096 102.348Z" fill="#093F68"/>
<path d="M22.8795 107.318C22.6143 107.318 22.36 107.213 22.1724 107.025C21.9849 106.838 21.8795 106.584 21.8795 106.318V87.3184C21.8795 87.0531 21.9849 86.7988 22.1724 86.6113C22.36 86.4237 22.6143 86.3184 22.8795 86.3184C23.1448 86.3184 23.3991 86.4237 23.5867 86.6113C23.7742 86.7988 23.8795 87.0531 23.8795 87.3184V106.318C23.8795 106.584 23.7742 106.838 23.5867 107.025C23.3991 107.213 23.1448 107.318 22.8795 107.318Z" fill="#093F68"/>
<path d="M51.2796 107.318C51.0144 107.318 50.76 107.213 50.5724 107.025C50.3849 106.838 50.2796 106.584 50.2796 106.318V87.3184C50.2796 87.0531 50.3849 86.7988 50.5724 86.6113C50.76 86.4237 51.0144 86.3184 51.2796 86.3184C51.5448 86.3184 51.7991 86.4237 51.9867 86.6113C52.1742 86.7988 52.2796 87.0531 52.2796 87.3184V106.318C52.2796 106.584 52.1742 106.838 51.9867 107.025C51.7991 107.213 51.5448 107.318 51.2796 107.318Z" fill="#093F68"/>
<path d="M34.0296 66.3484H41.8196V70.8084C41.8196 71.6862 41.4708 72.5281 40.8501 73.1489C40.2294 73.7696 39.3874 74.1184 38.5096 74.1184H37.3296C36.4517 74.1184 35.6098 73.7696 34.989 73.1489C34.3683 72.5281 34.0196 71.6862 34.0196 70.8084V66.3284L34.0296 66.3484Z" fill="#FFC9B0"/>
<path d="M38.5096 75.1382H37.3396C36.1982 75.1382 35.1035 74.6854 34.2955 73.8793C33.4875 73.0732 33.0322 71.9795 33.0296 70.8382V66.3481C33.0296 66.0829 33.1349 65.8286 33.3224 65.641C33.51 65.4535 33.7644 65.3481 34.0296 65.3481H41.8196C42.0848 65.3481 42.3391 65.4535 42.5267 65.641C42.7142 65.8286 42.8196 66.0829 42.8196 66.3481V70.8082C42.8222 71.3758 42.7127 71.9384 42.4973 72.4637C42.2818 72.9889 41.9648 73.4664 41.5643 73.8687C41.1638 74.2711 40.6878 74.5903 40.1636 74.8082C39.6394 75.026 39.0773 75.1382 38.5096 75.1382ZM35.0296 67.3481V70.8082C35.0296 71.111 35.0894 71.4109 35.2056 71.6906C35.3218 71.9703 35.4921 72.2243 35.7068 72.438C35.9214 72.6518 36.1761 72.821 36.4563 72.936C36.7365 73.051 37.0367 73.1095 37.3396 73.1082H38.5096C39.1205 73.1082 39.7065 72.8662 40.1395 72.4351C40.5724 72.0041 40.8169 71.4191 40.8196 70.8082V67.3181L35.0296 67.3481Z" fill="#093F68"/>
<path d="M15.6596 52.6382C19.8404 52.6382 23.2296 49.719 23.2296 46.1181C23.2296 42.5173 19.8404 39.5981 15.6596 39.5981C11.4788 39.5981 8.08957 42.5173 8.08957 46.1181C8.08957 49.719 11.4788 52.6382 15.6596 52.6382Z" fill="#FFC9B0"/>
<path d="M15.6596 53.6382C10.9396 53.6382 7.08957 50.2681 7.08957 46.1181C7.08957 41.9681 10.9396 38.5981 15.6596 38.5981C20.3796 38.5981 24.2296 41.9681 24.2296 46.1181C24.2296 50.2681 20.3896 53.6382 15.6596 53.6382ZM15.6596 40.6382C12.0396 40.6382 9.08957 43.1182 9.08957 46.1582C9.08957 49.1982 12.0396 51.6781 15.6596 51.6781C19.2796 51.6781 22.2296 49.2082 22.2296 46.1582C22.2296 43.1082 19.2796 40.5981 15.6596 40.5981V40.6382Z" fill="#093F68"/>
<path d="M59.7796 52.6382C63.9604 52.6382 67.3496 49.719 67.3496 46.1181C67.3496 42.5173 63.9604 39.5981 59.7796 39.5981C55.5988 39.5981 52.2096 42.5173 52.2096 46.1181C52.2096 49.719 55.5988 52.6382 59.7796 52.6382Z" fill="#FFC9B0"/>
<path d="M59.7796 53.6382C55.0596 53.6382 51.2096 50.2681 51.2096 46.1181C51.2096 41.9681 55.0596 38.5981 59.7796 38.5981C64.4996 38.5981 68.3496 41.9681 68.3496 46.1181C68.3496 50.2681 64.5096 53.6382 59.7796 53.6382ZM59.7796 40.6382C56.1596 40.6382 53.2096 43.1182 53.2096 46.1582C53.2096 49.1982 56.1596 51.6781 59.7796 51.6781C63.3996 51.6781 66.3496 49.2082 66.3496 46.1582C66.3496 43.1082 63.3996 40.5981 59.7796 40.5981V40.6382Z" fill="#093F68"/>
<path d="M51.8096 26.8083L44.4195 17.3083C44.4195 17.3083 42.7595 23.1584 41.7395 26.7784H30.0996L27.3596 18.3083L24.1295 26.7683H15.1295V44.6483C15.1295 50.7015 17.5335 56.5069 21.8128 60.7881C26.0921 65.0692 31.8964 67.4757 37.9495 67.4783C44.0044 67.4783 49.8113 65.0731 54.0928 60.7916C58.3742 56.5101 60.7796 50.7032 60.7796 44.6483V26.8083H51.8096Z" fill="#FFC9B0"/>
<path d="M37.9195 68.3782C31.6028 68.3702 25.5472 65.8567 21.0815 61.3892C16.6158 56.9216 14.1048 50.8649 14.0995 44.5482V26.6682C14.0995 26.403 14.2049 26.1486 14.3924 25.9611C14.58 25.7735 14.8343 25.6682 15.0995 25.6682H23.4396L26.4396 17.8582C26.5126 17.6633 26.6446 17.4961 26.8172 17.3798C26.9898 17.2636 27.1943 17.204 27.4024 17.2095C27.6104 17.215 27.8115 17.2853 27.9777 17.4105C28.1439 17.5358 28.2669 17.7097 28.3296 17.9082L30.8496 25.6882H40.9996L43.4796 16.9582C43.5303 16.7807 43.6292 16.6208 43.7652 16.4961C43.9012 16.3714 44.0691 16.2867 44.2503 16.2515C44.4315 16.2163 44.6188 16.2319 44.7917 16.2967C44.9645 16.3614 45.1161 16.4726 45.2296 16.6182L52.3196 25.7282H60.7695C61.0348 25.7282 61.2891 25.8335 61.4767 26.0211C61.6642 26.2086 61.7695 26.463 61.7695 26.7282V44.4782C61.7748 47.614 61.1619 50.7202 59.9658 53.619C58.7697 56.5178 57.0139 59.1524 54.7988 61.3721C52.5837 63.5918 49.9528 65.3531 47.0566 66.5553C44.1603 67.7574 41.0554 68.3769 37.9195 68.3782ZM16.0995 27.6682V44.5482C16.0374 47.4536 16.5559 50.3422 17.6248 53.0445C18.6936 55.7469 20.2913 58.2087 22.3241 60.2854C24.3569 62.3622 26.7839 64.0122 29.4628 65.1387C32.1417 66.2651 35.0185 66.8454 37.9245 66.8454C40.8306 66.8454 43.7075 66.2651 46.3863 65.1387C49.0652 64.0122 51.4922 62.3622 53.525 60.2854C55.5578 58.2087 57.1555 55.7469 58.2243 53.0445C59.2932 50.3422 59.8118 47.4536 59.7496 44.5482V27.8082H51.7496C51.5985 27.8063 51.4499 27.7702 51.3148 27.7027C51.1797 27.6351 51.0617 27.5379 50.9696 27.4182L44.7896 19.4782C44.2196 21.4782 43.2996 24.7282 42.6496 27.0482C42.5891 27.2645 42.4575 27.4541 42.2761 27.5865C42.0947 27.719 41.874 27.7865 41.6496 27.7782H29.9996C29.7904 27.7759 29.5872 27.7081 29.4186 27.5844C29.2499 27.4606 29.1244 27.2871 29.0596 27.0882L27.1896 21.3082L24.9696 27.1182C24.897 27.3061 24.7694 27.4678 24.6035 27.582C24.4376 27.6962 24.241 27.7576 24.0396 27.7582L16.0995 27.6682Z" fill="#093F68"/>
<path d="M37.8196 49.3282C37.1096 49.3257 36.4008 49.2689 35.6996 49.1582C35.4343 49.1131 35.1979 48.9645 35.0423 48.7451C34.8866 48.5256 34.8245 48.2534 34.8696 47.9881C34.9147 47.7229 35.0633 47.4865 35.2827 47.3308C35.5021 47.1752 35.7744 47.1131 36.0396 47.1582C36.9449 47.3105 37.8669 47.3374 38.7796 47.2381C38.421 45.6458 37.835 44.1134 37.0396 42.6882C36.9748 42.5716 36.934 42.4434 36.9196 42.3108C36.9051 42.1783 36.9173 42.0443 36.9554 41.9165C36.9935 41.7888 37.0567 41.67 37.1414 41.567C37.2261 41.4641 37.3306 41.3792 37.4486 41.3172C37.5666 41.2552 37.6957 41.2174 37.8286 41.206C37.9614 41.1947 38.0951 41.21 38.2219 41.2511C38.3487 41.2922 38.466 41.3582 38.567 41.4453C38.6679 41.5323 38.7504 41.6387 38.8096 41.7581C39.7596 43.5781 41.2496 46.8382 40.6096 48.2682C40.5195 48.4762 40.3823 48.6604 40.2087 48.8062C40.0352 48.952 39.83 49.0554 39.6096 49.1082C39.0244 49.2557 38.4231 49.3296 37.8196 49.3282Z" fill="#093F68"/>
</svg>
