<svg width="117" height="136" viewBox="0 0 117 136" fill="none" xmlns="http://www.w3.org/2000/svg">
<g clip-path="url(#clip0_122_450)">
<path d="M64.058 74.7305C64.4258 76.758 65.738 78.073 66.9893 77.6665C68.2406 77.2601 68.9566 75.2852 68.5888 73.2577C68.4517 72.4448 68.1296 71.6988 67.6487 71.0891L65.9883 62.5297L62.106 63.9355L64.1559 72.2248C63.9361 73.064 63.9035 73.9247 64.0623 74.7305H64.058Z" fill="#F8A8AB"/>
<path d="M55.3076 131.01H59.8645V123.907H55.3076V131.01Z" fill="#F8A8AB"/>
<path d="M59.3597 135.079C58.5806 135.156 54.6809 135.495 54.485 134.513C54.3066 133.611 54.5699 132.669 54.6069 132.54C54.9812 128.442 55.1205 128.397 55.2053 128.37C55.3381 128.327 55.7254 128.531 56.3544 128.975L56.3935 129.004L56.4022 129.054C56.4131 129.119 56.6917 130.623 58.0126 130.391C58.9179 130.233 59.2117 130.013 59.3053 129.905C59.2291 129.867 59.1333 129.8 59.0659 129.685C58.968 129.518 58.9505 129.303 59.0158 129.045C59.1856 128.363 59.6948 127.357 59.7166 127.316L59.7753 127.201L64.9546 131.041L68.1536 132.045C68.3952 132.122 68.5888 132.311 68.6868 132.564C68.8217 132.918 68.739 133.329 68.4779 133.587C67.8968 134.161 66.7434 135.144 65.5313 135.266C65.2092 135.299 64.7827 135.311 64.3039 135.311C62.304 135.311 59.3836 135.084 59.3618 135.079H59.3597Z" fill="#2F2E43"/>
<path d="M42.6836 131.01H47.2405V123.907H42.6836V131.01Z" fill="#F8A8AB"/>
<path d="M46.7356 135.079C45.9566 135.156 42.0569 135.495 41.861 134.513C41.6826 133.611 41.9459 132.669 41.9829 132.54C42.3572 128.442 42.4964 128.397 42.5813 128.37C42.7141 128.327 43.1014 128.531 43.7303 128.975L43.7695 129.004L43.7782 129.054C43.7891 129.119 44.0677 130.623 45.3886 130.391C46.2939 130.233 46.5877 130.013 46.6812 129.905C46.6051 129.867 46.5093 129.8 46.4419 129.685C46.3439 129.518 46.3265 129.303 46.3918 129.045C46.5615 128.363 47.0708 127.357 47.0925 127.316L47.1513 127.201L52.3306 131.041L55.5296 132.045C55.7711 132.122 55.9648 132.311 56.0627 132.564C56.1977 132.918 56.115 133.329 55.8538 133.587C55.2728 134.161 54.1194 135.144 52.9073 135.266C52.5852 135.299 52.1587 135.311 51.6799 135.311C49.68 135.311 46.7596 135.084 46.7378 135.079H46.7356Z" fill="#2F2E43"/>
<path d="M46.3765 24.8992L53.4425 27.4503V16.2751H47.0315L46.3765 24.8992Z" fill="#F8A8AB"/>
<path d="M52.5678 19.369C56.4558 19.369 59.6077 15.9061 59.6077 11.6344C59.6077 7.36267 56.4558 3.89978 52.5678 3.89978C48.6797 3.89978 45.5278 7.36267 45.5278 11.6344C45.5278 15.9061 48.6797 19.369 52.5678 19.369Z" fill="#F8A8AB"/>
<path d="M50.7745 12.2393L51.745 13.5328L53.5012 10.1569C53.5012 10.1569 55.7427 10.2836 55.7427 8.45692C55.7427 6.63026 57.7992 6.57766 57.7992 6.57766C57.7992 6.57766 60.7087 0.994889 54.6807 2.4653C54.6807 2.4653 50.5003 -0.681138 48.4198 2.00863C48.4198 2.00863 42.0436 5.53522 43.8695 11.6775L46.9009 18.0086L47.5885 16.5764C47.5885 16.5764 47.1729 10.5609 50.7766 12.2369L50.7745 12.2393Z" fill="#2F2E43"/>
<path d="M0 135.309C0 135.467 0.115337 135.593 0.258965 135.593H116.741C116.885 135.593 117 135.467 117 135.309C117 135.151 116.885 135.024 116.741 135.024H0.258965C0.115337 135.024 0 135.151 0 135.309Z" fill="#484565"/>
<path d="M71.5528 84.3682L58.2498 79.6701C56.609 79.0915 54.8463 80.0598 54.287 81.853L48.2764 101.109C47.6627 103.075 48.7464 105.188 50.594 105.633L65.8838 109.308C67.5638 109.712 69.2308 108.567 69.6356 106.73L73.6593 88.4973C74.0489 86.728 73.1305 84.9253 71.5528 84.3682Z" fill="#E2E3E4"/>
<path d="M70.2035 88.4304L69.346 88.263C69.8944 84.8392 70.6517 75.7107 67.5942 74.5918C66.1122 74.049 64.6194 74.9982 63.1592 77.4154C62.0123 79.3162 61.3421 81.4202 61.3355 81.4417L60.5129 81.1285C60.6305 80.7579 63.4268 72.0574 67.8684 73.6832C72.2578 75.2899 70.2883 87.8924 70.2013 88.428L70.2035 88.4304Z" fill="#2F2E43"/>
<path d="M60.117 61.6976H36.3379L42.157 127.613L48.9031 127.134L49.2361 79.6653L53.4818 100.497L54.7244 126.776L60.8721 127.134L61.5859 97.2409L60.117 61.6976Z" fill="#2F2E43"/>
<path d="M45.9914 20.813L54.0433 22.9649L60.9265 55.6462L60.117 61.6976L39.9547 65.4465L36.3379 61.6976L45.9914 20.813Z" fill="#00ADB5"/>
<path d="M45.9783 19.1777L43.2255 22.5704L37.6414 24.0432L28.1206 70.5511L46.4658 73.9653L51.5754 26.5991L45.9783 19.1777Z" fill="#2F2E43"/>
<path d="M54.0388 20.8729L52.6025 26.4963L59.2508 76.9253H62.6804L61.0983 27.577L56.4413 23.5124L54.0388 20.8729Z" fill="#2F2E43"/>
<path d="M58.3369 26.9529L61.0985 27.5769C61.0985 27.5769 62.3084 28.0647 62.748 31.8423C63.1854 35.6199 63.2638 48.3061 63.2638 48.3061L67.96 68.7723L62.6261 70.7041L60.1148 59.6916L58.3347 26.9505L58.3369 26.9529Z" fill="#2F2E43"/>
<path d="M53.7297 24.3277L52.3935 27.0199L55.0659 58.599L51.9474 61.7813L49.0509 58.8453L51.1683 27.1418L48.0825 24.3277L49.1619 23.4694L50.2761 24.9374L52.5045 24.4497L53.3946 22.9792L53.7297 24.3277Z" fill="#2F2E43"/>
<path d="M40.6053 66.795C41.726 68.4567 43.4234 69.0282 44.3962 68.0742C45.3689 67.1202 45.2492 64.9995 44.1285 63.3354C43.6889 62.6636 43.1079 62.1423 42.4333 61.8172L37.6021 54.8572L34.6382 57.9511L39.7152 64.483C39.8436 65.3462 40.1483 66.1375 40.6053 66.7927V66.795Z" fill="#F8A8AB"/>
<path d="M39.848 24.8059L37.6414 24.0432C37.6414 24.0432 34.6513 24.8585 33.6612 28.9613L28.8279 48.9493L37.0255 64.758L41.4062 58.9146L37.2802 44.4018L39.8502 24.8059H39.848Z" fill="#2F2E43"/>
</g>
<defs>
<clipPath id="clip0_122_450">
<rect width="117" height="134.67" fill="white" transform="translate(0 0.923096)"/>
</clipPath>
</defs>
</svg>
