<svg width="194" height="135" viewBox="0 0 194 135" fill="none" xmlns="http://www.w3.org/2000/svg">
<g clip-path="url(#clip0_122_542)">
<path d="M13.2168 114.032C12.2842 114.032 11.3497 114.073 10.4371 114.157L10.3043 114.169C4.25102 114.745 -0.176678 118.087 0.00541807 121.944L0.0406205 122.641C0.0638358 123.082 0.0885698 123.556 0.10893 124.082C0.119954 124.341 0.448585 124.54 0.857503 124.54H149.754C160.252 124.471 170.712 124.385 180.841 124.283C182.742 124.287 184.642 124.181 186.529 123.966C189.344 123.607 191.298 122.896 192.503 121.792H192.503C194.001 120.423 194.049 118.699 193.958 116.752C193.773 112.819 193.59 108.687 193.408 104.568C193.246 100.938 193.086 97.3174 192.925 93.8512C192.826 91.7941 192.605 89.9784 190.904 88.5907C189.059 87.09 185.696 86.3293 180.906 86.3293C180.849 86.3293 180.791 86.3293 180.733 86.3295C165.723 86.387 150.851 91.9434 143.725 100.156C142.905 101.102 142.14 102.114 141.401 103.093C140.32 104.597 139.127 106.027 137.831 107.373C137.111 108.099 136.321 108.761 135.472 109.352C135.415 109.395 135.348 109.441 135.278 109.485C135.118 109.598 134.951 109.706 134.787 109.803C133.843 110.391 132.835 110.885 131.78 111.275L131.674 111.313C131.595 111.343 131.509 111.374 131.423 111.402C130.815 111.612 130.195 111.79 129.565 111.936C126.849 112.581 123.761 112.735 120.386 112.395C117.269 112.07 114.205 111.398 111.259 110.393C108.134 109.329 105.209 108.004 102.38 106.722C101.138 106.158 99.8527 105.576 98.5692 105.024C98.328 104.92 98.0907 104.819 97.8498 104.717C96.2822 104.06 94.861 103.516 93.505 103.057C90.1741 101.919 86.6889 101.224 83.1513 100.992C79.4183 100.772 76.1287 101.187 73.3761 102.223C72.6114 102.51 71.8721 102.853 71.165 103.248C67.9047 105.071 65.8947 107.761 63.9512 110.363C61.5334 113.599 59.0333 116.946 54.0966 118.68C48.4001 120.684 40.0851 119.852 34.2023 118.404C32.3527 117.949 30.5054 117.425 28.7189 116.919C27.9973 116.714 27.2752 116.511 26.5527 116.309C25.1328 115.914 23.9707 115.612 22.8956 115.357L22.5556 115.275C22.3664 115.231 22.1771 115.187 21.9844 115.145C20.7074 114.856 19.5183 114.629 18.3473 114.45L18.0702 114.407C17.5148 114.328 16.9955 114.262 16.4859 114.207L16.2825 114.185C15.2643 114.082 14.2409 114.031 13.2168 114.032Z" fill="#F2F2F2"/>
<path d="M30.5845 124.522C30.5842 124.445 30.6165 124.372 30.6741 124.317C30.7318 124.263 30.8101 124.232 30.8919 124.232H163.094C163.176 124.233 163.254 124.263 163.311 124.317C163.369 124.371 163.401 124.444 163.401 124.521C163.401 124.597 163.369 124.67 163.311 124.724C163.254 124.778 163.176 124.809 163.094 124.809H30.8919C30.8105 124.809 30.7324 124.779 30.6748 124.725C30.6172 124.671 30.5847 124.598 30.5845 124.522Z" fill="#CACACA"/>
<path d="M143.87 31.6518L143.859 31.7608C136.525 31.2884 129.192 30.8151 121.859 30.3411C116.561 29.9994 111.079 29.6118 106.398 27.2665C104.621 26.3773 102.89 25.1901 100.874 25.1078C98.3743 25.0036 96.193 26.639 94.4779 28.3446C84.3405 38.443 81.4052 53.8837 70.032 62.7536C77.2051 46.2108 85.7691 30.2258 95.6437 14.9488C97.4676 12.1262 99.6308 9.11225 103.017 8.19157C106.248 7.31209 109.553 8.59619 112.527 10.2437C113.165 10.5974 113.786 10.9681 114.388 11.3364C118.97 14.142 123.478 17.0551 127.911 20.0755C133.354 23.78 138.674 27.6388 143.87 31.6518Z" fill="#F2F2F2"/>
<path d="M167.59 53.0696C159.751 42.7213 150.643 33.2669 140.453 24.8994C137.523 22.4911 134.506 20.1717 131.403 17.9411C125.641 13.793 119.597 9.99821 113.31 6.58043C111.248 5.46109 109.161 4.38616 107.051 3.35565C105.411 2.55854 103.665 1.82927 101.773 1.94314C100.45 2.0489 99.1863 2.5034 98.1282 3.25389C95.8044 4.84085 94.2655 7.3194 92.9986 9.68165C91.8898 11.7532 90.8561 13.8659 89.8017 15.9665C89.3535 16.8605 88.9053 17.7521 88.4416 18.6388C86.825 21.7449 85.1704 24.834 83.4778 27.9062C81.2964 31.8651 79.052 35.7941 76.7445 39.6932C71.8973 47.8896 66.7824 55.9383 61.3997 63.8391C53.4877 75.4517 45.023 86.7122 36.0056 97.6206C34.8994 98.9555 34.4434 99.2657 33.3216 100.591C33.0626 100.901 32.6014 100.465 32.8579 100.157C42.213 89.0995 50.3582 78.6523 58.5707 66.824C64.7625 57.9056 70.614 48.7893 76.1253 39.4752C77.8948 36.4878 79.6271 33.4819 81.3223 30.4574C84.0659 25.5609 86.7144 20.6183 89.268 15.6297C89.9416 14.3165 90.6083 12.9985 91.268 11.6756C93.3639 7.47688 96.4158 1.23326 102.31 1.31805C104.043 1.34228 105.652 1.99887 107.17 2.72572C108.716 3.46952 110.235 4.25937 111.75 5.06132C112.356 5.38113 112.96 5.70579 113.561 6.0353C115.942 7.32908 118.287 8.67698 120.597 10.079C124.452 12.417 128.206 14.8948 131.857 17.5122C133.59 18.7551 135.297 20.0263 136.979 21.3258C147.528 29.4886 157.014 38.7843 165.241 49.0211C166.233 50.2543 167.204 51.5013 168.155 52.7619C168.399 53.0842 167.831 53.3894 167.59 53.0696Z" fill="#E4E4E4"/>
<path d="M141.036 21.8157C141.378 21.4587 141.719 21.1016 142.064 20.7446C144.782 17.9333 147.698 15.1547 151.431 13.543C153.21 12.7503 155.153 12.3291 157.124 12.3087C159.162 12.3148 161.154 12.8147 163.036 13.5144C163.926 13.847 164.797 14.2244 165.654 14.6263C166.634 15.0874 167.596 15.579 168.553 16.0748C170.351 17.0051 172.125 17.9762 173.876 18.9881C177.36 21.0017 180.735 23.1689 184 25.4899C185.693 26.6936 187.351 27.9367 188.974 29.2193C190.484 30.4107 191.963 31.6341 193.411 32.8894C193.721 33.1567 194.183 32.7242 193.874 32.4569C193.492 32.1244 193.106 31.7939 192.72 31.4675C191.629 30.5453 190.521 29.6409 189.395 28.7541C187.342 27.1343 185.237 25.577 183.078 24.0822C179.72 21.7565 176.247 19.5885 172.659 17.5783C170.866 16.5746 169.048 15.613 167.205 14.6936C166.649 14.4162 166.086 14.1448 165.517 13.8878C164.225 13.2784 162.882 12.7673 161.503 12.3597C159.548 11.7684 157.48 11.5785 155.44 11.8028C153.471 12.0707 151.573 12.6847 149.847 13.6124C146.182 15.528 143.34 18.4903 140.574 21.3811C140.294 21.6749 140.755 22.1095 141.036 21.8157Z" fill="#E4E4E4"/>
<path d="M65.9442 50.9481L57.1622 47.9442L52.802 46.4528C51.3819 45.967 49.9653 45.414 48.4973 45.0662C47.2215 44.7254 45.867 44.7416 44.601 45.1127C43.4719 45.5035 42.4384 46.1026 41.5619 46.8745C40.6665 47.6456 39.8334 48.4777 39.0693 49.3639C38.12 50.4308 37.1847 51.5089 36.2452 52.5834C32.3678 57.0181 28.5157 61.472 24.689 65.9452C20.8624 70.4183 17.0613 74.9104 13.2859 79.4215C9.50116 83.9436 5.74249 88.4847 2.00986 93.0446C1.5526 93.6032 1.09574 94.1621 0.639267 94.7213C0.387072 95.0302 -0.181585 94.7256 0.0741699 94.4124C3.83435 89.8066 7.62073 85.2196 11.4333 80.6515C15.2553 76.0725 19.1037 71.5129 22.9785 66.9727C26.8532 62.4327 30.7541 57.9123 34.6811 53.4116C35.6595 52.2903 36.6395 51.1703 37.621 50.0515C38.449 49.1077 39.2677 48.1538 40.1759 47.2754C41.8429 45.6631 43.9256 44.2382 46.4187 44.1995C47.8845 44.1768 49.303 44.6118 50.6649 45.0725C52.1331 45.5692 53.5977 46.0752 55.064 46.5768L63.9073 49.6017L66.1182 50.3579C66.5105 50.4921 66.341 51.0838 65.9442 50.9481Z" fill="#E4E4E4"/>
<path d="M152.586 17.0805C157.049 14.9354 162.764 15.3556 166.865 18.0354C159.043 19.2975 151.306 20.9862 143.695 23.0929C146.856 21.3606 149.328 18.6466 152.586 17.0805Z" fill="#F2F2F2"/>
<path d="M166.909 18.028L167.769 18.6811C167.478 18.4525 167.176 18.2382 166.865 18.0354C166.88 18.033 166.895 18.0304 166.909 18.028Z" fill="#F2F2F2"/>
<path d="M41.8928 50.9781C42.7573 49.994 43.6919 48.9636 44.985 48.5638L46.1922 48.6084C37.0026 63.7944 24.5913 77.064 9.72021 87.6024C20.4444 75.3943 31.1686 63.1862 41.8928 50.9781Z" fill="#F2F2F2"/>
<path d="M132.439 106.348L125.129 103.332V100.739L127.734 100.725C128.139 100.723 128.532 100.603 128.859 100.381C129.187 100.159 129.431 99.8468 129.559 99.4881L131.389 94.3534C131.486 94.0814 131.513 93.7917 131.467 93.5083C131.42 93.2248 131.303 92.9556 131.123 92.723C130.944 92.4904 130.708 92.301 130.435 92.1703C130.162 92.0396 129.86 91.9715 129.554 91.9715H125.129V89.5586H130.684C131.121 89.5586 131.546 89.4197 131.889 89.1647C132.231 88.9096 132.471 88.5534 132.569 88.1544L133.83 83.027C133.895 82.7618 133.895 82.4863 133.831 82.2209C133.767 81.9556 133.639 81.7072 133.458 81.4943C133.277 81.2815 133.046 81.1095 132.784 80.9914C132.522 80.8732 132.235 80.8119 131.944 80.8119H125.129V80.2086C125.129 79.8887 124.993 79.5818 124.751 79.3556C124.509 79.1293 124.181 79.0022 123.839 79.0022C123.497 79.0022 123.169 79.1293 122.927 79.3556C122.685 79.5818 122.549 79.8887 122.549 80.2086V80.8119H76.86V80.2086C76.86 79.8887 76.724 79.5818 76.4821 79.3556C76.2402 79.1293 75.9121 79.0022 75.5699 79.0022C75.2278 79.0022 74.8997 79.1293 74.6577 79.3556C74.4158 79.5818 74.2799 79.8887 74.2799 80.2086V80.8119H68.8625C68.5715 80.8119 68.2843 80.8732 68.0222 80.9914C67.7601 81.1095 67.5299 81.2815 67.3487 81.4943C67.1674 81.7072 67.0399 81.9556 66.9754 82.2209C66.911 82.4863 66.9114 82.7618 66.9766 83.027L68.237 88.1544C68.3351 88.5534 68.575 88.9096 68.9176 89.1647C69.2601 89.4197 69.685 89.5586 70.1229 89.5586H74.2799V91.9715H71.2528C70.9478 91.9715 70.6472 92.0389 70.3754 92.1682C70.1036 92.2976 69.8683 92.4851 69.6887 92.7157C69.5091 92.9462 69.3904 93.2132 69.3421 93.4948C69.2939 93.7764 69.3175 94.0647 69.411 94.3362L71.279 99.7577C71.4052 100.124 71.6528 100.443 71.9859 100.668C72.319 100.894 72.7204 101.015 73.1317 101.012L74.2799 101.006V103.332L68.3672 106.348C68.1131 106.348 67.8615 106.395 67.6267 106.486C67.3919 106.577 67.1786 106.71 66.9989 106.878C66.8192 107.046 66.6767 107.246 66.5794 107.465C66.4822 107.685 66.4321 107.92 66.4321 108.158C66.4321 108.638 66.636 109.098 66.9989 109.438C67.3618 109.777 67.854 109.968 68.3672 109.968H74.2799V123.239C74.2799 123.558 74.4158 123.865 74.6577 124.092C74.8997 124.318 75.2278 124.445 75.5699 124.445C75.9121 124.445 76.2402 124.318 76.4821 124.092C76.7241 123.865 76.86 123.558 76.86 123.239V109.968H122.549V123.239C122.549 123.558 122.685 123.865 122.927 124.092C123.169 124.318 123.497 124.445 123.839 124.445C124.181 124.445 124.509 124.318 124.751 124.092C124.993 123.865 125.129 123.558 125.129 123.239V109.968H132.439C132.953 109.968 133.445 109.777 133.808 109.438C134.171 109.098 134.374 108.638 134.374 108.158C134.374 107.92 134.324 107.685 134.227 107.465C134.13 107.246 133.987 107.046 133.808 106.878C133.628 106.71 133.415 106.577 133.18 106.486C132.945 106.395 132.693 106.348 132.439 106.348ZM76.86 89.5586H122.549V91.9715H76.86V89.5586ZM76.86 103.332V100.993L122.549 100.753V103.332H76.86Z" fill="#CCCCCC"/>
<path d="M23.4124 101.229L25.4811 94.9287C22.9921 92.3669 19.872 90.4119 16.3918 89.2337C19.792 94.5017 16.4972 101.374 17.8702 107.392C18.3138 109.266 19.2026 111.022 20.4708 112.531C21.7389 114.04 23.3539 115.263 25.196 116.109L28.3352 119.746C29.9809 117.057 30.9837 114.067 31.2745 110.98C31.5653 107.894 31.1372 104.786 30.0197 101.869C29.3755 100.238 28.5142 98.6904 27.4564 97.2613C25.5909 99.3122 23.4124 101.229 23.4124 101.229Z" fill="#F2F2F2"/>
<path d="M12.0378 102.034L10.8848 95.5322C7.43534 94.2773 3.7105 93.8289 0.0336914 94.2259C5.58921 97.5228 5.91751 105.048 10.0162 109.862C11.3068 111.354 12.94 112.555 14.7946 113.377C16.6493 114.198 18.6778 114.619 20.73 114.608L25.2744 116.554C25.465 113.461 24.9364 110.366 23.7249 107.483C22.5134 104.599 20.6478 101.995 18.2567 99.851C16.9026 98.6604 15.3935 97.634 13.7651 96.7961C13.0735 99.4098 12.0378 102.034 12.0378 102.034Z" fill="#F2F2F2"/>
<path d="M175.372 74.5549L170.847 69.5022C172.075 66.2369 174.137 63.3014 176.853 60.9506C175.911 67.0404 181.803 72.1741 183.04 78.2177C183.41 80.1055 183.321 82.0469 182.78 83.8982C182.239 85.7495 181.259 87.4632 179.914 88.9123L178.534 93.405C175.9 91.526 173.733 89.1352 172.182 86.3975C170.631 83.6597 169.733 80.6401 169.55 77.5466C169.466 75.8102 169.616 74.0708 169.996 72.3694C172.568 73.5808 175.372 74.5549 175.372 74.5549Z" fill="#F2F2F2"/>
<path d="M186.186 71.161L184.545 64.7513C187.202 62.341 190.447 60.5736 194 59.6025C190.252 64.66 193.078 71.7125 191.303 77.6376C190.734 79.4817 189.729 81.1823 188.361 82.6137C186.994 84.045 185.3 85.1702 183.405 85.906L180.027 89.3516C178.566 86.5711 177.766 83.5274 177.683 80.4302C177.601 77.3329 178.237 74.2557 179.549 71.4106C180.301 69.8214 181.265 68.3271 182.417 66.963C184.141 69.1196 186.186 71.161 186.186 71.161Z" fill="#F2F2F2"/>
<path d="M96.858 129.874L93.8854 131.215L86.9397 121.131L91.3268 119.152L96.858 129.874Z" fill="#FFB6B6"/>
<path d="M97.1932 89.2866L94.5513 93.0146C94.5513 93.0146 78.8427 102.743 79.4985 106.362C79.7279 107.628 80.7246 110.291 82.0068 113.258C82.4007 114.17 84.252 115.983 84.6859 116.921C86.8764 121.655 87.9671 125.443 89.0191 125.949C90.1874 126.516 90.0677 126.066 90.7836 127.099L94.9287 125.645C94.9287 125.645 95.5743 124.29 95.895 123.619C96.2156 122.947 95.7128 122.613 95.7128 122.613C95.7128 122.613 95.1043 122.917 95.21 122.28C95.3157 121.642 95.2792 121.441 95.0278 121.274C94.7764 121.107 93.8036 119.4 93.8036 119.4C92.9156 118.181 92.202 116.859 91.6808 115.467C91.4495 114.856 91.4726 113.392 91.1626 112.802C90.5097 111.557 90.2786 110.638 89.2236 109.991C89.2236 109.991 102.505 103.957 103.752 101.07C104.998 98.1842 103.716 88.6666 103.716 88.6666L97.1932 89.2866Z" fill="#2F2E41"/>
<path d="M98.4341 131.339L88.3828 135L88.3333 134.881C87.9293 133.911 87.9539 132.83 88.4018 131.877C88.8497 130.923 89.6842 130.175 90.7217 129.797L90.722 129.797L92.0154 127.826L95.9836 127.881L96.861 127.561L98.4341 131.339Z" fill="#2F2E41"/>
<path d="M121.883 115.193L126.74 114.849L126.135 126.831L122.844 127.064L121.883 115.193Z" fill="#FFB6B6"/>
<path d="M95.1936 92.5833C94.0768 87.9844 97.2239 101.697 100.488 104.261C101.772 105.269 107.144 104.226 111.592 104.544C114.318 104.761 116.979 105.437 119.447 106.539C118.738 107.748 119.48 109.553 119.618 111.176C119.87 114.136 120.124 116.857 120.124 116.857C120.124 116.857 120.121 118.792 119.983 119.05C119.845 119.308 119.913 119.501 120.327 120.017C120.74 120.534 120.05 120.533 120.05 120.533C120.05 120.533 119.774 121.049 120.394 121.501C121.014 121.953 122.485 123.269 122.485 123.269L126.433 122.942C126.547 121.716 126.887 121.554 127.635 120.541C128.346 119.583 128.183 113.831 127.682 108.433C127.648 108.067 128.194 106.916 128.157 106.555C127.787 102.933 126.695 100.422 126.214 99.0664C125.882 98.1313 124.288 97.3249 122.133 96.6455C121.805 96.5418 121.463 96.4411 121.11 96.3433C115.168 94.6949 106.224 93.8853 106.224 93.8853L101.334 89.8173L95.1936 92.5833Z" fill="#2F2E41"/>
<path d="M122.401 126.406L123.295 126.129L126.313 123.719L128.654 124.465L128.654 124.465C129.711 124.136 130.863 124.214 131.859 124.681C132.854 125.148 133.61 125.965 133.961 126.954L134.004 127.075L123.767 130.254L122.401 126.406Z" fill="#2F2E41"/>
<path d="M99.7005 66.1026L96.7627 68.1947L93.2196 69.2129C93.2196 69.2129 91.7549 88.4813 90.4351 89.7156C89.1153 90.9498 90.3056 90.983 90.0404 92.5864C89.7752 94.1898 89.1306 97.4766 89.1306 97.4766C98.0393 101.887 105.72 102.005 111.889 96.8444C111.968 96.5252 111.928 96.1903 111.775 95.8953C111.623 95.6003 111.367 95.3629 111.05 95.2224C109.902 94.6526 112.109 91.9934 111.17 91.5487C110.232 91.1041 111.552 87.247 111.552 87.247L110.686 79.1995L111.37 77.913L109.701 70.0416L106.804 69.0524L105.647 66.4454L99.7005 66.1026Z" fill="#00ADB5"/>
<path d="M102.708 64.9382C105.918 64.9382 108.519 62.5051 108.519 59.5036C108.519 56.5022 105.918 54.069 102.708 54.069C99.4987 54.069 96.897 56.5022 96.897 59.5036C96.897 62.5051 99.4987 64.9382 102.708 64.9382Z" fill="#FFB6B6"/>
<path d="M97.8602 100.349C97.8733 100.001 97.8047 99.6545 97.6593 99.334C97.5138 99.0135 97.2949 98.7267 97.0181 98.4939C96.7413 98.261 96.4132 98.0878 96.057 97.9863C95.7009 97.8849 95.3253 97.8577 94.9566 97.9067L90.8163 90.3805L88.5095 94.2133L92.7949 100.773C92.924 101.346 93.2736 101.856 93.7774 102.205C94.2813 102.553 94.9045 102.717 95.5288 102.665C96.1532 102.613 96.7353 102.348 97.165 101.921C97.5947 101.494 97.842 100.935 97.8602 100.349Z" fill="#FFB6B6"/>
<path d="M90.8874 98.5078L82.0068 85.636L82.0362 85.5767C82.0697 85.5089 84.0807 81.4471 86.0292 77.7268C86.3293 77.1539 86.6279 76.5891 86.9175 76.0482C87.0425 75.8147 87.1657 75.5862 87.287 75.3625C88.1054 73.8536 88.8204 72.6065 89.2472 72.0141C90.1913 70.6746 91.5969 69.6775 93.2305 69.1882L93.2716 69.1783L93.3108 69.1936C94.1099 69.5089 94.7703 70.0695 95.1829 70.7829C95.5956 71.4963 95.736 72.3199 95.581 73.118C94.8107 76.9672 93.0943 80.5964 90.5673 83.719L89.1276 85.4937L94.1307 95.666L90.8874 98.5078Z" fill="#00ADB5"/>
<path d="M114.014 103.307V103.653C114.014 103.856 113.928 104.05 113.774 104.193C113.621 104.336 113.414 104.417 113.197 104.417H86.0406C85.8241 104.417 85.6164 104.336 85.4633 104.193C85.3102 104.05 85.2242 103.856 85.2241 103.653V103.307C85.2242 103.105 85.3102 102.911 85.4633 102.767C85.6164 102.624 85.8241 102.544 86.0406 102.544H86.5228C86.5058 102.488 86.497 102.43 86.4965 102.372V89.41C86.4966 89.2401 86.5688 89.0773 86.6972 88.9572C86.8256 88.8372 86.9997 88.7696 87.1813 88.7695H112.056C112.238 88.7696 112.412 88.8372 112.541 88.9572C112.669 89.0773 112.741 89.2401 112.741 89.41V102.372C112.741 102.43 112.732 102.488 112.715 102.544H113.197C113.414 102.544 113.621 102.624 113.774 102.767C113.928 102.911 114.014 103.105 114.014 103.307Z" fill="#3F3D56"/>
<path d="M100.154 96.093C99.8471 96.093 99.547 96.0079 99.2918 95.8484C99.0366 95.6889 98.8377 95.4622 98.7202 95.197C98.6027 94.9318 98.572 94.64 98.6319 94.3584C98.6918 94.0769 98.8396 93.8182 99.0566 93.6152C99.2737 93.4123 99.5502 93.274 99.8513 93.218C100.152 93.162 100.464 93.1907 100.748 93.3006C101.032 93.4105 101.274 93.5965 101.445 93.8352C101.615 94.0739 101.706 94.3545 101.706 94.6416C101.706 95.0264 101.542 95.3953 101.251 95.6674C100.96 95.9395 100.566 96.0926 100.154 96.093ZM100.154 93.4403C99.9 93.4403 99.6517 93.5108 99.4404 93.6428C99.2292 93.7748 99.0646 93.9624 98.9673 94.1819C98.8701 94.4014 98.8447 94.6429 98.8942 94.8759C98.9438 95.109 99.0661 95.323 99.2458 95.491C99.4254 95.659 99.6543 95.7734 99.9035 95.8198C100.153 95.8661 100.411 95.8423 100.646 95.7514C100.88 95.6605 101.081 95.5065 101.222 95.309C101.363 95.1114 101.439 94.8792 101.439 94.6416C101.438 94.3231 101.303 94.0178 101.062 93.7926C100.821 93.5673 100.495 93.4407 100.154 93.4403Z" fill="white"/>
<path d="M99.6189 95.4676C100.402 95.4676 101.037 94.8737 101.037 94.1412C101.037 93.4087 100.402 92.8149 99.6189 92.8149C98.8357 92.8149 98.2007 93.4087 98.2007 94.1412C98.2007 94.8737 98.8357 95.4676 99.6189 95.4676Z" fill="white"/>
<path d="M121.425 49.168C121.18 49.4305 121 49.7401 120.898 50.0747C120.795 50.4094 120.772 50.7611 120.83 51.105C120.888 51.4489 121.026 51.7766 121.235 52.0652C121.443 52.3537 121.717 52.5961 122.036 52.7751L120.185 61.06L124.558 59.4409L125.645 51.8216C125.931 51.3 126.003 50.6984 125.846 50.1307C125.689 49.5631 125.316 49.0689 124.795 48.7418C124.275 48.4148 123.645 48.2775 123.024 48.356C122.402 48.4345 121.834 48.7235 121.425 49.168Z" fill="#FFB6B6"/>
<path d="M125.602 54.7044L123.834 69.9335L123.771 69.9622C123.719 69.9859 121.479 71.0136 118.729 72.2374C118.265 72.4438 118.332 73.3382 117.847 73.5519C117.513 73.6991 116.631 73.1649 116.294 73.3125C113.288 74.627 110.248 75.9053 109.037 76.2516C107.402 76.7362 105.639 76.6831 104.04 76.1012L104.001 76.0847L103.981 76.0497C103.573 75.3342 103.437 74.5098 103.597 73.7126C103.757 72.9154 104.202 72.1928 104.86 71.6642C108.05 69.1275 111.827 67.319 115.893 66.3814L118.206 65.8506L121.169 55.0021L125.602 54.7044Z" fill="#00ADB5"/>
<path d="M115.701 49.0095L116.367 54.6569C116.413 54.7978 116.506 54.9211 116.633 55.0087C116.76 55.0963 116.914 55.1436 117.071 55.1436H120.138C120.296 55.1436 120.45 55.0963 120.576 55.0087C120.703 54.9211 120.797 54.7978 120.843 54.6569L121.394 50.3285C121.553 50.4014 121.729 50.438 121.906 50.4352C122.083 50.4324 122.257 50.3904 122.413 50.3125C122.57 50.2346 122.704 50.1231 122.805 49.9872C122.907 49.8513 122.972 49.6948 122.996 49.5307C123.02 49.3665 123.002 49.1994 122.944 49.0429C122.885 48.8865 122.788 48.7453 122.66 48.631C122.531 48.5166 122.376 48.4323 122.206 48.3851C122.036 48.3378 121.857 48.3289 121.683 48.3592C121.614 48.2832 121.528 48.2222 121.432 48.1804C121.335 48.1387 121.23 48.1171 121.124 48.1174H116.406C116.291 48.1174 116.177 48.1427 116.074 48.1913C115.971 48.2399 115.881 48.3104 115.813 48.3972C115.744 48.484 115.699 48.5846 115.679 48.6909C115.66 48.7973 115.667 48.9064 115.701 49.0095ZM121.49 50.0357L121.828 49.0095C121.867 48.8911 121.871 48.7649 121.839 48.6446C121.854 48.6439 121.867 48.6406 121.882 48.6406C122.094 48.6406 122.297 48.7194 122.447 48.8595C122.597 48.9997 122.681 49.1898 122.681 49.3881C122.681 49.5863 122.597 49.7764 122.447 49.9166C122.297 50.0568 122.094 50.1355 121.882 50.1355C121.744 50.1347 121.609 50.1003 121.49 50.0357Z" fill="#3F3D56"/>
<path d="M107.441 54.8348C106.964 53.5346 104.585 52.6328 100.728 52.5074C96.8711 52.382 95.893 56.6324 95.893 56.6324C93.3183 58.5856 98.6422 63.8149 98.8997 63.6265L98.7839 62.6441C98.5921 61.0167 97.7773 59.747 98.8136 58.051L99.8087 58.0617C101.094 58.2928 102.379 58.5239 103.664 58.755L102.143 57.5022L102.186 57.4401C102.833 57.7554 103.537 57.9553 104.262 58.0298C105.08 58.0748 105.974 57.7704 106.366 57.0976C106.471 56.9126 106.534 56.71 106.554 56.5016C107.657 56.9136 108.161 58.185 108.161 58.185C108.161 58.185 107.919 56.135 107.441 54.8348Z" fill="#2F2E41"/>
</g>
<defs>
<clipPath id="clip0_122_542">
<rect width="194" height="135" fill="white"/>
</clipPath>
</defs>
</svg>
