<svg width="214" height="136" viewBox="0 0 214 136" fill="none" xmlns="http://www.w3.org/2000/svg">
<g clip-path="url(#clip0_122_313)">
<path d="M204.501 75.3762L203.831 81.9482L202.167 98.2715H168.743C169.004 94.6129 169.361 89.3469 169.742 83.6621C169.78 83.0943 169.819 82.523 169.857 81.9482C170.813 67.6582 171.859 51.4874 171.859 51.4874L176.253 52.4952L184.778 54.4469L188.252 55.2418L197.555 57.3745C202.193 58.4355 205.384 66.7036 204.501 75.3762Z" fill="#F2F2F2"/>
<path d="M179.219 25.0438L183.329 33.899L175.43 40.7917L172.06 29.907L179.219 25.0438Z" fill="#FFB6B6"/>
<path d="M173.987 33.4212C179.61 33.4212 184.169 27.8086 184.169 20.8851C184.169 13.9616 179.61 8.34894 173.987 8.34894C168.363 8.34894 163.804 13.9616 163.804 20.8851C163.804 27.8086 168.363 33.4212 173.987 33.4212Z" fill="#FFB6B6"/>
<path d="M173.256 23.6876C172.447 22.1727 172.764 21.3803 172.088 20.8236C172.088 20.8236 171.815 20.5995 169.866 20.4718C169.429 16.6044 168.884 16.1354 168.884 16.1354C168.257 15.5948 167.325 15.7705 166.745 16.1011C165.519 16.8003 165.661 18.3106 164.835 18.5996C163.695 18.9989 161.62 16.7481 161.415 14.1714C161.249 12.0696 162.349 10.0281 162.785 10.1361C163.217 10.2432 164.253 8.61548 164.812 8.64059C165.194 8.65774 166.754 7.82281 167.174 7.88808C167.633 7.95938 169.144 8.9304 169.207 8.70855C169.645 7.16692 169.516 6.73918 169.887 6.29815C170.545 5.51665 171.622 6.06086 173.311 6.35303C176.785 6.95417 177.392 5.54362 179.172 6.4997C180.072 6.98267 180.825 8.28516 182.293 10.8704C184.347 14.4859 185.374 16.2937 185.381 18.4021C185.387 20.5524 184.542 20.4159 184.17 23.5992C183.757 27.1427 184.635 28.763 183.675 29.9142C182.934 30.804 181.426 31.0152 180.633 30.2343C179.277 28.8974 181.052 25.6713 179.551 23.3144C178.63 21.8676 176.776 21.2238 175.928 21.939C174.968 22.7476 175.497 25.1211 174.822 25.3462C174.244 25.5389 173.397 23.9516 173.256 23.6876Z" fill="#2F2E41"/>
<path d="M196.975 73.0618C196.691 79.0404 195.563 80.928 195.168 87.9887C195.082 89.5389 195.03 91.3382 195.03 93.4841C195.03 94.0312 195.032 94.5601 195.032 95.0769C195.032 96.1771 195.015 97.2167 194.911 98.2713C194.832 99.1133 194.696 99.9613 194.472 100.855H172.541C172.539 100.849 172.539 100.843 172.536 100.837C172.408 100.15 172.326 99.4932 172.265 98.8641C172.245 98.6635 172.228 98.4659 172.213 98.2713C172.193 98.0434 172.176 97.8185 172.159 97.5967C172.092 96.7121 172.025 95.8763 171.867 95.0769C171.655 93.9735 171.27 92.934 170.48 91.931C170.156 91.5206 169.833 91.2015 169.517 90.9219C169.455 90.8701 169.396 90.8185 169.334 90.7668C168.46 90.0282 167.633 89.4963 166.917 87.9887C166.905 87.9675 166.895 87.9431 166.885 87.9219C166.762 87.6574 166.441 86.9644 166.209 86.0405C165.964 85.08 165.816 83.8732 166.083 82.6393C166.717 79.7153 169.068 79.4235 170.988 76.469C171.196 76.1499 171.401 75.7973 171.596 75.4052C172.465 73.6666 172.699 72.1348 172.976 70.3141C173.02 70.0192 173.06 69.7274 173.092 69.4448C173.116 69.232 173.139 69.0223 173.156 68.8155C173.309 67.08 173.235 65.5846 173.055 64.2472C172.467 59.8673 170.734 57.156 171.958 53.2259C172.344 51.992 172.889 51.0649 173.44 50.2716C174.605 48.5907 175.803 47.4996 175.595 45.3295C175.385 43.141 174.037 42.84 173.887 40.9281C173.81 39.9617 174.067 38.9434 174.548 37.9434V37.9404C176.089 34.7215 179.935 31.758 182.379 31.8522C182.831 31.8675 183.231 31.992 183.564 32.2322C184.772 33.1075 184.268 35.0194 186.117 37.7003C187.492 39.6911 189.048 40.4875 189.638 40.8643C191.976 42.3659 193.877 46.7944 195.168 52.457C195.178 52.4996 195.188 52.542 195.197 52.5878C195.995 56.1348 196.558 60.1622 196.837 64.2472C196.955 65.9767 197.025 67.7153 197.039 69.4356C197.052 70.8094 197.027 72.0011 196.975 73.0618Z" fill="#00ADB5"/>
<path d="M180.552 93.545L180.105 95.0769L179.824 96.0373L179.172 98.2713L178.417 100.855H173.561L174.375 98.2713L174.753 97.0677L175.38 95.0769L176.432 91.7335L180.552 93.545Z" fill="#FFB6B6"/>
<path d="M195.244 51.9341C195.232 52.1318 195.215 52.3506 195.197 52.5877C195.005 55.0011 194.55 59.3202 193.886 64.2472C193.536 66.8459 193.126 69.615 192.664 72.3657C191.672 78.3018 190.438 84.1469 189.043 87.9887C188.793 88.6818 188.537 89.3079 188.275 89.8611C188.075 90.2836 187.865 90.6999 187.645 91.1103C186.934 92.4568 186.137 93.7335 185.31 94.9249C185.278 94.9766 185.241 95.0252 185.204 95.0769C185.07 95.2713 184.932 95.4629 184.794 95.6544C184.117 96.5935 183.426 97.4689 182.757 98.2713C181.942 99.2501 181.157 100.116 180.454 100.855H172.568L172.536 100.837L171.4 100.217C171.4 100.217 171.724 99.7485 172.264 98.8641C172.376 98.6847 172.494 98.4871 172.623 98.2713C172.78 98.0068 172.951 97.7151 173.133 97.399C173.514 96.7364 173.946 95.9583 174.41 95.0769C175.309 93.3716 176.333 91.2744 177.368 88.8459C177.486 88.5632 177.607 88.2775 177.728 87.9887C177.73 87.9796 177.735 87.9704 177.738 87.9614C177.943 87.4689 178.145 86.9614 178.348 86.4446C180.063 82.0495 180.555 78.4021 180.696 77.2198C180.893 75.5481 181.167 73.2106 181.093 70.6392C181.044 68.9433 180.844 67.1499 180.367 65.3688V65.3658C180.268 64.9919 180.157 64.6181 180.031 64.2472C179.807 63.5816 179.54 62.925 179.224 62.2776C177.829 59.4266 176.696 59.308 175.795 56.2016C175.528 55.2807 174.923 53.2017 175.108 51.0071V51.0042C175.131 50.7336 175.168 50.4601 175.217 50.1864V50.1834C175.229 50.1074 175.247 50.0285 175.264 49.9525C175.405 49.2808 175.637 48.615 175.99 47.9828C176.679 46.7549 177.619 46.0253 178.461 45.5908L178.464 45.5877C179.436 45.0893 180.276 44.9829 180.439 44.9646C184.046 44.5696 186.843 48.302 188.371 50.3415C188.961 51.1287 189.502 51.7884 189.996 52.3262C193.839 56.5512 194.894 53.8521 195.168 52.457C195.21 52.2412 195.232 52.0558 195.244 51.9341Z" fill="#00ADB5"/>
<path d="M195.257 51.7762C195.257 51.7913 195.254 51.843 195.244 51.9282C195.249 51.8824 195.252 51.8369 195.254 51.7943C195.254 51.7852 195.254 51.7792 195.257 51.7762Z" fill="#00ADB5"/>
<path d="M175.649 115.913H43.3082C42.0787 115.913 41.0764 117.144 41.0764 118.657C41.0764 120.174 42.0787 121.405 43.3082 121.405H175.649C176.879 121.405 177.879 120.174 177.879 118.657C177.879 117.144 176.879 115.913 175.649 115.913Z" fill="#E6E6E6"/>
<path d="M146.28 130.101H72.6749C71.4454 130.101 70.4456 131.332 70.4456 132.846C70.4456 134.359 71.4454 135.593 72.6749 135.593H146.28C147.51 135.593 148.512 134.359 148.512 132.846C148.512 131.332 147.51 130.101 146.28 130.101Z" fill="#E6E6E6"/>
<path d="M58.0344 25.6265L66.375 21.305L69.9524 30.334L61.1877 34.7383L58.0344 25.6265Z" fill="#FFB6B6"/>
<path opacity="0.1" d="M58.0344 25.6265L66.375 21.305L69.9524 30.334L61.1877 34.7383L58.0344 25.6265Z" fill="black"/>
<path d="M59.2201 22.1859L67.4482 33.8575C67.4482 33.8575 61.7243 56.0995 56.0004 58.0815C50.2765 60.0635 39.7231 69.7531 39.7231 69.7531L26.4866 59.1826L32.926 47.511C32.926 47.511 48.4878 21.305 52.6019 21.305C56.7159 21.305 59.2201 22.1859 59.2201 22.1859Z" fill="#00ADB5"/>
<path d="M48.1033 98.2715H28.9497L27.7388 96.2785L22.7948 88.1414L21.6571 86.2696C21.6571 86.2696 17.3642 76.5799 18.2586 67.7712C19.1529 58.9624 28.4543 56.9805 28.4543 56.9805H28.8371L40.224 69.2995L39.5443 80.7641L43.1504 88.1414L48.1033 98.2715Z" fill="#2F2E41"/>
<path d="M32.8724 98.2715H27.7388V88.9122L32.8724 98.2715Z" fill="#2F2E41"/>
<path d="M143.598 84.0629L142.959 88.1414L141.374 98.2714H109.537C109.785 96.001 110.125 92.7329 110.488 89.205C110.524 88.8527 110.562 88.4981 110.598 88.1414C111.508 79.2732 112.504 69.2378 112.504 69.2378L116.69 69.8632L124.811 71.0744L128.12 71.5677L136.981 72.8912C141.399 73.5497 144.438 78.6808 143.598 84.0629Z" fill="#F2F2F2"/>
<path d="M188.654 98.2714H171.385C171.648 97.8905 171.797 97.6702 171.797 97.6702L176.973 96.6176L187.64 94.4506C187.64 94.4506 188.126 95.9988 188.654 98.2714Z" fill="#2F2E41"/>
<path d="M115.406 30.0312L122.916 43.1065L109.817 43.5881L108.411 31.3004L115.406 30.0312Z" fill="#A0616A"/>
<path opacity="0.1" d="M115.406 30.0312L122.916 43.1065L109.817 43.5881L108.411 31.3004L115.406 30.0312Z" fill="black"/>
<path d="M78.3717 57.1222C77.4081 53.7 75.1928 51.5382 73.4239 52.2935C71.655 53.0488 71.0026 56.4349 71.9669 59.8582C72.3369 61.2322 72.9687 62.4771 73.8096 63.4888L78.041 77.9253L83.5014 75.3362L78.7502 61.3792C78.902 59.9434 78.7722 58.4836 78.3717 57.1222Z" fill="#A0616A"/>
<path d="M129.205 50.4597L129.195 63.7852L128.188 68.7071L126.116 78.8305L124.609 88.1414L123.485 95.0783L123.085 97.5557C122.782 97.8046 122.482 98.0424 122.181 98.2714H96.0176C94.5312 97.1725 93.6995 96.3181 93.6995 96.3181C93.6995 96.3181 94.1109 95.8424 94.5813 95.0783C95.3755 93.7878 96.336 91.6737 95.7476 89.6543C95.6241 89.2314 95.5919 88.7161 95.6295 88.1414C95.8692 84.3492 99.0996 77.9364 99.0996 77.9364L98.4306 68.4186L98.1373 64.2476L100.206 43.9103L106.947 39.0854L108.111 38.9467L119.6 38.1826L124.349 38.5195L124.565 38.5922L129.205 50.4597Z" fill="#CCCCCC"/>
<path d="M129.715 98.2714H123.991L123.739 95.0783L123.734 95.0144L125.354 94.8779L129.57 94.5233L129.644 96.4348L129.701 97.9015L129.715 98.2714Z" fill="#FFB6B6"/>
<path d="M131.124 53.6816L133.529 71.0502L131.567 88.1414L131.261 90.8017L130.721 95.4989L130.554 96.9435L130.56 97.0999L130.601 98.2715H123.804L123.553 95.0783L123.532 94.792L123.02 88.2515L123.011 88.1414L121.926 74.272L124.054 64.2477L124.212 63.5099V63.5077L125.138 46.3439L124.42 38.5438L124.413 38.4711C124.428 38.4821 124.44 38.4931 124.454 38.5041C124.492 38.5327 124.529 38.5614 124.565 38.5922C128.744 41.8559 131.234 47.5815 131.124 53.6816Z" fill="#CCCCCC"/>
<path d="M102.641 47.2385L100.027 43.9101C100.027 43.9101 94.4313 47.0157 94.1524 48.7387C93.8735 50.4617 83.9941 75.7676 83.9941 75.7676L79.6959 61.6343L74.1011 66.2332C74.1011 66.2332 78.5904 88.1759 82.7888 89.206C86.9872 90.2361 101.059 63.2347 101.059 63.2347L102.641 47.2385Z" fill="#CCCCCC"/>
<path d="M208.774 87.9887H5.22407C2.34297 87.9887 0 90.8762 0 94.4233C0 97.9704 2.34297 100.855 5.22407 100.855H208.774C211.655 100.855 214 97.9705 214 94.4233C214 90.8761 211.655 87.9887 208.774 87.9887Z" fill="#E6E6E6"/>
<path d="M128.014 68.3816L127.618 91.1178C127.58 93.3187 126.12 95.0783 124.332 95.0783H90.36C88.6142 95.0783 87.1729 93.3982 87.0776 91.252L86.068 68.5158C85.965 66.1972 87.4644 64.2477 89.3504 64.2477H124.727C126.57 64.2477 128.053 66.113 128.014 68.3816Z" fill="#3F3D56"/>
<path d="M73.1722 31.1148C77.6611 31.1148 81.3001 26.6347 81.3001 21.1082C81.3001 15.5817 77.6611 11.1016 73.1722 11.1016C68.6834 11.1016 65.0444 15.5817 65.0444 21.1082C65.0444 26.6347 68.6834 31.1148 73.1722 31.1148Z" fill="#FFB6B6"/>
<path d="M59.5779 47.2908L60.4723 59.1826L66.554 89.3526L61.2998 91.6198L52.4231 58.7422L51.197 45.5291L59.5779 47.2908Z" fill="#FFB6B6"/>
<path d="M57.1587 68.3816L56.763 91.1178C56.7247 93.3187 55.2645 95.0783 53.4764 95.0783H19.5048C17.759 95.0783 16.3176 93.3982 16.2223 91.252L15.2128 68.5158C15.1098 66.1972 16.6091 64.2477 18.4952 64.2477H53.8721C55.7153 64.2477 57.1982 66.113 57.1587 68.3816Z" fill="#3F3D56"/>
<path d="M67.5222 95.2319C71.0673 95.2319 73.9411 93.667 73.9411 91.7365C73.9411 89.806 71.0673 88.2411 67.5222 88.2411C63.9771 88.2411 61.1033 89.806 61.1033 91.7365C61.1033 93.667 63.9771 95.2319 67.5222 95.2319Z" fill="#FFB6B6"/>
<path d="M46.9675 49.1089L50.6344 25.0487C50.6344 25.0487 60.8301 23.287 61.1878 27.4711C61.5456 31.6553 60.9322 52.1038 60.9322 52.1038L46.9675 49.1089Z" fill="#00ADB5"/>
<path d="M69.8912 22.6816C69.8912 22.6816 74.919 20.4723 77.0399 19.2837C79.1607 18.095 83.3742 26.3859 83.4679 22.0072C83.5616 17.6285 82.1057 15.7923 82.1057 15.7923C82.1057 15.7923 81.7421 6.21328 73.9035 7.41088C73.9035 7.41088 75.6276 2.6184 69.968 1.87733C64.3083 1.13626 55.5033 17.9626 56.2919 20.4773C57.0804 22.9919 58.0257 25.0708 55.7885 27.7595C53.5513 30.4482 49.3621 45.6224 52.5494 49.7056C55.7367 53.7889 55.9459 55.5608 53.7621 58.1011C51.5782 60.6414 46.4163 66.165 51.9976 67.1239C57.5788 68.0828 51.4869 67.3666 55.6479 62.8606C59.8088 58.3546 65.8805 58.5386 63.6134 51.3091C61.3463 44.0796 65.2851 33.7198 64.7922 32.1481C64.2994 30.5765 65.8964 20.5965 65.8964 20.5965C65.8964 20.5965 69.6133 19.9242 69.8912 22.6816Z" fill="#2F2E41"/>
<path d="M111.391 34.7638C116.277 34.7638 120.239 29.8869 120.239 23.8709C120.239 17.8549 116.277 12.978 111.391 12.978C106.504 12.978 102.543 17.8549 102.543 23.8709C102.543 29.8869 106.504 34.7638 111.391 34.7638Z" fill="#A0616A"/>
<path d="M112.097 9.22616C111.841 9.41015 111.498 9.13177 111.416 8.78108C111.334 8.43038 111.43 8.05804 111.524 7.71225L112.002 5.97148C112.34 4.73689 112.7 3.45915 113.433 2.51947C114.54 1.10117 116.299 0.740356 117.882 1.00175C119.915 1.33743 121.921 2.69294 122.867 4.93445C123.812 7.17597 123.41 10.3037 121.701 11.7022C124.136 15.1378 124.985 18.9667 124.851 23.5232C124.717 28.0797 120.684 32.2732 118.053 35.4831C117.466 35.0447 116.932 32.9904 117.255 32.2441C117.578 31.4978 117.115 30.6332 117.515 29.9458C117.915 29.2584 118.25 30.353 117.846 29.6694C117.59 29.2381 118.586 28.2459 118.207 27.9877C116.372 26.7391 115.762 23.9236 114.61 21.7675C113.22 19.1669 110.841 17.4057 108.324 17.1135C106.937 16.9526 105.472 17.2441 104.335 18.2353C103.199 19.2265 102.463 20.9978 102.726 22.6817C102.044 21.8283 101.704 20.5777 101.832 19.3904C101.96 18.2031 102.554 17.1052 103.394 16.501C102.883 14.4216 103.32 12.0296 104.506 10.4204C105.691 8.81129 110.5 9.08536 112.231 9.50886L112.097 9.22616Z" fill="#2F2E41"/>
<path d="M112.366 17.1766C114.658 17.4813 116.313 19.9259 117.711 22.1835C118.516 23.4847 119.36 24.9217 119.34 26.5575C119.32 28.2114 118.421 29.63 117.992 31.1974C117.29 33.7594 117.974 36.8076 119.645 38.563C117.994 38.9486 116.21 37.4251 115.925 35.387C115.593 33.0143 117.054 30.7244 116.881 28.3263C116.729 26.2136 115.377 24.5875 114.227 23.0079C113.077 21.4282 111.997 19.332 112.526 17.3133L112.366 17.1766Z" fill="#2F2E41"/>
<path d="M146.635 89.3655C144.365 90.9555 143.191 93.6866 144.013 95.4654C144.835 97.2442 147.341 97.3969 149.613 95.8061C150.527 95.1859 151.307 94.3052 151.888 93.2376L161.44 86.3514L158.719 80.9021L149.592 88.2692C148.55 88.3387 147.536 88.7146 146.635 89.3655Z" fill="#FFB6B6"/>
<path d="M178.974 38.8684C178.688 38.7291 176.184 37.5615 173.897 39.1031C171.271 40.874 170.865 44.9166 170.723 46.3345C170.394 49.6098 171.363 50.344 171.567 53.6598C171.949 59.8635 172.958 52.7863 171.347 55.618C170.79 56.5982 165.097 71.7876 161.957 74.7628C155.851 80.5492 151.974 84.6242 151.974 84.6242L156.4 90.5443C156.4 90.5443 163.395 88.2497 169.578 83.3072C175.92 78.2374 179.091 75.7024 181.544 70.7434C181.755 70.3164 186.81 59.7478 184.096 48.0614C183.476 45.3957 182.342 40.5117 178.974 38.8684Z" fill="#00ADB5"/>
<path d="M201.832 68.3816L201.436 91.1178C201.398 93.3187 199.937 95.0783 198.149 95.0783H164.178C162.432 95.0783 160.99 93.3982 160.895 91.252L159.886 68.5158C159.783 66.1972 161.282 64.2477 163.168 64.2477H198.545C200.388 64.2477 201.871 66.113 201.832 68.3816Z" fill="#3F3D56"/>
</g>
<defs>
<clipPath id="clip0_122_313">
<rect width="214" height="134.67" fill="white" transform="translate(0 0.923035)"/>
</clipPath>
</defs>
</svg>
