<svg width="502" height="396" viewBox="0 0 502 396" fill="none" xmlns="http://www.w3.org/2000/svg">
<rect x="47" width="455" height="348" rx="20" fill="#00ADB5" fill-opacity="0.1"/>
<rect x="48" y="1" width="453" height="346" rx="19" stroke="black" stroke-opacity="0.5" stroke-width="2"/>
<g filter="url(#filter0_d_124_601)">
<rect x="8" y="34" width="454" height="347" rx="20" fill="white" fill-opacity="0.5" shape-rendering="crispEdges"/>
</g>
<g clip-path="url(#clip0_124_601)">
<path d="M230.378 207.205C230.578 206.346 230.604 205.449 230.456 204.577C230.308 203.705 229.988 202.88 229.519 202.159C229.051 201.439 228.444 200.84 227.743 200.406C227.042 199.972 226.263 199.712 225.462 199.646L194.176 156.487L186.435 164.448L219.485 205.675C219.473 207.168 219.959 208.615 220.849 209.74C221.739 210.865 222.973 211.59 224.315 211.779C225.658 211.967 227.017 211.606 228.134 210.763C229.251 209.92 230.05 208.654 230.378 207.205Z" fill="#FFB8B8"/>
<path d="M200.178 163.343L190.291 171.698C190.01 171.935 189.685 172.103 189.34 172.19C188.994 172.277 188.636 172.281 188.289 172.201C187.942 172.121 187.615 171.96 187.329 171.728C187.044 171.496 186.807 171.199 186.635 170.858L180.613 158.878C179.519 157.283 179.042 155.274 179.289 153.292C179.535 151.31 180.483 149.517 181.925 148.306C183.368 147.094 185.187 146.563 186.984 146.829C188.781 147.095 190.408 148.136 191.51 149.725L200.396 159.23C200.65 159.502 200.848 159.832 200.977 160.196C201.105 160.56 201.161 160.951 201.14 161.341C201.12 161.732 201.023 162.113 200.857 162.458C200.691 162.803 200.459 163.105 200.178 163.343Z" fill="#CCCCCC"/>
<path d="M183.573 137.288C190.517 137.288 196.146 131.077 196.146 123.415C196.146 115.753 190.517 109.542 183.573 109.542C176.63 109.542 171 115.753 171 123.415C171 131.077 176.63 137.288 183.573 137.288Z" fill="#FFB8B8"/>
<path d="M210.412 303.367H216.688L216.09 290.407L206.828 290.407L210.412 303.367Z" fill="#FFB8B8"/>
<path d="M208.811 301.107L221.17 301.106H221.171C222.205 301.106 223.229 301.331 224.185 301.768C225.141 302.204 226.009 302.844 226.74 303.651C227.472 304.458 228.052 305.416 228.448 306.471C228.844 307.525 229.047 308.655 229.047 309.797V310.079L208.811 310.08L208.811 301.107Z" fill="#2F2E41"/>
<path d="M143.499 293.563L148.838 297.202L154.504 285.829L148.042 281.369L143.499 293.563Z" fill="#FFB8B8"/>
<path d="M143.214 290.711L153.729 297.878C154.609 298.478 155.374 299.264 155.979 300.189C156.584 301.115 157.018 302.163 157.256 303.274C157.493 304.385 157.531 305.536 157.365 306.663C157.2 307.789 156.835 308.869 156.291 309.84L156.157 310.08L138.94 298.346L143.214 290.711Z" fill="#2F2E41"/>
<path d="M209.958 299.568C209.492 299.567 209.036 299.41 208.652 299.118C208.269 298.825 207.975 298.41 207.809 297.929L185.108 238.041C185.059 237.895 184.975 237.766 184.864 237.67C184.753 237.573 184.621 237.512 184.48 237.493C184.34 237.474 184.198 237.498 184.069 237.563C183.941 237.628 183.831 237.73 183.752 237.859L152.565 292.067C152.26 292.572 151.8 292.939 151.271 293.102C150.741 293.265 150.176 293.212 149.678 292.954L145.411 290.756C144.864 290.472 144.44 289.963 144.23 289.338C144.019 288.713 144.038 288.022 144.283 287.413L169.834 224.57C169.276 223.072 163.834 207.695 172.195 200.097L172.254 200.057L194.926 188.898L195.497 208.088L218.095 294.602C218.18 294.927 218.205 295.268 218.169 295.605C218.133 295.941 218.036 296.266 217.885 296.561C217.733 296.855 217.53 297.114 217.286 297.32C217.043 297.527 216.765 297.678 216.468 297.764L210.548 299.483C210.356 299.539 210.157 299.567 209.958 299.568Z" fill="#2F2E41"/>
<path d="M195.269 160.827C194.405 157.004 193.182 153.151 191.542 151.372C190.939 150.723 190.372 150.034 189.845 149.31C188.742 147.777 187.354 146.522 185.775 145.63C186.353 145.275 186.691 144.852 186.691 144.396C186.691 143.149 184.17 142.137 181.06 142.137C177.95 142.137 175.429 143.149 175.429 144.396C175.437 144.541 175.471 144.683 175.528 144.814C175.585 144.944 175.666 145.061 175.764 145.158C173.733 146.071 171.969 147.582 170.662 149.525C169.356 151.469 168.558 153.771 168.356 156.18C167.629 164.775 167.416 175.761 169.965 182.71C172.103 188.456 172.273 194.864 170.443 200.739C170.319 201.148 170.304 201.587 170.4 202.006C170.495 202.424 170.697 202.803 170.982 203.099C171.267 203.394 171.623 203.593 172.007 203.672C172.391 203.751 172.788 203.707 173.151 203.545L195.647 193.542C196.026 193.374 196.35 193.085 196.579 192.711C196.807 192.338 196.929 191.897 196.929 191.447V176.254C196.947 171.057 196.39 165.876 195.269 160.827Z" fill="#CCCCCC"/>
<path d="M152.225 223.4C153.008 223.2 153.742 222.812 154.374 222.265C155.007 221.717 155.523 221.023 155.887 220.232C156.25 219.441 156.452 218.571 156.477 217.685C156.503 216.798 156.353 215.916 156.036 215.1L173.638 163.883L164.712 161.34L148.431 212.03C147.225 212.708 146.286 213.85 145.792 215.241C145.298 216.631 145.283 218.173 145.751 219.575C146.219 220.976 147.136 222.14 148.329 222.845C149.522 223.55 150.909 223.748 152.225 223.4Z" fill="#FFB8B8"/>
<path d="M173.564 173.602L162.285 167.776C161.964 167.61 161.679 167.37 161.45 167.072C161.221 166.774 161.053 166.425 160.957 166.048C160.861 165.672 160.84 165.277 160.894 164.891C160.949 164.505 161.079 164.136 161.274 163.81L168.129 152.388C168.908 150.582 170.303 149.19 172.01 148.518C173.717 147.846 175.595 147.947 177.234 148.8C178.873 149.653 180.139 151.188 180.754 153.069C181.369 154.95 181.284 157.023 180.516 158.834L176.972 171.917C176.87 172.292 176.697 172.638 176.463 172.932C176.229 173.226 175.941 173.461 175.617 173.62C175.294 173.78 174.943 173.861 174.589 173.858C174.235 173.855 173.885 173.767 173.564 173.602Z" fill="#CCCCCC"/>
<path d="M195.122 120.001C195.69 120.075 196.264 119.96 196.772 119.672C197.699 119.002 197.608 117.48 197.294 116.307C196.512 113.495 195.101 110.946 193.19 108.895C191.28 106.844 188.932 105.356 186.364 104.57C184.574 104.045 182.309 104.066 181.285 105.769C178.712 103.877 175.609 103.066 172.54 103.482C169.471 103.898 166.639 105.513 164.557 108.036C162.458 110.58 161.254 113.896 160.63 117.268C159.556 123.076 154.955 135.056 157.504 140.274C159.2 143.746 167.005 141.041 170.306 142.553C173.608 144.065 177.621 143.896 180.553 141.64C183.486 139.385 185.027 134.931 183.769 131.239C183.283 129.811 182.44 128.571 181.775 127.233C181.11 125.896 180.612 124.35 180.909 122.86C181.371 120.54 191.295 119.914 195.122 120.001Z" fill="#2F2E41"/>
<path d="M301 310.5C301 310.566 300.989 310.631 300.967 310.692C300.944 310.752 300.912 310.808 300.87 310.854C300.829 310.901 300.78 310.937 300.726 310.962C300.672 310.987 300.614 311 300.556 311H89.4444C89.3266 311 89.2135 310.947 89.1302 310.854C89.0468 310.76 89 310.633 89 310.5C89 310.367 89.0468 310.24 89.1302 310.146C89.2135 310.053 89.3266 310 89.4444 310H300.556C300.614 310 300.672 310.013 300.726 310.038C300.78 310.063 300.829 310.099 300.87 310.146C300.912 310.192 300.944 310.248 300.967 310.308C300.989 310.369 301 310.434 301 310.5Z" fill="#3F3D56"/>
<path d="M337.959 313C347.855 313 355.876 311.483 355.876 309.611C355.876 307.739 347.855 306.222 337.959 306.222C328.064 306.222 320.043 307.739 320.043 309.611C320.043 311.483 328.064 313 337.959 313Z" fill="#00ADB5"/>
<path d="M439.488 310.989H370.893C370.757 310.989 370.627 310.93 370.531 310.824C370.435 310.718 370.381 310.574 370.381 310.424C370.381 310.275 370.435 310.131 370.531 310.025C370.627 309.919 370.757 309.86 370.893 309.86H439.488C439.624 309.86 439.754 309.919 439.85 310.025C439.946 310.131 440 310.275 440 310.424C440 310.574 439.946 310.718 439.85 310.824C439.754 310.93 439.624 310.989 439.488 310.989Z" fill="#3F3D56"/>
<path d="M324.642 162.587C324.643 156.434 326.555 150.466 330.06 145.68C333.566 140.894 338.451 137.578 343.904 136.284C340.349 135.443 336.668 135.489 333.131 136.42C329.595 137.35 326.291 139.142 323.463 141.664C320.635 144.186 318.354 147.374 316.787 150.994C315.22 154.614 314.407 158.575 314.407 162.587C314.407 166.599 315.22 170.56 316.787 174.181C318.354 177.801 320.635 180.989 323.463 183.511C326.291 186.032 329.595 187.824 333.131 188.755C336.668 189.686 340.349 189.732 343.904 188.89C338.451 187.597 333.566 184.281 330.06 179.495C326.555 174.708 324.643 168.741 324.642 162.587Z" fill="#00ADB5"/>
<path d="M298.108 162.587C298.109 147.91 302.974 133.741 311.786 122.747C320.598 111.753 332.75 104.695 345.951 102.901C338.291 101.865 330.518 102.635 323.148 105.161C315.777 107.686 308.977 111.91 303.196 117.552C297.415 123.194 292.786 130.126 289.614 137.89C286.443 145.653 284.801 154.071 284.798 162.587C284.798 189.561 320.75 265.627 334.253 293.245C334.743 294.25 335.471 295.09 336.359 295.675C337.247 296.26 338.262 296.569 339.297 296.569C340.331 296.569 341.346 296.26 342.234 295.675C343.122 295.09 343.85 294.25 344.34 293.245C344.846 292.211 345.386 291.102 345.951 289.938C331.415 259.994 298.108 188.552 298.108 162.587Z" fill="#00ADB5"/>
<path d="M339.343 297.245C338.215 297.255 337.105 296.923 336.136 296.284C335.167 295.645 334.376 294.725 333.849 293.624C318.961 263.173 284.333 189.458 284.333 162.698C284.333 146.6 290.129 131.161 300.446 119.778C310.762 108.395 324.754 102 339.344 102C353.933 102 367.926 108.395 378.242 119.778C388.558 131.161 394.354 146.6 394.354 162.698C394.354 189.46 359.726 263.174 344.838 293.624C344.311 294.725 343.52 295.646 342.551 296.284C341.581 296.923 340.472 297.255 339.343 297.245ZM339.344 103.13C325.031 103.147 311.308 109.429 301.187 120.597C291.067 131.764 285.373 146.905 285.357 162.698C285.357 189.2 319.899 262.712 334.75 293.088C335.197 294.003 335.86 294.768 336.668 295.301C337.477 295.834 338.402 296.115 339.344 296.115C340.286 296.115 341.21 295.834 342.019 295.301C342.828 294.768 343.49 294.003 343.937 293.088C358.788 262.713 393.33 189.203 393.33 162.698C393.314 146.905 387.621 131.764 377.5 120.597C367.379 109.429 353.657 103.147 339.344 103.13Z" fill="#3F3D56"/>
<path d="M339.344 190.165C334.42 190.165 329.608 188.554 325.514 185.536C321.42 182.518 318.23 178.228 316.346 173.21C314.462 168.191 313.969 162.668 314.929 157.34C315.889 152.012 318.26 147.118 321.742 143.276C325.223 139.435 329.658 136.819 334.487 135.759C339.316 134.7 344.321 135.243 348.87 137.322C353.418 139.401 357.306 142.922 360.041 147.439C362.776 151.956 364.236 157.266 364.236 162.698C364.229 169.98 361.604 176.962 356.937 182.111C352.271 187.26 345.943 190.157 339.344 190.165ZM339.344 136.361C334.623 136.361 330.008 137.906 326.083 140.8C322.158 143.694 319.098 147.807 317.292 152.619C315.485 157.432 315.012 162.727 315.933 167.836C316.854 172.945 319.127 177.638 322.465 181.321C325.803 185.004 330.057 187.513 334.687 188.529C339.317 189.545 344.116 189.024 348.478 187.031C352.839 185.037 356.567 181.662 359.19 177.33C361.813 172.999 363.212 167.907 363.212 162.698C363.205 155.716 360.688 149.022 356.214 144.084C351.739 139.147 345.672 136.369 339.344 136.361Z" fill="#3F3D56"/>
</g>
<defs>
<filter id="filter0_d_124_601" x="0" y="29" width="474" height="367" filterUnits="userSpaceOnUse" color-interpolation-filters="sRGB">
<feFlood flood-opacity="0" result="BackgroundImageFix"/>
<feColorMatrix in="SourceAlpha" type="matrix" values="0 0 0 0 0 0 0 0 0 0 0 0 0 0 0 0 0 0 127 0" result="hardAlpha"/>
<feOffset dx="2" dy="5"/>
<feGaussianBlur stdDeviation="5"/>
<feComposite in2="hardAlpha" operator="out"/>
<feColorMatrix type="matrix" values="0 0 0 0 0 0 0 0 0 0 0 0 0 0 0 0 0 0 0.25 0"/>
<feBlend mode="normal" in2="BackgroundImageFix" result="effect1_dropShadow_124_601"/>
<feBlend mode="normal" in="SourceGraphic" in2="effect1_dropShadow_124_601" result="shape"/>
</filter>
<clipPath id="clip0_124_601">
<rect width="383" height="211" fill="white" transform="translate(57 102)"/>
</clipPath>
</defs>
</svg>
