<svg width="68" height="110" viewBox="0 0 68 110" fill="none" xmlns="http://www.w3.org/2000/svg">
<path d="M58.75 108.73V87.6201C58.75 83.1114 56.9589 78.7874 53.7708 75.5993C50.5827 72.4112 46.2587 70.6201 41.75 70.6201H25.44C20.9313 70.6201 16.6073 72.4112 13.4192 75.5993C10.2311 78.7874 8.44 83.1114 8.44 87.6201V108.69L58.75 108.73Z" fill="#00ADB5"/>
<path d="M58.74 109.73H8.4C8.13479 109.73 7.88043 109.625 7.69289 109.437C7.50536 109.25 7.4 108.995 7.4 108.73V87.6201C7.41582 82.8511 9.31732 78.2819 12.6896 74.9097C16.0618 71.5374 20.631 69.6359 25.4 69.6201H41.67C46.4398 69.6333 51.0106 71.534 54.3834 74.9068C57.7562 78.2796 59.6568 82.8503 59.67 87.6201V108.69C59.6811 108.95 59.59 109.205 59.4163 109.399C59.2426 109.593 59 109.712 58.74 109.73ZM9.4 107.73H57.74V87.6201C57.7242 83.3815 56.0334 79.321 53.0362 76.3239C50.0391 73.3267 45.9786 71.6359 41.74 71.6201H25.44C21.2014 71.6359 17.1409 73.3267 14.1438 76.3239C11.1466 79.321 9.45581 83.3815 9.44 87.6201L9.4 107.73Z" fill="#093F68"/>
<path d="M33.57 103.16L29.73 72.8601L38.08 73.2401L33.57 103.16Z" fill="white"/>
<path d="M33.57 104.16C33.3243 104.162 33.0866 104.073 32.9021 103.911C32.7177 103.749 32.5995 103.524 32.57 103.28L28.73 72.9902C28.7111 72.8443 28.7246 72.6962 28.7696 72.5561C28.8145 72.4161 28.8898 72.2878 28.99 72.1802C29.0889 72.0733 29.2099 71.9892 29.3446 71.934C29.4793 71.8787 29.6245 71.8535 29.77 71.8602L38.11 72.2402C38.2507 72.2456 38.3887 72.2807 38.5149 72.3431C38.6411 72.4056 38.7527 72.494 38.8424 72.6026C38.9321 72.7111 38.9978 72.8374 39.0353 72.9731C39.0728 73.1089 39.0812 73.251 39.06 73.3902L34.55 103.3C34.5165 103.537 34.3992 103.754 34.2194 103.912C34.0396 104.07 33.8092 104.158 33.57 104.16ZM30.88 73.9102L33.66 95.9102L36.92 74.2302L30.88 73.9102Z" fill="#093F68"/>
<path d="M31.43 1.23999C32.4852 1.07494 33.552 0.994682 34.62 0.999987C39.54 0.999987 44.56 0.869987 49.05 3.06999C53.5935 5.31152 57.4231 8.77403 60.1095 13.0695C62.7959 17.365 64.2331 22.3237 64.26 27.39V47.56H4.26C3.92 46.37 4.45 44.97 4.5 43.79C4.46539 42.4713 4.27063 41.1617 3.92001 39.89C3.21216 36.6013 2.81707 33.2531 2.74001 29.89C2.75539 24.5998 3.85466 19.3689 5.97 14.52C7.17 11.6 8.58 8.57999 11.15 6.75999C13.72 4.93999 17.81 4.87999 19.64 7.44999C22.7725 4.12974 26.9201 1.94517 31.43 1.23999Z" fill="#725858"/>
<path d="M64.26 48.5601H4.26C4.03556 48.5684 3.81485 48.5009 3.63345 48.3684C3.45204 48.236 3.32049 48.0464 3.26 47.8301C3.03427 46.8698 3.03427 45.8703 3.26 44.9101C3.33445 44.527 3.38455 44.1395 3.41 43.7501C3.40893 42.8072 3.28112 41.8688 3.03 40.9601C2.97 40.6701 2.9 40.3801 2.85 40.0901C2.13169 36.7452 1.72992 33.3402 1.65 29.9201C1.65971 24.493 2.78288 19.1257 4.95 14.1501C6.15 11.2301 7.67 7.94007 10.48 5.96007C13.08 4.12007 17.16 3.83007 19.58 5.96007C22.7942 2.90186 26.8725 0.908108 31.26 0.250068C32.3652 0.0808503 33.4819 -0.00273167 34.6 6.80601e-05H35.48C40.18 6.80601e-05 45.04 7.36713e-05 49.48 2.17007C54.1966 4.48899 58.1725 8.07813 60.9603 12.5337C63.7481 16.9892 65.2372 22.1343 65.26 27.3901V47.5601C65.26 47.8253 65.1546 48.0796 64.9671 48.2672C64.7796 48.4547 64.5252 48.5601 64.26 48.5601ZM5.13 46.5601H63.26V27.3901C63.239 22.5098 61.8579 17.732 59.2718 13.5932C56.6857 9.45444 52.9971 6.11851 48.62 3.96007C44.62 1.96007 39.98 1.96007 35.5 1.96007H34.62C33.6152 1.94997 32.6115 2.02693 31.62 2.19007C27.321 2.84841 23.3668 4.92934 20.39 8.10007C20.2889 8.20967 20.1647 8.29529 20.0262 8.35065C19.8878 8.40602 19.7388 8.42974 19.59 8.42007C19.4416 8.41023 19.2973 8.36742 19.1676 8.29477C19.0378 8.22211 18.9259 8.12143 18.84 8.00007C17.35 5.92007 13.84 6.00007 11.74 7.55007C9.36001 9.23007 8.05 12.0901 6.9 14.8701C4.83396 19.6016 3.76181 24.7071 3.75 29.8701C3.83152 33.169 4.21987 36.4531 4.91 39.6801C4.91 39.9601 5.02 40.2301 5.08 40.5101C5.37427 41.5851 5.51896 42.6955 5.51 43.8101C5.48089 44.2868 5.42077 44.7611 5.33 45.2301C5.22775 45.6677 5.15756 46.1122 5.12 46.5601H5.13Z" fill="#093F68"/>
<path d="M29.51 67.3701H38.07V72.3001C38.07 73.2655 37.6865 74.1914 37.0039 74.874C36.3212 75.5566 35.3954 75.9401 34.43 75.9401H33.14C32.1746 75.9401 31.2488 75.5566 30.5661 74.874C29.8835 74.1914 29.5 73.2655 29.5 72.3001V67.3701H29.51Z" fill="#FFC9B0"/>
<path d="M34.44 76.9301H33.15C31.9211 76.9301 30.7424 76.4426 29.8726 75.5746C29.0027 74.7066 28.5127 73.529 28.51 72.3001V67.3701C28.51 67.1049 28.6154 66.8505 28.8029 66.663C28.9904 66.4755 29.2448 66.3701 29.51 66.3701H38.08C38.3452 66.3701 38.5996 66.4755 38.7871 66.663C38.9746 66.8505 39.08 67.1049 39.08 67.3701V72.3001C39.0774 73.529 38.5873 74.7066 37.7174 75.5746C36.8476 76.4426 35.6689 76.9301 34.44 76.9301ZM30.51 68.3701V72.3001C30.5126 72.9985 30.792 73.6675 31.2868 74.1604C31.7816 74.6534 32.4516 74.9301 33.15 74.9301H34.44C35.1384 74.9301 35.8084 74.6534 36.3032 74.1604C36.798 73.6675 37.0774 72.9985 37.08 72.3001V68.3701H30.51Z" fill="#093F68"/>
<path d="M9.32 52.2902C13.915 52.2902 17.64 49.0801 17.64 45.1202C17.64 41.1603 13.915 37.9502 9.32 37.9502C4.72499 37.9502 1 41.1603 1 45.1202C1 49.0801 4.72499 52.2902 9.32 52.2902Z" fill="#FFC9B0"/>
<path d="M9.32 53.2902C4.18 53.2902 0 49.6302 0 45.1202C0 40.6102 4.18 36.9502 9.32 36.9502C14.46 36.9502 18.64 40.6202 18.64 45.1202C18.64 49.6202 14.46 53.2902 9.32 53.2902ZM9.32 38.9502C5.32 38.9502 2 41.7202 2 45.1202C2 48.5202 5.28 51.2902 9.32 51.2902C13.36 51.2902 16.64 48.5202 16.64 45.1202C16.64 41.7202 13.36 38.9502 9.32 38.9502Z" fill="#093F68"/>
<path d="M57.83 52.2902C62.425 52.2902 66.15 49.0801 66.15 45.1202C66.15 41.1603 62.425 37.9502 57.83 37.9502C53.235 37.9502 49.51 41.1603 49.51 45.1202C49.51 49.0801 53.235 52.2902 57.83 52.2902Z" fill="#FFC9B0"/>
<path d="M57.83 53.2902C52.69 53.2902 48.51 49.6302 48.51 45.1202C48.51 40.6102 52.69 36.9502 57.83 36.9502C62.97 36.9502 67.15 40.6202 67.15 45.1202C67.15 49.6202 62.97 53.2902 57.83 53.2902ZM57.83 38.9502C53.83 38.9502 50.51 41.7202 50.51 45.1202C50.51 48.5202 53.79 51.2902 57.83 51.2902C61.87 51.2902 65.15 48.5202 65.15 45.1202C65.15 41.7202 61.86 38.9502 57.83 38.9502Z" fill="#093F68"/>
<path d="M33.8 68.4901C30.5043 68.4914 27.2406 67.8434 24.1954 66.5831C21.1502 65.3228 18.3831 63.4749 16.0522 61.1449C13.7213 58.815 11.8723 56.0486 10.6108 53.0039C9.34931 49.9592 8.7 46.6958 8.7 43.4001V29.8901C8.7 29.8901 15.02 26.2801 16.89 20.6001C16.89 20.6001 26.54 31.6001 35.89 30.8301C43.6092 30.1727 51.2871 29.0978 58.89 27.6101V43.4001C58.89 46.695 58.241 49.9576 56.9801 53.0016C55.7193 56.0457 53.8711 58.8116 51.5413 61.1414C49.2115 63.4712 46.4456 65.3193 43.4015 66.5802C40.3575 67.8411 37.0949 68.4901 33.8 68.4901Z" fill="#FFC9B0"/>
<path d="M33.8 69.4902C26.882 69.4823 20.2495 66.7313 15.3568 61.8405C10.4641 56.9496 7.71059 50.3182 7.7 43.4002V29.8902C7.69931 29.714 7.74517 29.5407 7.83298 29.3879C7.92078 29.2352 8.0474 29.1083 8.2 29.0202C8.26 29.0202 14.2 25.5302 15.95 20.2902C16.0047 20.1222 16.1029 19.9717 16.2346 19.8541C16.3664 19.7364 16.527 19.6557 16.7 19.6202C16.88 19.5756 17.0688 19.5819 17.2454 19.6384C17.422 19.6949 17.5794 19.7994 17.7 19.9402C17.79 20.0502 27.12 30.5302 35.81 29.8302C43.5044 29.1688 51.1585 28.1006 58.74 26.6302C58.8853 26.6016 59.0351 26.6056 59.1786 26.6419C59.3221 26.6782 59.4558 26.7459 59.57 26.8402C59.6847 26.9332 59.7774 27.0506 59.8414 27.1837C59.9053 27.3168 59.939 27.4625 59.94 27.6102V43.4002C59.9294 50.3251 57.1704 56.9626 52.269 61.8546C47.3677 66.7465 40.7249 69.4928 33.8 69.4902ZM9.7 30.4902V43.4402C9.82847 49.7456 12.4235 55.7494 16.9282 60.1633C21.4329 64.5771 27.4883 67.0493 33.795 67.0493C40.1017 67.0493 46.1571 64.5771 50.6618 60.1633C55.1665 55.7494 57.7615 49.7456 57.89 43.4402V28.8202C50.6126 30.1943 43.2697 31.1956 35.89 31.8202C27.98 32.4502 20.06 25.3002 17.22 22.4202C15.2 26.6702 11.13 29.5402 9.7 30.4502V30.4902Z" fill="#093F68"/>
<path d="M33.68 48.55C32.903 48.546 32.1274 48.4825 31.36 48.36C31.1008 48.3136 30.8703 48.1668 30.7186 47.9515C30.567 47.7362 30.5064 47.4697 30.55 47.21C30.5718 47.0797 30.6191 46.955 30.6893 46.8432C30.7596 46.7313 30.8513 46.6345 30.9591 46.5582C31.067 46.482 31.1888 46.4279 31.3177 46.399C31.4466 46.3701 31.5799 46.3671 31.71 46.39C32.7436 46.5722 33.7985 46.5992 34.84 46.47C34.4679 44.6699 33.8167 42.939 32.91 41.34C32.794 41.106 32.7741 40.8359 32.8546 40.5875C32.9351 40.3391 33.1096 40.132 33.3408 40.0105C33.572 39.889 33.8415 39.8628 34.0918 39.9375C34.342 40.0121 34.5531 40.1817 34.68 40.41C35.68 42.41 37.35 45.95 36.68 47.48C36.5898 47.6911 36.453 47.8791 36.2798 48.0297C36.1066 48.1804 35.9016 48.2899 35.68 48.35C35.0236 48.4955 34.3522 48.5627 33.68 48.55Z" fill="#093F68"/>
<path d="M19.37 109.13C19.1048 109.13 18.8504 109.025 18.6629 108.837C18.4754 108.65 18.37 108.395 18.37 108.13V89.1301C18.37 88.8649 18.4754 88.6106 18.6629 88.423C18.8504 88.2355 19.1048 88.1301 19.37 88.1301C19.6352 88.1301 19.8896 88.2355 20.0771 88.423C20.2646 88.6106 20.37 88.8649 20.37 89.1301V108.13C20.37 108.395 20.2646 108.65 20.0771 108.837C19.8896 109.025 19.6352 109.13 19.37 109.13Z" fill="#093F68"/>
<path d="M47.78 109.13C47.5148 109.13 47.2604 109.025 47.0729 108.837C46.8854 108.65 46.78 108.395 46.78 108.13V89.1301C46.78 88.8649 46.8854 88.6106 47.0729 88.423C47.2604 88.2355 47.5148 88.1301 47.78 88.1301C48.0452 88.1301 48.2996 88.2355 48.4871 88.423C48.6747 88.6106 48.78 88.8649 48.78 89.1301V108.13C48.78 108.395 48.6747 108.65 48.4871 108.837C48.2996 109.025 48.0452 109.13 47.78 109.13Z" fill="#093F68"/>
<path d="M33.58 104.16C33.4162 104.16 33.2548 104.12 33.1101 104.043C32.9654 103.967 32.8417 103.856 32.75 103.72L22.26 88.62C22.1327 88.4366 22.0704 88.2158 22.0831 87.9929C22.0958 87.77 22.1827 87.5578 22.33 87.39L26.56 82.62L21.99 80.56C21.8583 80.5009 21.7409 80.414 21.646 80.3052C21.551 80.1965 21.4808 80.0685 21.44 79.93C21.3987 79.7912 21.3881 79.6451 21.4088 79.5018C21.4295 79.3585 21.4811 79.2214 21.56 79.1L27.37 70.1C27.4373 69.982 27.5279 69.879 27.6363 69.7972C27.7446 69.7155 27.8685 69.6566 28.0004 69.6242C28.1323 69.5919 28.2693 69.5868 28.4033 69.6091C28.5372 69.6315 28.6652 69.6809 28.7794 69.7543C28.8936 69.8277 28.9916 69.9236 29.0676 70.0362C29.1435 70.1487 29.1958 70.2756 29.2211 70.409C29.2464 70.5424 29.2443 70.6795 29.2149 70.8121C29.1855 70.9446 29.1294 71.0698 29.05 71.18L23.87 79.18L28.62 81.32C28.7632 81.3838 28.8895 81.4804 28.9885 81.602C29.0875 81.7236 29.1565 81.8668 29.19 82.02C29.2223 82.1729 29.2183 82.3312 29.1784 82.4823C29.1385 82.6334 29.0636 82.773 28.96 82.89L24.39 88.08L34.39 102.59C34.5398 102.809 34.5966 103.078 34.5478 103.339C34.4991 103.599 34.3488 103.83 34.13 103.98C33.9684 104.093 33.7771 104.155 33.58 104.16Z" fill="#093F68"/>
<path d="M33.5 104.16C33.2961 104.16 33.0972 104.097 32.93 103.98C32.7128 103.829 32.5645 103.597 32.5177 103.337C32.4708 103.076 32.5292 102.808 32.68 102.59L42.68 88.0801L38.11 82.8901C38.0064 82.7731 37.9316 82.6335 37.8916 82.4824C37.8517 82.3313 37.8477 82.173 37.88 82.0201C37.9135 81.8669 37.9825 81.7237 38.0815 81.6021C38.1805 81.4805 38.3068 81.3839 38.45 81.3201L43.2 79.1801L38.02 71.1801C37.8762 70.9584 37.826 70.6888 37.8804 70.4303C37.9347 70.1717 38.0892 69.9451 38.31 69.8001C38.4208 69.7278 38.5447 69.6782 38.6748 69.6541C38.8048 69.6301 38.9383 69.6321 39.0676 69.66C39.1969 69.6879 39.3193 69.7411 39.4279 69.8167C39.5364 69.8922 39.6289 69.9885 39.7 70.1001L45.51 79.1001C45.5889 79.2215 45.6405 79.3586 45.6612 79.5019C45.6819 79.6452 45.6713 79.7913 45.63 79.9301C45.5892 80.0686 45.519 80.1966 45.424 80.3053C45.3291 80.4141 45.2117 80.501 45.08 80.5601L40.51 82.6201L44.7 87.3801C44.8488 87.5467 44.9376 87.7584 44.9521 87.9813C44.9666 88.2042 44.906 88.4256 44.78 88.6101L34.32 103.72C34.2292 103.854 34.1072 103.965 33.9643 104.041C33.8215 104.118 33.6621 104.159 33.5 104.16Z" fill="#093F68"/>
</svg>
