<svg width="559" height="550" viewBox="0 0 559 550" fill="none" xmlns="http://www.w3.org/2000/svg">
<rect x="98" y="123" width="435.586" height="333.185" rx="20" fill="#00ADB5" fill-opacity="0.1"/>
<rect x="99" y="124" width="433.586" height="331.185" rx="19" stroke="black" stroke-opacity="0.5" stroke-width="2"/>
<g filter="url(#filter0_d_82_463)">
<rect x="69.5453" y="93.8151" width="435.586" height="333.185" rx="20" fill="white" fill-opacity="0.5" shape-rendering="crispEdges"/>
</g>
<g clip-path="url(#clip0_82_463)">
<rect x="118.497" y="136.296" width="344.32" height="127.443" rx="10" fill="white"/>
<path d="M456.196 265.408H125.859C121.431 265.408 117.828 261.798 117.828 257.359V144.344C117.828 139.906 121.431 136.296 125.859 136.296H456.196C460.624 136.296 464.226 139.906 464.226 144.344V257.359C464.226 261.798 460.624 265.408 456.196 265.408ZM125.859 137.256C121.959 137.256 118.786 140.436 118.786 144.344V257.359C118.786 261.268 121.959 264.448 125.859 264.448H456.196C460.096 264.448 463.269 261.268 463.269 257.359V144.344C463.269 140.436 460.096 137.256 456.196 137.256H125.859Z" fill="#3F3D56"/>
<path d="M487.708 400.42H80.3312V401.227H487.708V400.42Z" fill="#E6E6E6"/>
<path d="M487.708 359.162H80.3312V359.97H487.708V359.162Z" fill="#E6E6E6"/>
<path d="M265.984 269.564C266.277 273.248 268.411 276.084 270.75 275.897C273.09 275.71 274.749 272.572 274.455 268.886C274.359 267.412 273.911 265.983 273.15 264.718L271.714 249.123L264.426 249.954L266.615 265.24C266.063 266.61 265.847 268.093 265.984 269.564Z" fill="#FFB6B6"/>
<path d="M257.278 196.807C257.278 196.807 264.091 193.193 267.545 198.594C271 203.995 273.384 262.409 273.384 262.409L263.809 263.434L261.994 222.271L257.278 196.807Z" fill="#E6E6E6"/>
<path d="M243.138 356.115L248.685 356.114L251.324 334.672L243.137 334.673L243.138 356.115Z" fill="#FFB6B6"/>
<path d="M262.142 355.988C262.315 356.28 262.406 357.221 262.406 357.56C262.406 358.602 261.563 359.447 260.523 359.447H243.346C242.637 359.447 242.062 358.87 242.062 358.159V357.443C242.062 357.443 241.212 355.289 242.961 352.633C242.961 352.633 245.136 354.712 248.385 351.456L249.343 349.717L256.278 354.8L260.123 355.274C260.964 355.378 261.709 355.258 262.142 355.988Z" fill="#2F2E41"/>
<path d="M275.236 355.194L280.61 353.818L277.872 332.389L269.94 334.42L275.236 355.194Z" fill="#FFB6B6"/>
<path d="M293.618 350.358C293.857 350.598 294.178 351.487 294.261 351.815C294.519 352.825 293.911 353.852 292.903 354.11L276.26 358.371C275.573 358.547 274.874 358.131 274.698 357.443L274.521 356.748C274.521 356.748 273.166 354.872 274.205 351.865C274.205 351.865 276.825 353.34 279.169 349.379L279.668 347.456L287.643 350.661L291.485 350.167C292.325 350.059 293.018 349.758 293.618 350.358Z" fill="#2F2E41"/>
<path d="M238.549 192.198L238.286 190.285L241.412 182.634L250.001 181.678L251.855 192.631L238.549 192.198Z" fill="#FFB6B6"/>
<path opacity="0.1" d="M238.549 192.198L238.286 190.285L241.412 182.634L250.001 181.678L251.855 192.631L238.549 192.198Z" fill="black"/>
<path d="M228.53 246.232L224.713 256.752L227.576 262.49L241.889 345.693H251.406L249.523 272.054L271.471 345.693H280.89L273.316 295.963L267.654 250.057L264.22 247.931L247.615 238.581L228.53 246.232Z" fill="#2F2E41"/>
<path d="M252.863 253.405L247.138 254.361L239.504 236.19H256.68L252.863 253.405Z" fill="#E6E6E6"/>
<path d="M264.314 248.623L252.863 253.405L249.046 244.798L247.138 254.361L227.098 247.896L229.961 236.19L227.098 197.936L237.204 191.184L238.55 190.285L250.955 191.242L252.043 191.834L259.543 196.023L261.452 227.583L264.314 248.623Z" fill="#2F2E41"/>
<path d="M252.043 191.834L246.661 214.672L237.204 191.184L238.55 190.285L250.955 191.242L252.043 191.834Z" fill="#E6E6E6"/>
<path d="M242.844 190.285L240.935 193.579L242.844 194.677L241.889 214.732L245.706 219.932L249.523 212.246L246.661 194.677L247.615 190.285H242.844Z" fill="#2F2E41"/>
<path d="M245.706 188.372C250.713 188.372 254.772 184.305 254.772 179.287C254.772 174.269 250.713 170.202 245.706 170.202C240.7 170.202 236.641 174.269 236.641 179.287C236.641 184.305 240.7 188.372 245.706 188.372Z" fill="#FFB6B6"/>
<path d="M239.913 180.084L241.872 180.941L242.727 175.8C242.727 175.8 246.146 174.087 248.711 174.944C251.275 175.8 255.549 174.944 255.549 174.944C255.549 174.944 255.549 166.376 249.565 166.376C243.581 166.376 237.597 167.233 237.597 169.803C237.597 172.373 235.033 174.944 235.033 174.944C235.033 174.944 231.613 180.084 235.033 183.511C238.452 186.938 240.162 186.938 240.162 186.938L239.913 180.084Z" fill="#2F2E41"/>
<path d="M222.323 269.295C222.223 272.99 224.045 276.036 226.391 276.099C228.737 276.162 230.719 273.218 230.818 269.522C230.878 268.046 230.584 266.578 229.961 265.239L230.185 249.579L222.85 249.631L223.408 265.063C222.714 266.367 222.342 267.818 222.323 269.295Z" fill="#FFB6B6"/>
<path d="M231.397 196.005C231.397 196.005 225.195 194.093 222.332 199.831C219.469 205.569 223.286 263.907 223.286 263.907H232.915L230.359 222.783L231.397 196.005Z" fill="#E6E6E6"/>
<path d="M469.337 304.688L446.207 297.592C445.695 297.435 445.158 297.378 444.625 297.423L327.394 307.422C325.723 307.565 325.303 309.824 326.811 310.561L330.566 312.394H330.466V400.163H334.004V314.073L345.773 319.819C346.674 320.259 347.678 320.438 348.675 320.337L349.927 320.21V400.163H353.466V319.852L444.138 310.673V400.163H447.676V310.315L462.715 308.793V400.163H466.253V308.434L468.997 308.157C470.923 307.962 471.188 305.256 469.337 304.688Z" fill="#3F3D56"/>
<path d="M361.427 307.075C363.639 307.075 396.369 303.085 396.369 303.085L401.234 309.734L367.177 316.383L361.427 307.075Z" fill="white"/>
<path d="M397.349 396.754L391.663 396.744L388.995 374.757L397.388 374.772L397.349 396.754Z" fill="#A0616A"/>
<path d="M377.867 396.592C377.689 396.89 377.594 397.854 377.594 398.202C377.592 399.27 378.454 400.138 379.52 400.14L397.131 400.17C397.858 400.171 398.448 399.581 398.449 398.853L398.451 398.118C398.451 398.118 399.326 395.911 397.537 393.186C397.537 393.186 395.304 395.313 391.979 391.969L391 390.184L383.88 395.384L379.938 395.863C379.076 395.968 378.312 395.844 377.867 396.592Z" fill="#2F2E41"/>
<path d="M427.869 386.53L423.382 389.921L408.194 374.192L414.816 369.187L427.869 386.53Z" fill="#A0616A"/>
<path d="M412.422 398.049C412.459 398.39 412.959 399.207 413.165 399.481C413.799 400.324 414.995 400.492 415.836 399.856L429.73 389.352C430.304 388.918 430.418 388.1 429.985 387.526L429.549 386.946C429.549 386.946 428.924 384.684 425.893 383.606C425.893 383.606 425.4 386.617 420.79 385.97L418.956 385.149L416.441 393.502L413.62 396.236C413.003 396.835 412.327 397.194 412.422 398.049Z" fill="#2F2E41"/>
<path d="M415.985 272.897C415.985 278.152 411.734 282.413 406.49 282.413C401.246 282.413 396.995 278.152 396.995 272.897C396.995 267.641 401.246 263.381 406.49 263.381C411.734 263.381 415.985 267.641 415.985 272.897Z" fill="#A0616A"/>
<path d="M415.09 327.763C415.09 327.763 380.131 325.78 378.152 329.746C376.173 333.713 388.85 388.195 388.85 388.195L400.159 385.819L394.642 347.595C394.642 347.595 423.815 355.338 427.773 346.083C431.73 336.828 430.591 333.382 430.591 333.382L415.09 327.763Z" fill="#2F2E41"/>
<path d="M424.047 321.105C424.047 321.105 389.81 328.461 388.948 332.811C388.087 337.16 414.693 386.341 414.693 386.341L424.972 381.051L409.562 345.652C409.562 345.652 439.739 345.385 441.113 335.41C442.487 325.436 440.479 322.415 440.479 322.415L424.047 321.105Z" fill="#2F2E41"/>
<path d="M427.952 283.803H411.504L400.249 302.312C400.249 302.312 397.61 314.274 400.249 315.565C402.887 316.856 402.887 330.738 402.887 330.738L430.591 333.382C430.591 333.382 434.549 291.735 433.229 287.769C431.91 283.803 427.952 283.803 427.952 283.803Z" fill="#00ADB5"/>
<path d="M401.898 296.032L400.249 315.565L381.701 307.676L377.274 305.444C376.407 304.311 375.282 303.403 373.993 302.795C370.787 301.229 367.384 301.617 366.39 303.661C365.395 305.705 367.188 308.631 370.393 310.196C371.665 310.839 373.073 311.167 374.498 311.153L387.45 318.526L387.466 318.497L387.523 318.6L407.834 327.102L412.508 301.46L401.898 296.032Z" fill="#A0616A"/>
<path d="M399.919 274.217C399.919 274.217 390.025 275.539 393.983 266.946C393.983 266.946 393.379 262.287 396.319 261.972C399.26 261.657 403.217 256.369 403.217 256.369C403.217 256.369 412.291 251.741 416.988 256.369C421.686 260.996 435.538 288.099 435.538 288.099L426.303 298.015C426.303 298.015 420.752 283.389 414.293 285.083C407.834 286.777 401.898 291.829 401.898 291.829C401.898 291.829 395.343 288.542 398.291 285.676C401.238 282.811 399.919 274.217 399.919 274.217Z" fill="#2F2E41"/>
<path d="M413.111 288.761C413.111 288.761 408.494 282.811 405.196 287.438C401.898 292.066 399.26 298.015 399.26 298.015L412.452 302.643L413.111 288.761Z" fill="#00ADB5"/>
<path d="M463.2 398.847L447.873 350.024L447.875 350.024H447.911L447.849 349.944L447.847 349.942L446.756 346.465L446.756 346.464C448.419 345.028 449.552 342.976 449.777 340.613L442.771 301.995C443.253 296.924 439.374 292.491 434.292 292.309L418.484 292.269C413.99 292.11 410.098 295.363 409.444 299.823L409.094 302.19L404.251 335.209C404.074 336.397 404.145 337.568 404.423 338.663L400.938 339.119L399.881 339.261L395.701 339.806L395.688 339.811L395.166 339.877H394.6V354.062H394.635V399.401C394.635 399.693 394.874 399.932 395.166 399.932C395.462 399.932 395.701 399.693 395.701 399.401V354.062H401.902L408.09 399.347C408.13 399.613 408.355 399.808 408.621 399.808C408.643 399.808 408.669 399.808 408.692 399.804C408.984 399.764 409.187 399.494 409.147 399.201L402.981 354.062H432.735C435.689 354.062 438.427 353.123 440.656 351.514L452.453 399.264C452.515 399.506 452.731 399.666 452.969 399.666C453.013 399.666 453.057 399.661 453.101 399.65C453.386 399.577 453.558 399.287 453.486 399.001L441.575 350.789C441.733 350.656 441.892 350.515 442.041 350.37L446.777 350.09L462.184 399.168C462.255 399.396 462.465 399.542 462.692 399.542C462.745 399.542 462.798 399.534 462.852 399.517C463.132 399.428 463.288 399.128 463.2 398.847ZM445.743 347.222C445.783 347.2 445.819 347.174 445.854 347.151L445.968 347.514L445.743 347.222Z" fill="#CCCCCC"/>
<path d="M162.457 316.09L172.772 309.516L176.966 312.051L162.457 328.759V316.09Z" fill="#FFB6B6"/>
<path d="M148.351 290.644C148.351 290.644 141.5 292.259 144.724 301.549C147.948 310.839 158.427 330.227 161.651 329.015C164.875 327.804 165.278 315.686 165.278 315.686C165.278 315.686 164.875 316.09 163.263 314.475C161.651 312.859 161.651 313.597 161.651 311.814C161.651 310.031 160.332 308.71 160.332 308.71L158.83 305.588C158.83 305.588 158.83 291.048 152.784 290.24C146.739 289.432 148.351 290.644 148.351 290.644Z" fill="#E6E6E6"/>
<path d="M180.361 311.617C183.037 308.935 183.866 305.419 182.213 303.762C180.561 302.106 177.052 302.937 174.376 305.619C171.701 308.3 170.871 311.817 172.524 313.473C174.177 315.129 177.685 314.298 180.361 311.617Z" fill="#FFB6B6"/>
<path d="M121.665 344.162L128.703 355.838L169.721 353.406L158.799 339.297L121.665 344.162Z" fill="#CCCCCC"/>
<path d="M133.921 398.771C133.682 398.771 133.474 398.594 133.441 398.35L121.184 308.636C121.147 308.369 121.333 308.124 121.599 308.088C121.864 308.049 122.109 308.237 122.146 308.504L134.402 398.218C134.439 398.485 134.253 398.73 133.987 398.766C133.965 398.769 133.943 398.771 133.921 398.771Z" fill="#CCCCCC"/>
<path d="M121.665 398.885C121.397 398.885 121.179 398.667 121.179 398.398V308.587C121.179 308.318 121.397 308.101 121.665 308.101C121.933 308.101 122.15 308.318 122.15 308.587V398.398C122.15 398.667 121.933 398.885 121.665 398.885Z" fill="#CCCCCC"/>
<path d="M183.192 398.528C182.985 398.528 182.794 398.395 182.729 398.187L153.725 305.797C153.644 305.541 153.787 305.267 154.042 305.187C154.298 305.106 154.571 305.249 154.651 305.505L183.655 397.895C183.735 398.151 183.593 398.424 183.337 398.505C183.289 398.52 183.24 398.528 183.192 398.528Z" fill="#CCCCCC"/>
<path d="M174.333 398.642C174.116 398.642 173.918 398.495 173.862 398.275L153.717 316.734C153.651 316.474 153.808 316.209 154.068 316.143C154.329 316.077 154.592 316.234 154.658 316.494L174.803 398.035C174.869 398.295 174.712 398.56 174.453 398.627C174.412 398.637 174.372 398.642 174.333 398.642Z" fill="#CCCCCC"/>
<path d="M121.665 310.018L155.28 309.5L161.469 344.892H122.15L121.665 310.018Z" fill="#CCCCCC"/>
<path d="M173.323 362.06L164.852 377.007L174.688 379.178L178.789 368.546L173.323 362.06Z" fill="#FFB6B6"/>
<path d="M167.894 374.185C167.894 374.185 167.565 371.748 165.63 372.521C163.695 373.295 158.109 376.17 158.109 376.17C158.109 376.17 172.677 399.893 175.442 398.788C178.207 397.683 174.897 390.977 174.897 390.977L175.628 379.123L167.894 374.185Z" fill="#2F2E41"/>
<path d="M135.857 333.054C135.857 333.054 132.835 346.989 142.104 351.836C151.374 356.683 183.011 344.768 183.011 344.768L168.502 366.555L178.578 370.618C178.578 370.618 201.55 340.325 199.938 335.478C198.326 330.631 187.444 330.227 187.444 330.227L162.86 331.439L156.411 329.419L135.857 333.054Z" fill="#2F2E41"/>
<path d="M160.79 368.694L147.472 379.527L155.846 385.136L163.526 376.729L160.79 368.694Z" fill="#FFB6B6"/>
<path d="M151.331 378.009C151.331 378.009 151.909 375.618 149.826 375.633C147.742 375.647 141.496 376.288 141.496 376.288C141.496 376.288 146.452 403.698 149.428 403.677C152.405 403.656 151.757 396.203 151.757 396.203L156.741 385.428L151.331 378.009Z" fill="#2F2E41"/>
<path d="M136.424 328.014C136.424 328.014 128.549 339.891 135.423 347.786C142.297 355.681 176.092 356.12 176.092 356.12L154.667 371.123L162.577 378.582C162.577 378.582 194.973 358.743 195.232 353.64C195.49 348.538 185.501 344.193 185.501 344.193L162.162 336.356L156.889 332.124L136.424 328.014Z" fill="#2F2E41"/>
<path d="M156.654 300.503C156.654 300.503 148.997 297.676 145.37 297.676C145.023 297.676 144.68 297.716 144.338 297.789C142.016 298.282 139.88 300.281 138.857 301.372C138.458 301.8 138.228 302.087 138.228 302.087C138.228 302.087 138.252 301.808 138.301 301.319C138.538 298.75 139.417 290.321 140.993 284.924C141.557 282.998 142.206 281.459 142.951 280.712C144.688 278.967 145.49 276.874 145.861 275.315C146.176 273.978 146.176 273.037 146.176 273.037L143.238 271.769L142.693 268.207C142.597 268.627 142.149 269.447 140.646 271.018C140.517 271.151 140.376 271.264 140.227 271.361C138.059 272.726 133.638 270.351 131.256 268.857C132.247 265.403 134.045 262.245 137.309 261.728C144.967 260.516 144.967 256.073 149.803 260.92C150.202 261.32 150.605 261.704 151.008 262.075C152.555 265.04 153.12 269.014 153.321 271.777C153.466 273.712 153.43 275.057 153.43 275.057C153.43 275.057 155.445 287.174 158.669 289.598C161.894 292.021 156.654 300.503 156.654 300.503Z" fill="#2F2E41"/>
<path d="M141.742 281.116L136.297 289.121L148.594 292.425V281.116H141.742Z" fill="#FFB6B6"/>
<path opacity="0.1" d="M141.742 281.116L136.297 289.121L148.594 292.425V281.116H141.742Z" fill="black"/>
<path d="M149.359 288.826L137.671 283.979C137.671 283.979 121.953 290.846 123.162 304.175C124.371 317.504 135.656 340.527 135.656 340.527L158.225 330.833L155.807 304.983L149.359 288.826Z" fill="#E6E6E6"/>
<path d="M144.347 284.69C150.042 284.69 154.659 280.063 154.659 274.355C154.659 268.648 150.042 264.021 144.347 264.021C138.653 264.021 134.036 268.648 134.036 274.355C134.036 280.063 138.653 284.69 144.347 284.69Z" fill="#FFB6B6"/>
<path d="M158.266 270.614C156.251 272.633 154.639 274.653 154.639 274.653L153.833 271.422C153.833 271.422 153.648 271.559 153.321 271.777C152.044 272.65 148.614 274.843 145.861 275.315C144.636 275.525 143.548 275.392 142.839 274.653C141.335 273.082 140.888 272.262 140.791 271.842L140.247 275.404L137.309 276.672C137.309 276.672 137.309 281.107 140.533 284.347C140.69 284.504 140.844 284.698 140.993 284.924C142.532 287.251 143.637 292.946 144.338 297.789C144.958 302.095 145.257 305.722 145.257 305.722C145.257 305.722 142.206 301.893 138.857 301.372C138.671 301.343 138.486 301.323 138.301 301.319C138.24 301.311 138.176 301.311 138.115 301.311C134.488 301.311 126.83 304.138 126.83 304.138C126.83 304.138 121.591 295.656 124.815 293.233C128.04 290.809 130.055 278.692 130.055 278.692C130.055 278.692 129.922 273.506 131.256 268.857C132.247 265.403 134.045 262.245 137.309 261.728C144.967 260.516 144.967 256.073 149.803 260.92C150.202 261.32 150.605 261.704 151.008 262.075C155.514 266.227 160.116 268.76 158.266 270.614Z" fill="#2F2E41"/>
<path d="M113.042 324.833H109.212V400.632H113.042V324.833Z" fill="#3F3D56"/>
<path d="M205.906 324.833H202.077V400.632H205.906V324.833Z" fill="#3F3D56"/>
<path d="M181.493 292.691H156.123V318.117H181.493V292.691Z" fill="#00ADB5"/>
<path d="M141.5 319.725L151.815 313.151L156.008 315.686L141.5 332.395V319.725Z" fill="#FFB6B6"/>
<path d="M127.394 294.279C127.394 294.279 120.542 295.895 123.767 305.185C126.991 314.475 137.469 333.862 140.694 332.651C143.918 331.439 144.321 319.321 144.321 319.321C144.321 319.321 143.918 319.725 142.306 318.11C140.694 316.494 140.694 317.232 140.694 315.449C140.694 313.667 139.375 312.345 139.375 312.345L137.872 309.224C137.872 309.224 137.872 294.683 131.827 293.875C125.782 293.067 127.394 294.279 127.394 294.279Z" fill="#E6E6E6"/>
<path d="M159.404 315.252C162.079 312.57 162.909 309.054 161.256 307.398C159.604 305.741 156.095 306.573 153.419 309.254C150.744 311.936 149.914 315.452 151.567 317.108C153.219 318.765 156.728 317.933 159.404 315.252Z" fill="#FFB6B6"/>
<path d="M213.565 321.955H97.7237V330.59H213.565V321.955Z" fill="#3F3D56"/>
<path d="M331.259 252.873H314.151C312.795 252.873 311.696 253.975 311.696 255.334V262.405C311.696 263.764 312.795 264.866 314.151 264.866H331.259C332.616 264.866 333.715 263.764 333.715 262.405V255.334C333.715 253.975 332.616 252.873 331.259 252.873Z" fill="#3F3D56"/>
<path d="M367.161 259.944H350.052C348.696 259.944 347.597 261.046 347.597 262.405V262.405C347.597 263.764 348.696 264.866 350.052 264.866H367.161C368.517 264.866 369.616 263.764 369.616 262.405V262.405C369.616 261.046 368.517 259.944 367.161 259.944Z" fill="#00ADB5"/>
</g>
<path d="M528.814 351.537C530.737 348.194 535.56 348.194 537.483 351.537L553.988 380.238C555.905 383.571 553.499 387.731 549.654 387.731H516.643C512.798 387.731 510.392 383.571 512.309 380.238L528.814 351.537Z" fill="#B50800"/>
<circle cx="528" cy="85" r="5" fill="white"/>
<circle cx="517" cy="100" r="6" fill="white"/>
<path d="M59 252.078C53.4772 252.078 49 247.601 49 242.078V204C49 198.477 53.4772 194 59 194H80.6481C86.1709 194 90.6481 198.477 90.6481 204V242.078C90.6481 247.601 86.171 252.078 80.6481 252.078H59Z" fill="#FF3E36"/>
<g filter="url(#filter1_d_82_463)">
<path d="M445.374 79.7034L404.378 71.0991L412.021 26.7935L461.263 37.1295L455.167 72.4669L445.374 79.7034Z" fill="#00ADB5"/>
<path d="M445.374 80.1217H445.306L404.31 71.509C404.261 71.499 404.214 71.4783 404.172 71.4483C404.13 71.4182 404.094 71.3793 404.066 71.3338C404.038 71.2884 404.018 71.2372 404.008 71.1833C403.998 71.1294 403.997 71.0737 404.007 71.0196L411.646 26.714C411.655 26.6598 411.674 26.6082 411.701 26.562C411.729 26.5159 411.764 26.4761 411.805 26.445C411.846 26.4139 411.893 26.3921 411.941 26.3808C411.99 26.3696 412.041 26.3691 412.09 26.3794L461.335 36.7196C461.433 36.7409 461.519 36.8037 461.575 36.8945C461.631 36.9853 461.653 37.0967 461.635 37.2048L455.542 72.5464C455.533 72.6014 455.514 72.6539 455.486 72.7006C455.458 72.7473 455.421 72.7873 455.379 72.8183L445.586 80.0506C445.523 80.0971 445.45 80.1219 445.374 80.1217ZM404.807 70.7645L445.279 79.26L454.811 72.2201L460.805 37.46L412.321 27.2829L404.807 70.7645Z" fill="#093F68"/>
<path d="M458.731 76.813L417.083 79.7034L414.512 34.6909L464.543 31.2148L466.59 67.117L458.731 76.813Z" fill="white"/>
<path d="M417.083 80.1217C416.987 80.1219 416.894 80.0819 416.824 80.0097C416.753 79.9375 416.711 79.8384 416.704 79.7327L414.148 34.7201C414.145 34.6651 414.151 34.6098 414.166 34.5574C414.182 34.505 414.207 34.4565 414.239 34.4148C414.272 34.3732 414.312 34.3392 414.357 34.3148C414.402 34.2904 414.451 34.276 414.501 34.2726L464.547 30.7965C464.648 30.7918 464.746 30.8291 464.823 30.9011C464.898 30.9752 464.943 31.079 464.948 31.1897L467 67.0918C467.004 67.2032 466.97 67.3122 466.905 67.3972L459.045 77.0891C458.979 77.1705 458.887 77.2201 458.788 77.2271L417.106 80.1217H417.083ZM414.907 35.084L417.428 79.26L458.541 76.4031L466.203 66.9705L464.194 31.6582L414.907 35.084Z" fill="#093F68"/>
<path d="M458.731 76.813L458.371 67.6901L466.59 67.117L458.731 76.813Z" fill="#00ADB5"/>
<path d="M458.731 77.2313C458.688 77.2308 458.646 77.2223 458.606 77.2062C458.534 77.1787 458.472 77.1281 458.426 77.061C458.381 76.9939 458.355 76.9133 458.352 76.8298L457.991 67.7068C457.991 67.6007 458.027 67.4986 458.093 67.4209C458.158 67.3432 458.248 67.2959 458.344 67.2885L466.567 66.7196C466.645 66.7111 466.723 66.729 466.79 66.7709C466.858 66.8128 466.913 66.8766 466.947 66.9539C466.979 67.0282 466.991 67.1115 466.981 67.1934C466.971 67.2753 466.939 67.3521 466.89 67.414L459.03 77.1058C458.992 77.1496 458.945 77.1835 458.893 77.2052C458.841 77.2269 458.786 77.2358 458.731 77.2313ZM458.765 68.0832L459.068 75.7673L465.711 67.6022L458.765 68.0832Z" fill="#093F68"/>
<path d="M422.304 43.4458C422.203 43.4491 422.105 43.4082 422.032 43.3321C421.959 43.256 421.916 43.151 421.913 43.04C421.91 42.9291 421.947 42.8214 422.016 42.7406C422.085 42.6598 422.18 42.6125 422.281 42.6092L456.642 40.2207C456.742 40.2135 456.841 40.2507 456.917 40.324C456.993 40.3974 457.039 40.5009 457.045 40.6118C457.052 40.7228 457.018 40.832 456.952 40.9156C456.885 40.9991 456.792 41.0501 456.691 41.0573L422.326 43.4458H422.304Z" fill="#DFEAEF"/>
<path d="M422.717 50.6781C422.616 50.6814 422.519 50.6405 422.445 50.5644C422.372 50.4883 422.329 50.3833 422.326 50.2723C422.323 50.1614 422.36 50.0537 422.429 49.9729C422.498 49.8921 422.594 49.8448 422.694 49.8415L457.055 47.453C457.156 47.4458 457.255 47.483 457.33 47.5563C457.406 47.6297 457.452 47.7332 457.459 47.8441C457.465 47.9551 457.432 48.0643 457.365 48.1479C457.299 48.2314 457.205 48.2824 457.104 48.2896L422.74 50.6739L422.717 50.6781Z" fill="#DFEAEF"/>
<path d="M423.13 57.9145C423.03 57.9179 422.932 57.877 422.859 57.8009C422.785 57.7248 422.743 57.6197 422.74 57.5088C422.737 57.3978 422.774 57.2901 422.843 57.2093C422.912 57.1285 423.007 57.0813 423.107 57.0779L457.468 54.6895C457.569 54.6823 457.668 54.7194 457.744 54.7928C457.819 54.8661 457.865 54.9696 457.872 55.0806C457.879 55.1915 457.845 55.3008 457.778 55.3843C457.712 55.4679 457.618 55.5189 457.517 55.5261L423.153 57.9145H423.13Z" fill="#DFEAEF"/>
<path d="M423.543 65.1468C423.443 65.1502 423.345 65.1093 423.272 65.0332C423.199 64.9571 423.156 64.852 423.153 64.7411C423.15 64.6301 423.187 64.5224 423.256 64.4416C423.325 64.3608 423.42 64.3136 423.521 64.3102L457.881 61.9218C457.931 61.9182 457.981 61.9255 458.028 61.9432C458.076 61.9609 458.119 61.9888 458.157 62.0251C458.194 62.0614 458.225 62.1055 458.247 62.1549C458.269 62.2043 458.282 62.258 458.285 62.3129C458.288 62.3678 458.282 62.4229 458.266 62.475C458.25 62.5271 458.225 62.5753 458.192 62.6166C458.159 62.658 458.119 62.6918 458.074 62.7161C458.029 62.7404 457.981 62.7548 457.931 62.7584L423.566 65.1468H423.543Z" fill="#DFEAEF"/>
<path d="M423.957 72.3833C423.856 72.3871 423.758 72.3468 423.685 72.2711C423.611 72.1954 423.568 72.0905 423.564 71.9796C423.561 71.8687 423.597 71.7607 423.666 71.6795C423.735 71.5983 423.83 71.5505 423.93 71.5467L447.975 69.8735C448.025 69.8702 448.074 69.8778 448.122 69.8957C448.169 69.9137 448.212 69.9417 448.249 69.9783C448.287 70.0148 448.317 70.059 448.339 70.1085C448.361 70.158 448.374 70.2118 448.377 70.2667C448.38 70.3216 448.373 70.3767 448.356 70.4287C448.34 70.4807 448.315 70.5286 448.282 70.5698C448.249 70.611 448.208 70.6446 448.164 70.6686C448.119 70.6927 448.07 70.7068 448.02 70.7101L423.979 72.3833H423.957Z" fill="#DFEAEF"/>
<path d="M439.061 38.6396C438.821 38.6387 438.588 38.5542 438.394 38.3979C438.2 38.2416 438.056 38.0217 437.982 37.7696C437.909 37.5175 437.909 37.2462 437.984 36.9945C438.058 36.7428 438.203 36.5235 438.398 36.3682L442.568 33.0637C442.689 32.9616 442.827 32.8873 442.975 32.8452C443.122 32.8031 443.276 32.7941 443.426 32.8187C443.577 32.8433 443.722 32.9011 443.852 32.9885C443.982 33.0759 444.095 33.1913 444.183 33.3277C444.272 33.4641 444.335 33.6188 444.369 33.7827C444.403 33.9465 444.406 34.1162 444.379 34.2815C444.352 34.4469 444.296 34.6046 444.213 34.7453C444.129 34.8861 444.022 35.0069 443.895 35.1008L439.725 38.4053C439.531 38.558 439.299 38.64 439.061 38.6396Z" fill="#093F68"/>
<path d="M449.841 37.5649C451.718 35.8312 451.341 31.9244 448.999 28.8389C446.657 25.7534 443.238 24.6576 441.361 26.3913C439.484 28.125 439.861 32.0318 442.203 35.1173C444.545 38.2028 447.964 39.2987 449.841 37.5649Z" fill="#FF3E36"/>
<path d="M447.645 38.8027C447.119 38.7989 446.597 38.7116 446.094 38.5434C444.454 37.9605 443.005 36.8613 441.924 35.3811C439.452 32.1226 439.096 27.9438 441.131 26.0657C442.136 25.1329 443.558 24.8986 445.124 25.4006C446.764 25.9834 448.213 27.0826 449.294 28.5629C450.426 30.0002 451.152 31.7711 451.383 33.6577C451.554 35.448 451.095 36.9497 450.087 37.8783C449.4 38.4998 448.533 38.8279 447.645 38.8027ZM443.565 25.9778C442.855 25.956 442.16 26.214 441.605 26.7057C439.892 28.2868 440.29 31.9385 442.496 34.8415C443.477 36.1942 444.795 37.2017 446.288 37.7402C447.607 38.1585 448.779 37.987 449.586 37.2383C450.394 36.4895 450.758 35.2514 450.614 33.7455C450.398 32.0245 449.731 30.4106 448.695 29.1025C447.714 27.7494 446.397 26.7419 444.904 26.2037C444.47 26.0585 444.019 25.9825 443.565 25.9778Z" fill="#093F68"/>
<path d="M450.511 24.1917L444.688 27.9814C444.688 27.9814 444.229 29.6086 445.617 31.7712C447.072 34.0383 448.907 33.6159 448.907 33.6159L453.957 27.9103L450.511 24.1917Z" fill="#FF3E36"/>
<path d="M448.54 34.0635C447.842 34.0635 446.458 33.8083 445.309 32.0097C443.831 29.7091 444.305 27.9355 444.324 27.8602C444.353 27.761 444.414 27.6766 444.494 27.6218L450.318 23.832C450.39 23.7852 450.474 23.766 450.557 23.7773C450.64 23.7887 450.717 23.83 450.776 23.8948L454.211 27.6134C454.282 27.6918 454.322 27.7978 454.322 27.9083C454.322 28.0188 454.282 28.1248 454.211 28.2032L449.18 33.9255C449.128 33.9848 449.061 34.0255 448.987 34.0426C448.839 34.0669 448.689 34.0739 448.54 34.0635ZM445.021 28.2534C444.961 28.6717 444.892 29.9266 445.927 31.5286C447.034 33.252 448.346 33.2604 448.725 33.2018L453.411 27.902L450.454 24.723L445.021 28.2534Z" fill="#093F68"/>
<path d="M456.211 28.7202C457.398 27.6759 457.093 25.0768 455.53 22.9147C453.968 20.7527 451.739 19.8466 450.552 20.8908C449.365 21.935 449.669 24.5342 451.232 26.6962C452.795 28.8583 455.024 29.7644 456.211 28.7202Z" fill="#FF3E36"/>
<path d="M454.989 29.5752C453.696 29.5752 452.145 28.6256 450.94 26.9566C449.218 24.5807 448.945 21.7698 450.318 20.5651C451 19.9628 451.963 19.8749 453.032 20.31C454.137 20.8007 455.102 21.6096 455.827 22.6524C457.548 25.0325 457.821 27.8392 456.448 29.0481C456.03 29.4021 455.515 29.5881 454.989 29.5752ZM451.77 20.8747C451.418 20.8622 451.073 20.9832 450.792 21.2177C449.787 22.1003 450.124 24.4929 451.531 26.4338C452.938 28.3747 454.97 29.274 455.974 28.3914C456.979 27.5088 456.642 25.1203 455.235 23.1753C454.597 22.2484 453.746 21.5264 452.771 21.0838C452.45 20.9523 452.112 20.8816 451.77 20.8747Z" fill="#093F68"/>
</g>
<g filter="url(#filter2_d_82_463)">
<path d="M20.3314 5.43286H100.669C101.588 5.43286 102.471 5.82102 103.121 6.51195C103.771 7.20287 104.137 8.13997 104.137 9.11709V65.2723H16.8676V9.11709C16.8676 8.14072 17.2324 7.20428 17.8818 6.51348C18.5313 5.82267 19.4124 5.43401 20.3314 5.43286Z" fill="#093F68"/>
<path d="M104.132 65.7053H16.8675C16.7594 65.7053 16.6557 65.6597 16.5793 65.5785C16.5029 65.4973 16.46 65.3872 16.46 65.2724V9.11715C16.461 8.02632 16.8691 6.98042 17.5948 6.20868C18.3205 5.43693 19.3045 5.00229 20.3313 5H100.669C101.695 5.00229 102.679 5.43693 103.405 6.20868C104.131 6.98042 104.539 8.02632 104.54 9.11715V65.2724C104.54 65.3872 104.497 65.4973 104.421 65.5785C104.344 65.6597 104.241 65.7053 104.132 65.7053ZM17.275 64.8394H103.725V9.11715C103.725 8.25561 103.403 7.42928 102.83 6.81967C102.257 6.21006 101.48 5.867 100.669 5.86586H20.3313C19.5204 5.867 18.743 6.21006 18.1699 6.81967C17.5969 7.42928 17.275 8.25561 17.275 9.11715V64.8394Z" fill="#093F68"/>
<path d="M8.40748 65.2723V66.0559C8.40599 66.8707 8.61202 67.6707 9.00374 68.3711C9.39546 69.0715 9.95826 69.6463 10.6325 70.0346C11.2576 70.3959 11.9585 70.5836 12.6701 70.58H108.346C109.058 70.5836 109.759 70.3959 110.384 70.0346C111.056 69.6474 111.618 69.0746 112.009 68.3767C112.401 67.6787 112.608 66.8815 112.609 66.0689V65.2723H8.40748Z" fill="white"/>
<path d="M108.346 70.9956H12.6538C11.4195 70.9956 10.2358 70.4747 9.36307 69.5475C8.49031 68.6203 8 67.3628 8 66.0516V65.2723C8 65.1575 8.04293 65.0473 8.11936 64.9662C8.19578 64.885 8.29943 64.8394 8.40751 64.8394H112.593C112.701 64.8394 112.804 64.885 112.881 64.9662C112.957 65.0473 113 65.1575 113 65.2723V66.0559C113 67.3671 112.51 68.6247 111.637 69.5519C110.764 70.479 109.58 70.9999 108.346 70.9999V70.9956ZM8.81503 65.7052V66.0559C8.81503 67.1375 9.21947 68.1748 9.93938 68.9396C10.6593 69.7044 11.6357 70.1341 12.6538 70.1341H108.346C109.364 70.1341 110.341 69.7044 111.061 68.9396C111.781 68.1748 112.185 67.1375 112.185 66.0559V65.7052H8.81503Z" fill="#093F68"/>
<path d="M50.9846 65.2723H70.0155V65.5191C70.0155 65.7147 69.9793 65.9083 69.9088 66.089C69.8384 66.2697 69.7351 66.4339 69.6049 66.5722C69.4748 66.7105 69.3202 66.8202 69.1501 66.895C68.9801 66.9699 68.7978 67.0084 68.6137 67.0084H52.3865C52.0147 67.0084 51.6581 66.8515 51.3952 66.5722C51.1323 66.2929 50.9846 65.9141 50.9846 65.5191V65.2723Z" fill="white"/>
<path d="M68.6136 67.4369H52.3864C51.9068 67.4358 51.4473 67.2329 51.1082 66.8727C50.7691 66.5124 50.5781 66.0242 50.577 65.5147V65.2723C50.577 65.1575 50.62 65.0473 50.6964 64.9662C50.7728 64.885 50.8765 64.8394 50.9845 64.8394H70.0154C70.1235 64.8394 70.2272 64.885 70.3036 64.9662C70.38 65.0473 70.423 65.1575 70.423 65.2723V65.5191C70.4208 66.0278 70.2294 66.5149 69.8904 66.8742C69.5514 67.2335 69.0924 67.4358 68.6136 67.4369ZM51.4084 65.7052C51.4503 65.9483 51.5711 66.168 51.7498 66.3262C51.9285 66.4844 52.1538 66.5711 52.3864 66.5711H68.6136C68.8462 66.5711 69.0715 66.4844 69.2501 66.3262C69.4288 66.168 69.5497 65.9483 69.5916 65.7052H51.4084Z" fill="#093F68"/>
<path d="M100 9.72327H20.9998V61.4886H100V9.72327Z" fill="#00ADB5"/>
<path d="M100 61.9215H20.9997C20.8916 61.9215 20.7879 61.8758 20.7115 61.7947C20.6351 61.7135 20.5922 61.6033 20.5922 61.4885V9.72321C20.5922 9.60839 20.6351 9.49827 20.7115 9.41708C20.7879 9.33589 20.8916 9.29028 20.9997 9.29028H100C100.108 9.29028 100.212 9.33589 100.288 9.41708C100.365 9.49827 100.408 9.60839 100.408 9.72321V61.4885C100.408 61.6033 100.365 61.7135 100.288 61.7947C100.212 61.8758 100.108 61.9215 100 61.9215ZM21.4072 61.0556H99.5928V10.1561H21.4072V61.0556Z" fill="#093F68"/>
<path d="M60.5 8.42879C60.8534 8.42879 61.1398 8.12448 61.1398 7.7491C61.1398 7.37371 60.8534 7.0694 60.5 7.0694C60.1467 7.0694 59.8602 7.37371 59.8602 7.7491C59.8602 8.12448 60.1467 8.42879 60.5 8.42879Z" fill="white"/>
<path d="M42.2312 52.3408C42.1703 52.341 42.1101 52.3267 42.0551 52.299C42.0001 52.2713 41.9517 52.2308 41.9133 52.1806C41.8795 52.1363 41.8542 52.0854 41.8389 52.0307C41.8237 51.976 41.8187 51.9186 41.8244 51.8619C41.8301 51.8052 41.8463 51.7502 41.872 51.7001C41.8978 51.6501 41.9326 51.6059 41.9744 51.5702L79.7958 18.949C79.8801 18.8833 79.985 18.8546 80.0887 18.8687C80.1924 18.8829 80.2871 18.9388 80.353 19.025C80.419 19.1112 80.4512 19.2211 80.4431 19.3318C80.4349 19.4426 80.387 19.5458 80.3093 19.62L42.4879 52.2456C42.4151 52.3076 42.3245 52.3412 42.2312 52.3408Z" fill="white"/>
<path d="M31.8355 41.1365C31.7513 41.136 31.6693 41.1078 31.6008 41.0558C31.5323 41.0038 31.4807 40.9305 31.453 40.846C31.4253 40.7616 31.4229 40.67 31.4461 40.5841C31.4694 40.4981 31.5171 40.4219 31.5828 40.3659L56.38 19.3299C56.4649 19.2582 56.5731 19.2251 56.6808 19.2381C56.7886 19.2511 56.8871 19.309 56.9546 19.3992C57.0222 19.4893 57.0533 19.6043 57.041 19.7187C57.0288 19.8332 56.9743 19.9378 56.8894 20.0096L32.0922 41.0283C32.0211 41.095 31.9303 41.1333 31.8355 41.1365Z" fill="white"/>
<path d="M83.2026 47.0893C83.1424 47.0889 83.083 47.0743 83.0288 47.0466C82.9745 47.0189 82.9267 46.9788 82.8888 46.9291C82.8212 46.8405 82.7893 46.7271 82.8 46.6136C82.8107 46.5001 82.8631 46.3957 82.9458 46.323L91.2917 39.1061C91.3328 39.0669 91.3809 39.0369 91.4332 39.0181C91.4855 38.9992 91.5409 38.9919 91.5959 38.9964C91.651 39.001 91.7046 39.0174 91.7535 39.0447C91.8024 39.0719 91.8456 39.1094 91.8804 39.155C91.9152 39.2005 91.941 39.2531 91.9561 39.3095C91.9712 39.3659 91.9754 39.425 91.9684 39.4832C91.9613 39.5414 91.9433 39.5974 91.9152 39.648C91.8871 39.6985 91.8497 39.7425 91.8052 39.7772L83.4593 46.9941C83.3865 47.0561 83.2959 47.0897 83.2026 47.0893Z" fill="white"/>
<path d="M63.5034 55.0119C63.4422 55.0116 63.3818 54.9967 63.3268 54.9682C63.2718 54.9397 63.2235 54.8984 63.1856 54.8474C63.1189 54.7577 63.0884 54.6436 63.1006 54.5301C63.1128 54.4166 63.1668 54.3128 63.2508 54.2413L78.2513 41.6474C78.2934 41.6122 78.3415 41.5861 78.393 41.5706C78.4445 41.5551 78.4984 41.5505 78.5515 41.5572C78.6047 41.5638 78.6561 41.5815 78.7029 41.6092C78.7496 41.637 78.7907 41.6742 78.8239 41.7188C78.8571 41.7635 78.8817 41.8146 78.8962 41.8693C78.9108 41.9241 78.9151 41.9813 78.9089 42.0378C78.9026 42.0943 78.886 42.1489 78.8598 42.1985C78.8337 42.2482 78.7987 42.2919 78.7567 42.3271L63.7601 54.9167C63.6874 54.9787 63.5967 55.0124 63.5034 55.0119Z" fill="white"/>
</g>
<g filter="url(#filter3_d_82_463)">
<path d="M289.114 482.946H180.49V533.413H289.114V482.946Z" fill="#00ADB5"/>
<path d="M289.104 533.881H180.49C180.36 533.881 180.235 533.832 180.143 533.745C180.052 533.658 180 533.541 180 533.418V482.936C180 482.813 180.052 482.696 180.143 482.609C180.235 482.522 180.36 482.473 180.49 482.473H289.104C289.234 482.473 289.359 482.522 289.451 482.609C289.542 482.696 289.594 482.813 289.594 482.936V533.418C289.594 533.541 289.542 533.658 289.451 533.745C289.359 533.832 289.234 533.881 289.104 533.881ZM180.979 532.955H288.615V483.399H180.979V532.955Z" fill="#093F68"/>
<path d="M233.377 482.946H184.817V529.861H233.377V482.946Z" fill="#093F68"/>
<path d="M233.372 530.324H184.836C184.707 530.324 184.582 530.275 184.49 530.188C184.398 530.101 184.347 529.984 184.347 529.861V482.936C184.347 482.813 184.398 482.696 184.49 482.609C184.582 482.522 184.707 482.473 184.836 482.473H233.392C233.522 482.473 233.646 482.522 233.738 482.609C233.83 482.696 233.882 482.813 233.882 482.936V529.852C233.883 529.915 233.871 529.978 233.845 530.036C233.82 530.095 233.783 530.148 233.735 530.192C233.687 530.236 233.63 530.271 233.568 530.293C233.506 530.316 233.439 530.327 233.372 530.324ZM185.306 529.398H232.883V483.399H185.326L185.306 529.398Z" fill="#093F68"/>
<path d="M285.83 482.946H237.269V529.861H285.83V482.946Z" fill="#093F68"/>
<path d="M285.83 530.324H237.269C237.139 530.324 237.015 530.275 236.923 530.188C236.831 530.101 236.78 529.984 236.78 529.861V482.936C236.78 482.813 236.831 482.696 236.923 482.609C237.015 482.522 237.139 482.473 237.269 482.473H285.83C285.959 482.473 286.084 482.522 286.176 482.609C286.268 482.696 286.319 482.813 286.319 482.936V529.852C286.32 529.913 286.309 529.974 286.285 530.032C286.261 530.089 286.225 530.141 286.179 530.185C286.134 530.229 286.079 530.264 286.019 530.288C285.959 530.312 285.895 530.324 285.83 530.324ZM237.759 529.398H285.34V483.399H237.759V529.398Z" fill="#093F68"/>
<path d="M233.377 480.463H184.817V527.378H233.377V480.463Z" fill="white"/>
<path d="M233.372 527.86H184.836C184.707 527.86 184.582 527.811 184.49 527.724C184.398 527.638 184.347 527.52 184.347 527.397V480.463C184.347 480.34 184.398 480.223 184.49 480.136C184.582 480.049 184.707 480 184.836 480H233.392C233.522 480 233.646 480.049 233.738 480.136C233.83 480.223 233.882 480.34 233.882 480.463V527.397C233.882 527.459 233.868 527.521 233.843 527.579C233.817 527.636 233.779 527.688 233.731 527.731C233.684 527.774 233.627 527.808 233.566 527.83C233.504 527.852 233.438 527.863 233.372 527.86ZM185.326 526.934H232.903V480.926H185.326V526.934Z" fill="#093F68"/>
<path d="M285.83 480.463H237.269V527.378H285.83V480.463Z" fill="white"/>
<path d="M285.83 527.86H237.269C237.139 527.86 237.015 527.811 236.923 527.724C236.831 527.638 236.78 527.52 236.78 527.397V480.463C236.78 480.34 236.831 480.223 236.923 480.136C237.015 480.049 237.139 480 237.269 480H285.83C285.959 480 286.084 480.049 286.176 480.136C286.268 480.223 286.319 480.34 286.319 480.463V527.397C286.319 527.52 286.268 527.638 286.176 527.724C286.084 527.811 285.959 527.86 285.83 527.86ZM237.759 526.934H285.34V480.926H237.759V526.934Z" fill="#093F68"/>
<path d="M241.239 523.039C241.144 523.039 241.05 523.013 240.97 522.964C240.89 522.914 240.827 522.844 240.789 522.761C240.236 521.705 239.383 520.815 238.325 520.193C237.266 519.572 236.045 519.242 234.799 519.242C233.554 519.242 232.333 519.572 231.274 520.193C230.216 520.815 229.363 521.705 228.81 522.761C228.754 522.867 228.657 522.949 228.539 522.989C228.421 523.029 228.291 523.025 228.176 522.978C228.062 522.93 227.97 522.843 227.922 522.734C227.873 522.624 227.87 522.502 227.914 522.391C228.542 521.169 229.521 520.138 230.739 519.418C231.956 518.697 233.363 518.315 234.799 518.315C236.236 518.315 237.643 518.697 238.86 519.418C240.078 520.138 241.056 521.169 241.685 522.391C241.736 522.502 241.738 522.629 241.691 522.742C241.645 522.856 241.553 522.948 241.435 522.997C241.373 523.024 241.307 523.038 241.239 523.039Z" fill="#093F68"/>
<path d="M241.239 516.342C241.144 516.343 241.051 516.317 240.971 516.269C240.891 516.22 240.828 516.151 240.789 516.069C240.238 515.011 239.385 514.12 238.326 513.497C237.268 512.874 236.046 512.544 234.799 512.544C233.553 512.544 232.331 512.874 231.273 513.497C230.214 514.12 229.361 515.011 228.81 516.069C228.784 516.124 228.747 516.175 228.7 516.217C228.654 516.259 228.599 516.292 228.539 516.313C228.479 516.335 228.415 516.346 228.351 516.344C228.286 516.343 228.223 516.33 228.164 516.305C228.105 516.28 228.052 516.245 228.008 516.201C227.963 516.157 227.929 516.105 227.905 516.048C227.882 515.991 227.871 515.931 227.873 515.87C227.874 515.809 227.888 515.749 227.914 515.694C228.542 514.472 229.521 513.442 230.739 512.721C231.956 512 233.363 511.618 234.799 511.618C236.236 511.618 237.643 512 238.86 512.721C240.078 513.442 241.057 514.472 241.685 515.694C241.711 515.749 241.725 515.809 241.726 515.87C241.728 515.931 241.717 515.991 241.694 516.048C241.671 516.105 241.636 516.157 241.591 516.201C241.547 516.245 241.494 516.28 241.435 516.305C241.373 516.328 241.306 516.341 241.239 516.342Z" fill="#093F68"/>
<path d="M241.239 509.645C241.144 509.646 241.051 509.62 240.971 509.572C240.891 509.523 240.828 509.454 240.789 509.372C240.238 508.314 239.385 507.423 238.326 506.8C237.268 506.177 236.046 505.847 234.799 505.847C233.553 505.847 232.331 506.177 231.273 506.8C230.214 507.423 229.361 508.314 228.81 509.372C228.784 509.428 228.747 509.478 228.7 509.52C228.654 509.562 228.599 509.595 228.539 509.617C228.479 509.638 228.415 509.649 228.351 509.648C228.286 509.646 228.223 509.633 228.164 509.608C228.105 509.583 228.052 509.548 228.008 509.504C227.963 509.46 227.929 509.408 227.905 509.351C227.882 509.295 227.871 509.234 227.873 509.173C227.874 509.112 227.888 509.052 227.914 508.997C228.542 507.775 229.521 506.745 230.739 506.024C231.956 505.303 233.363 504.921 234.799 504.921C236.236 504.921 237.643 505.303 238.86 506.024C240.078 506.745 241.057 507.775 241.685 508.997C241.711 509.052 241.725 509.112 241.726 509.173C241.728 509.234 241.717 509.295 241.694 509.351C241.671 509.408 241.636 509.46 241.591 509.504C241.547 509.548 241.494 509.583 241.435 509.608C241.373 509.633 241.306 509.646 241.239 509.645Z" fill="#093F68"/>
<path d="M241.239 502.953C241.144 502.953 241.05 502.927 240.97 502.878C240.89 502.828 240.827 502.758 240.789 502.675C240.238 501.617 239.385 500.726 238.326 500.103C237.268 499.48 236.046 499.15 234.799 499.15C233.553 499.15 232.331 499.48 231.273 500.103C230.214 500.726 229.361 501.617 228.81 502.675C228.758 502.787 228.66 502.875 228.539 502.92C228.418 502.964 228.283 502.961 228.164 502.911C228.045 502.861 227.952 502.769 227.905 502.654C227.859 502.54 227.862 502.412 227.914 502.3C228.542 501.078 229.521 500.048 230.739 499.327C231.956 498.606 233.363 498.224 234.799 498.224C236.236 498.224 237.643 498.606 238.86 499.327C240.078 500.048 241.057 501.078 241.685 502.3C241.711 502.355 241.725 502.415 241.726 502.476C241.728 502.537 241.717 502.598 241.694 502.654C241.671 502.711 241.636 502.763 241.591 502.807C241.547 502.851 241.494 502.887 241.435 502.911C241.373 502.938 241.307 502.952 241.239 502.953Z" fill="#093F68"/>
<path d="M241.239 496.256C241.144 496.256 241.05 496.23 240.97 496.181C240.89 496.131 240.827 496.061 240.789 495.978C240.236 494.922 239.383 494.032 238.325 493.411C237.266 492.789 236.045 492.459 234.799 492.459C233.554 492.459 232.333 492.789 231.274 493.411C230.216 494.032 229.363 494.922 228.81 495.978C228.784 496.034 228.747 496.084 228.7 496.126C228.654 496.168 228.599 496.201 228.539 496.223C228.479 496.245 228.415 496.255 228.351 496.254C228.286 496.252 228.223 496.239 228.164 496.214C228.105 496.19 228.052 496.154 228.008 496.11C227.963 496.066 227.929 496.014 227.905 495.958C227.882 495.901 227.871 495.84 227.873 495.779C227.874 495.719 227.888 495.659 227.914 495.603C228.544 494.382 229.523 493.354 230.74 492.634C231.958 491.915 233.364 491.533 234.799 491.533C236.235 491.533 237.641 491.915 238.859 492.634C240.076 493.354 241.055 494.382 241.685 495.603C241.711 495.659 241.725 495.719 241.726 495.779C241.728 495.84 241.717 495.901 241.694 495.958C241.671 496.014 241.636 496.066 241.591 496.11C241.547 496.154 241.494 496.19 241.435 496.214C241.373 496.241 241.307 496.255 241.239 496.256Z" fill="#093F68"/>
<path d="M241.239 489.559C241.144 489.56 241.051 489.534 240.971 489.486C240.891 489.437 240.828 489.368 240.789 489.286C240.238 488.228 239.385 487.337 238.326 486.714C237.268 486.091 236.046 485.761 234.799 485.761C233.553 485.761 232.331 486.091 231.273 486.714C230.214 487.337 229.361 488.228 228.81 489.286C228.758 489.398 228.66 489.486 228.539 489.531C228.418 489.575 228.283 489.572 228.164 489.522C228.045 489.472 227.952 489.38 227.905 489.265C227.859 489.151 227.862 489.023 227.914 488.911C228.542 487.689 229.521 486.659 230.739 485.938C231.956 485.217 233.363 484.835 234.799 484.835C236.236 484.835 237.643 485.217 238.86 485.938C240.078 486.659 241.057 487.689 241.685 488.911C241.711 488.966 241.725 489.026 241.726 489.087C241.728 489.148 241.717 489.209 241.694 489.265C241.671 489.322 241.636 489.374 241.591 489.418C241.547 489.462 241.494 489.497 241.435 489.522C241.373 489.545 241.306 489.558 241.239 489.559Z" fill="#093F68"/>
<path d="M209.313 513.966C207.43 513.966 205.59 513.438 204.025 512.448C202.46 511.459 201.24 510.053 200.52 508.407C199.8 506.762 199.612 504.951 199.979 503.205C200.347 501.458 201.254 499.854 202.585 498.595C203.917 497.336 205.613 496.479 207.459 496.132C209.305 495.785 211.219 495.964 212.958 496.646C214.696 497.328 216.182 498.483 217.227 499.964C218.273 501.445 218.83 503.187 218.829 504.967C218.825 507.354 217.821 509.641 216.037 511.328C214.253 513.015 211.835 513.964 209.313 513.966ZM209.313 496.89C207.624 496.89 205.973 497.364 204.57 498.252C203.166 499.139 202.071 500.401 201.425 501.877C200.779 503.352 200.61 504.976 200.939 506.543C201.269 508.11 202.082 509.549 203.276 510.679C204.47 511.808 205.991 512.578 207.647 512.889C209.303 513.201 211.02 513.041 212.58 512.43C214.14 511.818 215.473 510.783 216.411 509.455C217.349 508.127 217.85 506.565 217.85 504.967C217.852 503.905 217.632 502.853 217.204 501.872C216.776 500.89 216.148 499.997 215.355 499.246C214.562 498.494 213.62 497.897 212.583 497.49C211.547 497.082 210.435 496.872 209.313 496.872V496.89Z" fill="#DFEAEF"/>
<path d="M264.139 506.519H247.554C247.424 506.519 247.3 506.47 247.208 506.383C247.116 506.296 247.064 506.179 247.064 506.056V490.379C247.064 490.256 247.116 490.138 247.208 490.051C247.3 489.964 247.424 489.916 247.554 489.916H264.139C264.269 489.916 264.393 489.964 264.485 490.051C264.577 490.138 264.628 490.256 264.628 490.379V506.056C264.628 506.179 264.577 506.296 264.485 506.383C264.393 506.47 264.269 506.519 264.139 506.519ZM248.063 505.593H263.649V490.842H248.043L248.063 505.593Z" fill="#DFEAEF"/>
<path d="M276.196 511.261H261.089C260.959 511.261 260.835 511.213 260.743 511.126C260.651 511.039 260.6 510.921 260.6 510.798V494.427C260.6 494.304 260.651 494.186 260.743 494.099C260.835 494.012 260.959 493.963 261.089 493.963H276.196C276.326 493.963 276.45 494.012 276.542 494.099C276.634 494.186 276.685 494.304 276.685 494.427V510.798C276.685 510.921 276.634 511.039 276.542 511.126C276.45 511.213 276.326 511.261 276.196 511.261ZM261.579 510.335H275.706V494.89H261.579V510.335Z" fill="#DFEAEF"/>
<path d="M299.433 533.589C299.36 533.269 290.622 499.54 289.428 498.039C286.192 493.959 275.946 493.843 274.125 494.334C272.304 494.825 260.223 500.591 259.621 501.082C258.181 502.244 257.888 505.208 261.608 505.093C262.964 505.977 264.262 506.939 265.495 507.973C267.771 509.854 268.011 510.479 268.011 510.479C268.011 510.479 273.65 515.573 276.078 517.014C276.078 517.014 274.575 520.39 276.21 521.918C277.371 522.94 278.692 523.785 280.127 524.424L282.462 534.01L299.433 533.589Z" fill="#FFC9B0"/>
<path d="M282.462 534.474C282.349 534.476 282.238 534.442 282.149 534.376C282.059 534.31 281.997 534.217 281.972 534.112L279.686 524.748C278.283 524.102 276.99 523.258 275.853 522.247C274.326 520.82 275.109 518.167 275.471 517.194C272.896 515.522 267.879 511.011 267.639 510.812C267.582 510.762 267.538 510.7 267.512 510.632C267.512 510.632 267.198 510.02 265.138 508.316C263.955 507.326 262.717 506.398 261.427 505.537H261.368C259.239 505.537 258.514 504.555 258.27 503.962C258.079 503.391 258.07 502.779 258.244 502.202C258.418 501.626 258.767 501.111 259.249 500.721C260.002 500.114 272.128 494.362 273.934 493.875C274.913 493.616 277.992 493.514 281.277 494.005C284.141 494.436 287.935 495.432 289.775 497.752C291.058 499.368 299.796 533.163 299.869 533.483C299.884 533.549 299.884 533.618 299.867 533.684C299.851 533.75 299.82 533.812 299.776 533.866C299.731 533.919 299.675 533.963 299.611 533.994C299.546 534.024 299.476 534.041 299.404 534.043L282.432 534.464L282.462 534.474ZM268.408 510.201C269.039 510.761 274.12 515.295 276.343 516.625C276.44 516.684 276.511 516.773 276.545 516.877C276.579 516.981 276.574 517.094 276.529 517.194C276.152 518.056 275.408 520.519 276.553 521.589C277.674 522.571 278.947 523.385 280.327 524.002C280.396 524.032 280.456 524.076 280.504 524.132C280.552 524.187 280.585 524.252 280.602 524.322L282.848 533.538L298.821 533.14C297.656 528.569 290.069 499.692 289.031 498.317C285.893 494.362 275.814 494.362 274.252 494.774C272.397 495.274 260.546 500.966 259.929 501.434C259.6 501.701 259.358 502.05 259.23 502.442C259.103 502.834 259.096 503.252 259.209 503.648C259.562 504.509 260.678 504.657 261.589 504.629C261.69 504.625 261.79 504.652 261.872 504.708C263.241 505.603 264.549 506.577 265.789 507.626C267.673 509.159 268.241 509.9 268.408 510.201Z" fill="#093F68"/>
<path d="M264.188 507.019L263.209 502.23L295.576 496.112C296.12 496.013 296.683 496.122 297.142 496.416C297.601 496.709 297.918 497.163 298.024 497.678L298.21 498.581C298.314 499.096 298.199 499.628 297.889 500.063C297.579 500.497 297.099 500.797 296.555 500.897L264.188 507.019Z" fill="#B50800"/>
<path d="M264.188 507.482C264.09 507.482 263.995 507.455 263.914 507.404C263.861 507.369 263.815 507.326 263.78 507.275C263.744 507.224 263.72 507.167 263.708 507.107L262.729 502.318C262.705 502.199 262.731 502.075 262.802 501.973C262.874 501.872 262.985 501.801 263.111 501.776L295.468 495.672C295.801 495.61 296.144 495.611 296.477 495.675C296.809 495.739 297.125 495.864 297.407 496.043C297.688 496.222 297.93 496.453 298.117 496.72C298.304 496.988 298.434 497.288 298.498 497.604L298.684 498.53C298.749 498.845 298.748 499.168 298.68 499.483C298.612 499.797 298.48 500.095 298.291 500.361C298.101 500.627 297.858 500.855 297.575 501.032C297.293 501.209 296.976 501.331 296.643 501.392L264.286 507.482H264.188ZM263.777 502.592L264.575 506.473L296.462 500.452C296.669 500.414 296.866 500.338 297.041 500.228C297.217 500.119 297.368 499.977 297.486 499.812C297.604 499.646 297.686 499.461 297.728 499.266C297.77 499.07 297.77 498.869 297.73 498.673L297.544 497.77C297.504 497.575 297.424 497.388 297.308 497.222C297.191 497.056 297.042 496.913 296.867 496.801C296.692 496.69 296.496 496.612 296.29 496.573C296.083 496.533 295.871 496.533 295.664 496.571L263.777 502.592Z" fill="#093F68"/>
<path d="M264.188 507.033L257.178 506.519L254.53 506.324L256.909 505.208L263.204 502.244L264.188 507.033Z" fill="#FF3E36"/>
<path d="M264.188 507.482H264.139L254.481 506.778C254.374 506.77 254.273 506.729 254.194 506.662C254.114 506.595 254.06 506.505 254.039 506.406C254.019 506.306 254.033 506.204 254.08 506.113C254.127 506.022 254.204 505.948 254.3 505.903L262.974 501.818C263.042 501.786 263.116 501.77 263.192 501.77C263.267 501.77 263.342 501.786 263.41 501.818C263.477 501.85 263.537 501.896 263.583 501.953C263.628 502.01 263.66 502.077 263.674 502.147L264.653 506.931C264.668 507.001 264.666 507.074 264.646 507.143C264.627 507.212 264.59 507.276 264.54 507.329C264.496 507.376 264.441 507.414 264.381 507.44C264.32 507.467 264.255 507.481 264.188 507.482ZM256.356 505.977L263.605 506.51L262.866 502.916L256.356 505.977Z" fill="#093F68"/>
<path d="M257.178 506.519L254.53 506.324L256.909 505.208L257.178 506.519Z" fill="#093F68"/>
<path d="M257.178 506.982H257.144L254.49 506.788C254.384 506.78 254.283 506.739 254.203 506.671C254.124 506.604 254.07 506.514 254.049 506.415C254.029 506.316 254.043 506.213 254.09 506.122C254.137 506.031 254.214 505.958 254.309 505.912L256.688 504.791C256.756 504.76 256.831 504.743 256.906 504.743C256.982 504.743 257.056 504.76 257.124 504.791C257.191 504.823 257.25 504.868 257.296 504.924C257.342 504.981 257.374 505.046 257.388 505.116L257.658 506.431C257.671 506.499 257.669 506.569 257.651 506.635C257.633 506.702 257.599 506.764 257.552 506.817C257.505 506.87 257.446 506.912 257.38 506.941C257.313 506.969 257.241 506.983 257.168 506.982H257.178ZM256.336 505.991H256.576L256.551 505.875L256.336 505.991Z" fill="#093F68"/>
<path d="M277.845 507.626C277.845 507.626 263.356 502.68 261.956 503.796C260.556 504.912 260.262 506.232 262.763 508.89C265.265 511.549 271.741 514.249 271.741 514.249C271.741 514.249 269.152 521.89 280.107 524.438" fill="#FFC9B0"/>
<path d="M280.127 524.887C280.088 524.891 280.048 524.891 280.009 524.887C276.093 523.961 273.41 522.326 272.025 519.982C271.061 518.313 270.764 516.372 271.188 514.513C269.744 513.883 264.638 511.544 262.421 509.201C260.981 507.681 260.35 506.487 260.428 505.449C260.474 505.053 260.608 504.671 260.82 504.327C261.033 503.983 261.32 503.685 261.662 503.453C263.13 502.295 273.596 505.69 278.032 507.204C278.096 507.222 278.156 507.251 278.208 507.292C278.259 507.332 278.302 507.382 278.333 507.438C278.363 507.494 278.381 507.556 278.386 507.619C278.39 507.682 278.381 507.746 278.358 507.805C278.336 507.865 278.301 507.92 278.255 507.966C278.209 508.012 278.154 508.049 278.093 508.074C278.031 508.1 277.965 508.113 277.898 508.113C277.831 508.113 277.765 508.1 277.704 508.075C270.992 505.787 263.194 503.643 262.284 504.171C262.047 504.325 261.846 504.523 261.695 504.755C261.545 504.986 261.446 505.245 261.407 505.514C261.349 506.278 261.897 507.279 263.15 508.58C265.554 511.123 271.898 513.799 271.961 513.827C272.071 513.874 272.159 513.958 272.208 514.062C272.257 514.166 272.263 514.284 272.226 514.392C271.761 516.121 271.997 517.951 272.887 519.524C274.14 521.631 276.612 523.127 280.229 523.97C280.355 523.999 280.464 524.075 280.531 524.18C280.598 524.285 280.618 524.411 280.587 524.53C280.562 524.629 280.504 524.718 280.421 524.782C280.337 524.847 280.234 524.883 280.127 524.887Z" fill="#093F68"/>
<path d="M250.706 516.439C250.653 516.439 250.601 516.431 250.55 516.416C250.489 516.397 250.432 516.366 250.383 516.326C250.335 516.286 250.295 516.237 250.266 516.183C250.238 516.128 250.221 516.069 250.216 516.008C250.212 515.947 250.221 515.886 250.241 515.828C252.229 510.224 255.425 507.908 255.558 507.816C255.661 507.741 255.792 507.709 255.921 507.726C256.05 507.743 256.167 507.808 256.245 507.906C256.324 508.004 256.358 508.128 256.34 508.25C256.322 508.372 256.254 508.482 256.15 508.557C256.116 508.58 253.051 510.817 251.167 516.124C251.134 516.216 251.072 516.295 250.99 516.351C250.907 516.408 250.808 516.439 250.706 516.439Z" fill="#DFEAEF"/>
<path d="M257.178 519.241H247.554C247.424 519.241 247.3 519.192 247.208 519.106C247.116 519.019 247.064 518.901 247.064 518.778C247.064 518.655 247.116 518.537 247.208 518.451C247.3 518.364 247.424 518.315 247.554 518.315H257.178C257.308 518.315 257.432 518.364 257.524 518.451C257.616 518.537 257.667 518.655 257.667 518.778C257.667 518.901 257.616 519.019 257.524 519.106C257.432 519.192 257.308 519.241 257.178 519.241Z" fill="#DFEAEF"/>
<path d="M253.281 522.039H247.554C247.424 522.039 247.3 521.99 247.208 521.903C247.116 521.816 247.064 521.698 247.064 521.575C247.064 521.453 247.116 521.335 247.208 521.248C247.3 521.161 247.424 521.112 247.554 521.112H253.281C253.411 521.112 253.536 521.161 253.627 521.248C253.719 521.335 253.771 521.453 253.771 521.575C253.771 521.698 253.719 521.816 253.627 521.903C253.536 521.99 253.411 522.039 253.281 522.039Z" fill="#DFEAEF"/>
<path d="M280.127 485.761H272.578C272.448 485.761 272.324 485.713 272.232 485.626C272.14 485.539 272.089 485.421 272.089 485.298C272.089 485.175 272.14 485.058 272.232 484.971C272.324 484.884 272.448 484.835 272.578 484.835H280.127C280.257 484.835 280.381 484.884 280.473 484.971C280.565 485.058 280.616 485.175 280.616 485.298C280.616 485.421 280.565 485.539 280.473 485.626C280.381 485.713 280.257 485.761 280.127 485.761Z" fill="#DFEAEF"/>
<path d="M276.377 488.443H272.603C272.473 488.443 272.348 488.394 272.257 488.307C272.165 488.22 272.113 488.103 272.113 487.98C272.113 487.857 272.165 487.739 272.257 487.652C272.348 487.565 272.473 487.517 272.603 487.517H276.377C276.507 487.517 276.631 487.565 276.723 487.652C276.815 487.739 276.866 487.857 276.866 487.98C276.866 488.103 276.815 488.22 276.723 488.307C276.631 488.394 276.507 488.443 276.377 488.443Z" fill="#DFEAEF"/>
<path d="M260.913 488.443C260.845 488.443 260.778 488.43 260.715 488.405C260.653 488.379 260.597 488.342 260.551 488.295C260.463 488.204 260.417 488.085 260.423 487.962C260.428 487.84 260.485 487.725 260.58 487.642C260.742 487.493 264.658 484.108 268.843 485.886C268.961 485.937 269.053 486.03 269.099 486.144C269.145 486.259 269.141 486.386 269.088 486.498C269.035 486.609 268.937 486.696 268.816 486.74C268.694 486.783 268.56 486.779 268.442 486.729C264.844 485.206 261.28 488.285 261.246 488.318C261.156 488.398 261.037 488.443 260.913 488.443Z" fill="#DFEAEF"/>
<path d="M269.93 522.039H264.139C264.009 522.039 263.885 521.99 263.793 521.903C263.701 521.816 263.649 521.698 263.649 521.575V517.912C263.649 517.789 263.701 517.671 263.793 517.585C263.885 517.498 264.009 517.449 264.139 517.449H269.949C270.079 517.449 270.204 517.498 270.296 517.585C270.387 517.671 270.439 517.789 270.439 517.912V521.575C270.439 521.638 270.426 521.7 270.4 521.757C270.374 521.814 270.336 521.866 270.289 521.91C270.241 521.953 270.185 521.987 270.123 522.009C270.062 522.031 269.996 522.041 269.93 522.039ZM264.609 521.112H269.44V518.375H264.628L264.609 521.112Z" fill="#DFEAEF"/>
<path d="M222.916 485.331H212.47C212.34 485.331 212.216 485.282 212.124 485.195C212.032 485.108 211.98 484.99 211.98 484.868C211.98 484.745 212.032 484.627 212.124 484.54C212.216 484.453 212.34 484.404 212.47 484.404H222.916C223.046 484.404 223.171 484.453 223.262 484.54C223.354 484.627 223.406 484.745 223.406 484.868C223.406 484.99 223.354 485.108 223.262 485.195C223.171 485.282 223.046 485.331 222.916 485.331Z" fill="#DFEAEF"/>
<path d="M222.916 488.721H212.47C212.34 488.721 212.216 488.672 212.124 488.585C212.032 488.498 211.98 488.38 211.98 488.258C211.98 488.135 212.032 488.017 212.124 487.93C212.216 487.843 212.34 487.794 212.47 487.794H222.916C223.046 487.794 223.171 487.843 223.262 487.93C223.354 488.017 223.406 488.135 223.406 488.258C223.406 488.38 223.354 488.498 223.262 488.585C223.171 488.672 223.046 488.721 222.916 488.721Z" fill="#DFEAEF"/>
<path d="M219.191 492.116H212.47C212.34 492.116 212.216 492.067 212.124 491.98C212.032 491.893 211.98 491.775 211.98 491.652C211.98 491.53 212.032 491.412 212.124 491.325C212.216 491.238 212.34 491.189 212.47 491.189H219.191C219.321 491.189 219.445 491.238 219.537 491.325C219.629 491.412 219.681 491.53 219.681 491.652C219.681 491.775 219.629 491.893 219.537 491.98C219.445 492.067 219.321 492.116 219.191 492.116Z" fill="#DFEAEF"/>
<path d="M205.626 523.942H189.732C189.602 523.942 189.477 523.893 189.386 523.806C189.294 523.719 189.242 523.602 189.242 523.479V516.995C189.242 516.872 189.294 516.754 189.386 516.668C189.477 516.581 189.602 516.532 189.732 516.532H205.622C205.751 516.532 205.876 516.581 205.968 516.668C206.06 516.754 206.111 516.872 206.111 516.995V523.479C206.111 523.601 206.06 523.718 205.969 523.805C205.879 523.891 205.755 523.941 205.626 523.942ZM190.226 523.016H205.137V517.458H190.221L190.226 523.016Z" fill="#DFEAEF"/>
<path d="M195.709 514.967C195.603 514.967 195.5 514.934 195.415 514.874C195.364 514.837 195.32 514.792 195.288 514.739C195.255 514.687 195.233 514.629 195.224 514.569C195.215 514.509 195.219 514.447 195.235 514.388C195.251 514.33 195.279 514.274 195.317 514.225C196.813 512.363 198.568 510.701 200.535 509.284C200.641 509.211 200.772 509.181 200.9 509.201C201.029 509.22 201.144 509.286 201.221 509.386C201.297 509.485 201.329 509.609 201.309 509.731C201.289 509.853 201.218 509.962 201.113 510.034C199.226 511.4 197.539 512.996 196.095 514.781C196.05 514.838 195.992 514.884 195.925 514.917C195.858 514.949 195.784 514.966 195.709 514.967Z" fill="#DFEAEF"/>
<path d="M198.9 491.694H190.765C190.635 491.694 190.51 491.645 190.418 491.558C190.327 491.472 190.275 491.354 190.275 491.231C190.275 491.108 190.327 490.99 190.418 490.903C190.51 490.817 190.635 490.768 190.765 490.768H198.9C199.03 490.768 199.155 490.817 199.247 490.903C199.338 490.99 199.39 491.108 199.39 491.231C199.39 491.354 199.338 491.472 199.247 491.558C199.155 491.645 199.03 491.694 198.9 491.694Z" fill="#DFEAEF"/>
<path d="M198.9 495.033H190.765C190.635 495.033 190.51 494.984 190.418 494.898C190.327 494.811 190.275 494.693 190.275 494.57C190.275 494.447 190.327 494.33 190.418 494.243C190.51 494.156 190.635 494.107 190.765 494.107H198.9C199.03 494.107 199.155 494.156 199.247 494.243C199.338 494.33 199.39 494.447 199.39 494.57C199.39 494.693 199.338 494.811 199.247 494.898C199.155 494.984 199.03 495.033 198.9 495.033Z" fill="#DFEAEF"/>
<path d="M198.9 498.368H196.345C196.215 498.368 196.091 498.319 195.999 498.232C195.907 498.145 195.856 498.028 195.856 497.905C195.856 497.782 195.907 497.664 195.999 497.577C196.091 497.49 196.215 497.442 196.345 497.442H198.9C199.03 497.442 199.155 497.49 199.247 497.577C199.338 497.664 199.39 497.782 199.39 497.905C199.39 498.028 199.338 498.145 199.247 498.232C199.155 498.319 199.03 498.368 198.9 498.368Z" fill="#DFEAEF"/>
<path d="M193.315 498.368H190.765C190.635 498.368 190.51 498.319 190.418 498.232C190.327 498.145 190.275 498.028 190.275 497.905C190.275 497.782 190.327 497.664 190.418 497.577C190.51 497.49 190.635 497.442 190.765 497.442H193.315C193.445 497.442 193.569 497.49 193.661 497.577C193.753 497.664 193.805 497.782 193.805 497.905C193.805 498.028 193.753 498.145 193.661 498.232C193.569 498.319 193.445 498.368 193.315 498.368Z" fill="#DFEAEF"/>
<path d="M217.693 498.683C217.579 498.681 217.469 498.641 217.383 498.57C217.296 498.499 217.239 498.402 217.22 498.295C217.202 498.188 217.223 498.079 217.281 497.986C217.339 497.892 217.429 497.821 217.536 497.784C217.683 497.738 221.022 496.613 221.697 492.574C221.708 492.514 221.73 492.456 221.764 492.404C221.798 492.352 221.842 492.307 221.894 492.271C221.947 492.235 222.006 492.21 222.069 492.196C222.132 492.182 222.197 492.18 222.26 492.19C222.324 492.199 222.385 492.221 222.44 492.253C222.495 492.285 222.543 492.327 222.581 492.376C222.618 492.426 222.645 492.482 222.66 492.541C222.675 492.6 222.677 492.662 222.667 492.722C221.893 497.33 218.016 498.609 217.85 498.66C217.799 498.676 217.746 498.684 217.693 498.683Z" fill="#DFEAEF"/>
<path d="M222.574 513.531C222.17 513.342 221.714 513.276 221.269 513.344C220.825 513.411 220.413 513.607 220.092 513.906C220.004 514.001 219.958 514.123 219.962 514.249C219.966 514.375 220.021 514.494 220.115 514.583C220.209 514.672 220.335 514.724 220.468 514.728C220.601 514.732 220.731 514.688 220.831 514.605C220.931 514.508 221.051 514.431 221.184 514.378C221.316 514.325 221.458 514.298 221.602 514.298C221.746 514.298 221.888 514.325 222.02 514.378C222.153 514.431 222.273 514.508 222.373 514.605C222.557 514.816 222.645 515.088 222.618 515.36C222.592 515.632 222.452 515.884 222.231 516.06C221.947 516.274 221.648 516.469 221.335 516.643C220.998 516.853 220.703 517.118 220.464 517.426C220.225 517.753 220.062 518.125 219.988 518.516C219.914 518.908 219.929 519.31 220.033 519.695C220.075 519.816 220.165 519.917 220.283 519.977C220.402 520.037 220.54 520.051 220.67 520.017C220.8 519.983 220.91 519.904 220.98 519.794C221.049 519.685 221.071 519.555 221.041 519.431C220.949 519.054 220.986 518.659 221.147 518.304C221.309 517.948 221.585 517.65 221.937 517.454C222.672 516.99 223.479 516.527 223.636 515.643C223.715 515.23 223.654 514.804 223.464 514.425C223.273 514.046 222.962 513.733 222.574 513.531Z" fill="#DFEAEF"/>
<path d="M220.635 521.034C220.496 521.034 220.363 521.086 220.265 521.179C220.167 521.272 220.111 521.398 220.111 521.529C220.111 521.661 220.167 521.787 220.265 521.88C220.363 521.972 220.496 522.025 220.635 522.025C220.774 522.025 220.907 521.972 221.006 521.88C221.104 521.787 221.159 521.661 221.159 521.529C221.159 521.398 221.104 521.272 221.006 521.179C220.907 521.086 220.774 521.034 220.635 521.034Z" fill="#DFEAEF"/>
</g>
<defs>
<filter id="filter0_d_82_463" x="59.5453" y="88.8151" width="455.586" height="353.185" filterUnits="userSpaceOnUse" color-interpolation-filters="sRGB">
<feFlood flood-opacity="0" result="BackgroundImageFix"/>
<feColorMatrix in="SourceAlpha" type="matrix" values="0 0 0 0 0 0 0 0 0 0 0 0 0 0 0 0 0 0 127 0" result="hardAlpha"/>
<feOffset dy="5"/>
<feGaussianBlur stdDeviation="5"/>
<feComposite in2="hardAlpha" operator="out"/>
<feColorMatrix type="matrix" values="0 0 0 0 0 0 0 0 0 0 0 0 0 0 0 0 0 0 0.25 0"/>
<feBlend mode="normal" in2="BackgroundImageFix" result="effect1_dropShadow_82_463"/>
<feBlend mode="normal" in="SourceGraphic" in2="effect1_dropShadow_82_463" result="shape"/>
</filter>
<filter id="filter1_d_82_463" x="396" y="15.0379" width="83" height="80.0838" filterUnits="userSpaceOnUse" color-interpolation-filters="sRGB">
<feFlood flood-opacity="0" result="BackgroundImageFix"/>
<feColorMatrix in="SourceAlpha" type="matrix" values="0 0 0 0 0 0 0 0 0 0 0 0 0 0 0 0 0 0 127 0" result="hardAlpha"/>
<feOffset dx="2" dy="5"/>
<feGaussianBlur stdDeviation="5"/>
<feComposite in2="hardAlpha" operator="out"/>
<feColorMatrix type="matrix" values="0 0 0 0 0 0 0 0 0 0 0 0 0 0 0 0 0 0 0.25 0"/>
<feBlend mode="normal" in2="BackgroundImageFix" result="effect1_dropShadow_82_463"/>
<feBlend mode="normal" in="SourceGraphic" in2="effect1_dropShadow_82_463" result="shape"/>
</filter>
<filter id="filter2_d_82_463" x="0" y="0" width="125" height="85.9999" filterUnits="userSpaceOnUse" color-interpolation-filters="sRGB">
<feFlood flood-opacity="0" result="BackgroundImageFix"/>
<feColorMatrix in="SourceAlpha" type="matrix" values="0 0 0 0 0 0 0 0 0 0 0 0 0 0 0 0 0 0 127 0" result="hardAlpha"/>
<feOffset dx="2" dy="5"/>
<feGaussianBlur stdDeviation="5"/>
<feComposite in2="hardAlpha" operator="out"/>
<feColorMatrix type="matrix" values="0 0 0 0 0 0 0 0 0 0 0 0 0 0 0 0 0 0 0.25 0"/>
<feBlend mode="normal" in2="BackgroundImageFix" result="effect1_dropShadow_82_463"/>
<feBlend mode="normal" in="SourceGraphic" in2="effect1_dropShadow_82_463" result="shape"/>
</filter>
<filter id="filter3_d_82_463" x="172" y="475" width="139.88" height="74.4738" filterUnits="userSpaceOnUse" color-interpolation-filters="sRGB">
<feFlood flood-opacity="0" result="BackgroundImageFix"/>
<feColorMatrix in="SourceAlpha" type="matrix" values="0 0 0 0 0 0 0 0 0 0 0 0 0 0 0 0 0 0 127 0" result="hardAlpha"/>
<feOffset dx="2" dy="5"/>
<feGaussianBlur stdDeviation="5"/>
<feComposite in2="hardAlpha" operator="out"/>
<feColorMatrix type="matrix" values="0 0 0 0 0 0 0 0 0 0 0 0 0 0 0 0 0 0 0.25 0"/>
<feBlend mode="normal" in2="BackgroundImageFix" result="effect1_dropShadow_82_463"/>
<feBlend mode="normal" in="SourceGraphic" in2="effect1_dropShadow_82_463" result="shape"/>
</filter>
<clipPath id="clip0_82_463">
<rect width="407.377" height="267.381" fill="white" transform="translate(80.3312 136.296)"/>
</clipPath>
</defs>
</svg>
