<svg width="506" height="400" viewBox="0 0 506 400" fill="none" xmlns="http://www.w3.org/2000/svg">
<g filter="url(#filter0_d_103_808)">
<rect x="8" y="5" width="454" height="347" rx="20" fill="#00ADB5" fill-opacity="0.1" shape-rendering="crispEdges"/>
<rect x="9" y="6" width="452" height="345" rx="19" stroke="black" stroke-width="2" shape-rendering="crispEdges"/>
</g>
<g filter="url(#filter1_d_103_808)">
<rect x="40" y="38" width="454" height="347" rx="20" fill="white" fill-opacity="0.5" shape-rendering="crispEdges"/>
</g>
<g clip-path="url(#clip0_103_808)">
<path d="M388.026 196.487L389.237 186.897C389.668 183.489 391.451 180.39 394.195 178.281C396.939 176.172 400.419 175.226 403.869 175.651C407.319 176.076 410.456 177.837 412.592 180.548C414.727 183.258 415.684 186.696 415.254 190.104L414.043 199.693C413.985 200.151 413.745 200.567 413.376 200.85C413.008 201.133 412.541 201.261 412.078 201.204L389.556 198.428C389.092 198.371 388.671 198.134 388.384 197.77C388.098 197.406 387.969 196.945 388.026 196.487Z" fill="#2F2E41"/>
<path d="M398.814 199.348C404.123 199.348 408.426 195.097 408.426 189.854C408.426 184.61 404.123 180.36 398.814 180.36C393.506 180.36 389.203 184.61 389.203 189.854C389.203 195.097 393.506 199.348 398.814 199.348Z" fill="#FFB8B8"/>
<path d="M386.063 187.285C386.406 184.591 387.818 182.141 389.988 180.473C392.157 178.805 394.908 178.055 397.637 178.389L399.579 178.628C402.306 178.967 404.787 180.361 406.475 182.505C408.163 184.648 408.922 187.366 408.585 190.061L408.561 190.253L404.457 189.747L403.547 185.704L402.778 189.54L400.658 189.279L400.198 187.239L399.81 189.174L386.039 187.477L386.063 187.285Z" fill="#2F2E41"/>
<path d="M351.806 223.721C352.1 224.291 352.517 224.79 353.027 225.183C353.537 225.577 354.128 225.855 354.759 225.998C355.39 226.142 356.045 226.146 356.678 226.013C357.31 225.879 357.906 225.61 358.422 225.224L367.152 230.275L371.553 225.784L359.124 218.821C358.411 218.007 357.42 217.481 356.339 217.34C355.259 217.2 354.164 217.456 353.262 218.06C352.36 218.664 351.713 219.574 351.445 220.617C351.177 221.661 351.305 222.765 351.806 223.721Z" fill="#FFB8B8"/>
<path d="M380.417 232.798C373.978 232.798 362.647 229.951 362.02 229.791L361.822 229.741L363.605 220.822L380.912 224.199L390.314 211.12L401.109 210.036L400.807 210.428C400.667 210.61 386.752 228.704 384.587 231.74C384.04 232.506 382.479 232.798 380.417 232.798Z" fill="#3F3D56"/>
<path d="M382.144 266.274L381.886 266.152C381.831 266.126 376.36 263.498 373.527 258.366C370.707 253.259 383.908 231.593 384.832 230.09L384.845 223.21L389.594 210.544L395.651 207.162L390.451 219.148L382.144 266.274Z" fill="#3F3D56"/>
<path d="M376.076 340.223L370.288 340.223L367.534 318.168L376.077 318.169L376.076 340.223Z" fill="#FFB8B8"/>
<path d="M377.552 345.766L358.888 345.765V345.532C358.888 343.629 359.653 341.804 361.016 340.458C362.378 339.112 364.226 338.356 366.152 338.356H366.153L377.552 338.356L377.552 345.766Z" fill="#2F2E41"/>
<path d="M438.251 335.212L432.75 336.993L423.181 316.882L431.299 314.254L438.251 335.212Z" fill="#FFB8B8"/>
<path d="M441.401 340.025L423.664 345.766L423.591 345.544C422.991 343.736 423.143 341.766 424.013 340.068C424.884 338.37 426.401 337.083 428.232 336.49L428.232 336.49L439.065 332.984L441.401 340.025Z" fill="#2F2E41"/>
<path d="M427.043 331.607L410.542 304.394L396.612 275.321L384.077 301.002L379.097 334.264L361.634 334.504L361.703 334.234L388.427 229.34L409.357 232.429L408.405 246.076L408.972 246.873C413.7 253.508 418.589 260.368 415.785 267.763L423.733 291.077L441.328 329.896L427.043 331.607Z" fill="#2F2E41"/>
<path d="M389.384 252.074C386.351 252.074 382.891 248.653 384.686 242.813L384.57 242.73L388.881 223.912C385.118 218.597 390.079 214.21 390.544 213.818L392.912 209.607L403.361 203.062L408.647 246.451L408.569 246.525C404.751 250.134 391.928 252.074 389.384 252.074Z" fill="#00ADB5"/>
<path d="M410.782 261.865C410.367 261.871 409.952 261.828 409.547 261.736C409.141 261.635 408.483 261.124 407.467 257.854C403.425 244.857 398.654 205.748 402.12 201.921L402.2 201.833L407.892 202.77C408.365 202.425 410.847 200.713 413.139 201.011C413.61 201.069 414.065 201.223 414.474 201.462C414.883 201.701 415.238 202.02 415.518 202.4L415.557 202.451L417.37 227.933L424.013 257.92L423.854 257.992C423.467 258.166 415.173 261.865 410.782 261.865Z" fill="#3F3D56"/>
<path d="M406.954 251.905C407.601 251.884 408.235 251.723 408.812 251.433C409.389 251.143 409.895 250.732 410.294 250.229C410.692 249.725 410.974 249.141 411.12 248.518C411.266 247.895 411.271 247.248 411.136 246.623L419.469 240.954L417.216 235.112L405.563 243.281C404.515 243.574 403.612 244.237 403.025 245.145C402.439 246.052 402.209 247.14 402.381 248.203C402.552 249.266 403.112 250.23 403.955 250.912C404.798 251.595 405.865 251.948 406.954 251.905Z" fill="#FFB8B8"/>
<path d="M416.719 245.496L409.297 240.12L419.73 226.068L411.724 212.112L415.306 201.994L415.537 202.43C415.645 202.633 426.337 222.752 428.202 225.976C430.142 229.33 417.393 244.688 416.849 245.34L416.719 245.496Z" fill="#3F3D56"/>
<path d="M249.774 308.745L243.458 306.118L239.125 274.839H181.421L176.724 305.99L171.073 308.781C170.803 308.915 170.586 309.135 170.458 309.405C170.33 309.676 170.298 309.981 170.367 310.272C170.437 310.562 170.604 310.821 170.841 311.007C171.078 311.192 171.371 311.293 171.673 311.293H249.254C249.564 311.293 249.864 311.187 250.104 310.993C250.344 310.799 250.508 310.53 250.569 310.23C250.631 309.93 250.585 309.618 250.44 309.347C250.295 309.077 250.06 308.864 249.774 308.745Z" fill="#E6E6E6"/>
<path d="M352.318 279.001H68.8619C67.3747 278.997 65.9495 278.411 64.8991 277.371C63.8487 276.331 63.2587 274.922 63.2587 273.453V233.969H357.921V273.453C357.921 274.922 357.331 276.331 356.28 277.371C355.23 278.411 353.805 278.997 352.318 279.001Z" fill="#CCCCCC"/>
<path d="M358.217 252.63H63V83.6872C63.0021 81.9142 63.716 80.2145 64.9852 78.9608C66.2543 77.7072 67.9751 77.002 69.7699 77H351.447C353.242 77.002 354.963 77.7072 356.232 78.9608C357.501 80.2145 358.215 81.9142 358.217 83.6872V252.63Z" fill="#3F3D56"/>
<path d="M340.585 240.369H80.6321C79.2484 240.367 77.9218 239.823 76.9434 238.857C75.965 237.89 75.4146 236.58 75.413 235.213V94.4173C75.4146 93.0504 75.9649 91.74 76.9434 90.7734C77.9218 89.8069 79.2484 89.2632 80.6321 89.2616H340.585C341.969 89.2632 343.295 89.8069 344.274 90.7734C345.252 91.74 345.802 93.0504 345.804 94.4173V235.213C345.802 236.58 345.252 237.89 344.274 238.857C343.295 239.823 341.969 240.367 340.585 240.369Z" fill="white"/>
<path d="M283.512 311.619H137.441C137.292 311.622 137.145 311.576 137.025 311.489C136.904 311.401 136.816 311.276 136.775 311.134C136.749 311.038 136.746 310.936 136.766 310.838C136.786 310.74 136.829 310.648 136.891 310.569C136.952 310.49 137.032 310.425 137.123 310.381C137.213 310.337 137.313 310.314 137.415 310.314H283.458C283.616 310.308 283.771 310.356 283.898 310.449C284.025 310.541 284.117 310.674 284.158 310.824C284.179 310.92 284.179 311.019 284.156 311.114C284.134 311.209 284.09 311.298 284.028 311.375C283.966 311.451 283.888 311.512 283.798 311.555C283.709 311.597 283.611 311.619 283.512 311.619Z" fill="#CCCCCC"/>
<path d="M337.81 112.024H275.045V159.39H337.81V112.024Z" fill="#F2F2F2"/>
<path d="M334.691 114.378H278.164V157.037H334.691V114.378Z" fill="white"/>
<path d="M307.42 146.02C307.428 146.02 307.435 146.02 307.443 146.019C311.269 145.822 314.876 144.192 317.529 141.461C320.182 138.73 321.683 135.104 321.726 131.319C321.768 127.534 320.351 123.876 317.76 121.087C315.169 118.298 311.601 116.589 307.78 116.306C307.733 116.303 307.685 116.309 307.64 116.324C307.596 116.339 307.554 116.364 307.52 116.395C307.485 116.427 307.457 116.465 307.438 116.507C307.419 116.549 307.409 116.595 307.409 116.642L307.079 145.676C307.078 145.766 307.114 145.853 307.178 145.918C307.242 145.982 307.329 146.019 307.42 146.02Z" fill="#3F3D56"/>
<path d="M295.601 121.107C295.718 121.109 295.83 121.156 295.912 121.239L306.031 131.461C306.071 131.502 306.104 131.55 306.125 131.603C306.147 131.657 306.158 131.714 306.157 131.771L305.999 145.664C305.999 145.724 305.986 145.783 305.961 145.837C305.936 145.891 305.901 145.94 305.856 145.98C305.811 146.021 305.759 146.052 305.701 146.072C305.644 146.092 305.583 146.099 305.522 146.095C302.709 145.887 300.01 144.908 297.729 143.268C295.447 141.629 293.674 139.393 292.609 136.812C291.543 134.232 291.227 131.409 291.696 128.661C292.165 125.913 293.4 123.348 295.263 121.256C295.304 121.211 295.353 121.174 295.408 121.149C295.463 121.123 295.523 121.109 295.584 121.108C295.59 121.107 295.595 121.107 295.601 121.107Z" fill="#E6E6E6"/>
<path d="M305.89 116.188C306.003 116.189 306.111 116.233 306.193 116.31C306.236 116.351 306.271 116.401 306.294 116.456C306.318 116.511 306.329 116.57 306.329 116.63L306.186 129.165C306.185 129.251 306.158 129.335 306.109 129.407C306.06 129.478 305.99 129.533 305.909 129.565C305.828 129.597 305.739 129.605 305.653 129.587C305.568 129.569 305.49 129.527 305.429 129.465L296.599 120.545C296.557 120.503 296.524 120.452 296.502 120.397C296.481 120.342 296.471 120.283 296.473 120.223C296.475 120.164 296.49 120.106 296.515 120.052C296.541 119.999 296.578 119.951 296.623 119.912C299.191 117.679 302.446 116.367 305.862 116.188C305.872 116.188 305.881 116.188 305.89 116.188Z" fill="#FF3E36"/>
<path d="M301.341 152.041C301.335 152.57 301.17 153.085 300.868 153.521C300.566 153.958 300.139 154.296 299.642 154.492C299.145 154.689 298.6 154.736 298.076 154.627C297.553 154.518 297.073 154.258 296.699 153.88C296.325 153.502 296.072 153.023 295.974 152.503C295.875 151.983 295.935 151.446 296.145 150.96C296.356 150.474 296.707 150.06 297.156 149.771C297.604 149.482 298.129 149.331 298.665 149.337C299.382 149.346 300.067 149.635 300.569 150.142C301.071 150.649 301.348 151.332 301.341 152.041Z" fill="#FF3E36"/>
<path d="M309.075 152.126C309.069 152.655 308.904 153.17 308.602 153.607C308.299 154.043 307.873 154.381 307.376 154.578C306.879 154.775 306.334 154.822 305.81 154.713C305.286 154.604 304.807 154.344 304.432 153.966C304.058 153.588 303.806 153.108 303.707 152.589C303.609 152.069 303.668 151.532 303.879 151.045C304.089 150.559 304.441 150.145 304.889 149.857C305.338 149.568 305.863 149.417 306.398 149.423C307.116 149.431 307.801 149.721 308.302 150.228C308.804 150.735 309.082 151.417 309.075 152.126Z" fill="#3F3D56"/>
<path d="M316.808 152.212C316.802 152.741 316.638 153.256 316.335 153.692C316.033 154.129 315.606 154.467 315.109 154.664C314.612 154.861 314.068 154.908 313.544 154.799C313.02 154.69 312.54 154.43 312.166 154.051C311.792 153.673 311.539 153.194 311.441 152.674C311.342 152.154 311.402 151.617 311.612 151.131C311.823 150.645 312.174 150.231 312.623 149.942C313.071 149.653 313.596 149.502 314.132 149.508C314.849 149.517 315.534 149.807 316.036 150.313C316.538 150.82 316.815 151.503 316.808 152.212Z" fill="#E6E6E6"/>
<path d="M337.149 166.845H274.385V214.211H337.149V166.845Z" fill="#F2F2F2"/>
<path d="M334.03 169.198H277.503V211.857H334.03V169.198Z" fill="white"/>
<path d="M287.094 183.219C288.391 183.219 289.441 182.181 289.441 180.9C289.441 179.62 288.391 178.582 287.094 178.582C285.798 178.582 284.747 179.62 284.747 180.9C284.747 182.181 285.798 183.219 287.094 183.219Z" fill="#3F3D56"/>
<path d="M324.805 179.096C325.014 179.096 325.221 179.136 325.415 179.215C325.608 179.294 325.784 179.41 325.932 179.556C326.08 179.702 326.198 179.875 326.278 180.066C326.358 180.257 326.399 180.462 326.399 180.669C326.399 180.875 326.358 181.08 326.278 181.271C326.198 181.462 326.08 181.635 325.932 181.781C325.784 181.927 325.608 182.043 325.415 182.122C325.221 182.201 325.014 182.241 324.805 182.241H300.12C299.698 182.241 299.293 182.075 298.995 181.78C298.696 181.486 298.529 181.086 298.529 180.669C298.529 180.252 298.696 179.852 298.995 179.557C299.293 179.262 299.698 179.096 300.12 179.096H324.805ZM324.805 178.711H300.12C299.86 178.711 299.602 178.761 299.361 178.859C299.12 178.958 298.902 179.102 298.717 179.283C298.533 179.465 298.387 179.681 298.287 179.919C298.187 180.157 298.136 180.411 298.136 180.669C298.136 180.926 298.187 181.181 298.287 181.418C298.387 181.656 298.533 181.872 298.717 182.054C298.902 182.236 299.12 182.38 299.361 182.478C299.602 182.576 299.86 182.626 300.12 182.626H324.805C325.065 182.626 325.323 182.576 325.564 182.478C325.805 182.38 326.024 182.236 326.208 182.054C326.392 181.872 326.539 181.656 326.638 181.418C326.738 181.181 326.789 180.926 326.789 180.669C326.789 180.411 326.738 180.157 326.638 179.919C326.539 179.681 326.392 179.465 326.208 179.283C326.024 179.102 325.805 178.958 325.564 178.859C325.323 178.761 325.065 178.711 324.805 178.711Z" fill="#3F3D56"/>
<path d="M315.065 182.626H296.482C295.957 182.626 295.453 182.42 295.081 182.053C294.71 181.686 294.501 181.188 294.501 180.669C294.501 180.149 294.71 179.652 295.081 179.284C295.453 178.917 295.957 178.711 296.482 178.711H315.065C315.59 178.711 316.094 178.917 316.466 179.284C316.838 179.652 317.046 180.149 317.046 180.669C317.046 181.188 316.838 181.686 316.466 182.053C316.094 182.42 315.59 182.626 315.065 182.626Z" fill="#00ADB5"/>
<path d="M287.094 192.846C288.391 192.846 289.441 191.808 289.441 190.528C289.441 189.247 288.391 188.209 287.094 188.209C285.798 188.209 284.747 189.247 284.747 190.528C284.747 191.808 285.798 192.846 287.094 192.846Z" fill="#3F3D56"/>
<path d="M324.805 188.724C325.014 188.723 325.221 188.764 325.415 188.842C325.608 188.921 325.784 189.037 325.932 189.183C326.08 189.329 326.198 189.503 326.278 189.694C326.358 189.884 326.399 190.089 326.399 190.296C326.399 190.503 326.358 190.707 326.278 190.898C326.198 191.089 326.08 191.263 325.932 191.409C325.784 191.555 325.608 191.67 325.415 191.749C325.221 191.828 325.014 191.869 324.805 191.868H300.12C299.698 191.868 299.293 191.703 298.995 191.408C298.696 191.113 298.529 190.713 298.529 190.296C298.529 189.879 298.696 189.479 298.995 189.184C299.293 188.889 299.698 188.724 300.12 188.724H324.805ZM324.805 188.338H300.12C299.595 188.338 299.091 188.545 298.719 188.912C298.347 189.279 298.139 189.777 298.139 190.296C298.139 190.815 298.347 191.313 298.719 191.68C299.091 192.047 299.595 192.253 300.12 192.253H324.805C325.33 192.253 325.834 192.047 326.206 191.68C326.578 191.313 326.786 190.815 326.786 190.296C326.786 189.777 326.578 189.279 326.206 188.912C325.834 188.545 325.33 188.338 324.805 188.338Z" fill="#3F3D56"/>
<path d="M322.082 192.253H296.482C295.957 192.253 295.453 192.047 295.081 191.68C294.71 191.313 294.501 190.815 294.501 190.296C294.501 189.777 294.71 189.279 295.081 188.912C295.453 188.545 295.957 188.338 296.482 188.338H322.082C322.607 188.338 323.111 188.545 323.483 188.912C323.855 189.279 324.063 189.777 324.063 190.296C324.063 190.815 323.855 191.313 323.483 191.68C323.111 192.047 322.607 192.253 322.082 192.253Z" fill="#FF3E36"/>
<path d="M287.094 202.473C288.391 202.473 289.441 201.435 289.441 200.155C289.441 198.874 288.391 197.837 287.094 197.837C285.798 197.837 284.747 198.874 284.747 200.155C284.747 201.435 285.798 202.473 287.094 202.473Z" fill="#3F3D56"/>
<path d="M324.805 198.351C325.014 198.35 325.221 198.391 325.415 198.47C325.608 198.549 325.784 198.664 325.932 198.81C326.08 198.956 326.198 199.13 326.278 199.321C326.358 199.512 326.399 199.716 326.399 199.923C326.399 200.13 326.358 200.334 326.278 200.525C326.198 200.716 326.08 200.89 325.932 201.036C325.784 201.182 325.608 201.298 325.415 201.376C325.221 201.455 325.014 201.496 324.805 201.495H300.12C299.698 201.495 299.293 201.33 298.995 201.035C298.696 200.74 298.529 200.34 298.529 199.923C298.529 199.506 298.696 199.106 298.995 198.811C299.293 198.516 299.698 198.351 300.12 198.351H324.805ZM324.805 197.966H300.12C299.595 197.966 299.091 198.172 298.719 198.539C298.347 198.906 298.139 199.404 298.139 199.923C298.139 200.442 298.347 200.94 298.719 201.307C299.091 201.674 299.595 201.881 300.12 201.881H324.805C325.33 201.881 325.834 201.674 326.206 201.307C326.578 200.94 326.786 200.442 326.786 199.923C326.786 199.404 326.578 198.906 326.206 198.539C325.834 198.172 325.33 197.966 324.805 197.966Z" fill="#3F3D56"/>
<path d="M306.878 201.881H296.482C296.222 201.881 295.964 201.831 295.723 201.732C295.482 201.634 295.264 201.49 295.079 201.308C294.895 201.126 294.749 200.911 294.649 200.673C294.549 200.435 294.498 200.18 294.498 199.923C294.498 199.666 294.549 199.411 294.649 199.173C294.749 198.936 294.895 198.72 295.079 198.538C295.264 198.356 295.482 198.212 295.723 198.114C295.964 198.016 296.222 197.965 296.482 197.966H306.878C307.403 197.966 307.906 198.173 308.277 198.54C308.648 198.907 308.857 199.404 308.857 199.923C308.857 200.442 308.648 200.939 308.277 201.306C307.906 201.673 307.403 201.88 306.878 201.881Z" fill="#B50800"/>
<path d="M260.51 120.404H85.1579V209.177H260.51V120.404Z" fill="#F2F2F2"/>
<path d="M254.665 124.815H91.003V204.766H254.665V124.815Z" fill="white"/>
<path d="M234.368 192.569H115.061C114.962 192.569 114.867 192.53 114.797 192.461C114.727 192.392 114.688 192.298 114.688 192.2V135.713C114.688 135.615 114.727 135.522 114.797 135.452C114.867 135.383 114.962 135.344 115.061 135.344C115.16 135.344 115.255 135.383 115.325 135.452C115.395 135.522 115.434 135.615 115.434 135.713V191.831H234.368C234.467 191.831 234.562 191.87 234.632 191.939C234.702 192.008 234.741 192.102 234.741 192.2C234.741 192.298 234.702 192.392 234.632 192.461C234.562 192.53 234.467 192.569 234.368 192.569Z" fill="#3F3D56"/>
<path d="M140.552 188.512H129.7C129.406 188.512 129.125 188.396 128.917 188.191C128.709 187.986 128.592 187.707 128.592 187.417V172.641C128.592 172.35 128.709 172.072 128.917 171.867C129.125 171.662 129.406 171.546 129.7 171.546H140.552C140.846 171.546 141.127 171.662 141.335 171.867C141.543 172.072 141.66 172.35 141.66 172.641V187.417C141.66 187.707 141.543 187.986 141.335 188.191C141.127 188.396 140.846 188.512 140.552 188.512Z" fill="#00ADB5"/>
<path d="M160.341 188.512H149.489C149.195 188.512 148.914 188.396 148.706 188.191C148.498 187.986 148.381 187.707 148.381 187.417V158.625C148.381 158.335 148.498 158.057 148.706 157.851C148.914 157.646 149.195 157.531 149.489 157.53H160.341C160.634 157.531 160.916 157.646 161.124 157.851C161.332 158.057 161.449 158.335 161.449 158.625V187.417C161.449 187.707 161.332 187.986 161.124 188.191C160.916 188.396 160.634 188.512 160.341 188.512Z" fill="#00ADB5"/>
<path d="M180.13 188.512H169.278C168.984 188.512 168.703 188.396 168.495 188.191C168.287 187.986 168.17 187.707 168.17 187.417V172.641C168.17 172.35 168.287 172.072 168.495 171.867C168.703 171.662 168.984 171.546 169.278 171.546H180.13C180.423 171.546 180.705 171.662 180.913 171.867C181.121 172.072 181.238 172.35 181.238 172.641V187.417C181.238 187.707 181.121 187.986 180.913 188.191C180.705 188.396 180.423 188.512 180.13 188.512Z" fill="#00ADB5"/>
<path d="M199.918 188.512H189.067C188.78 188.518 188.502 188.411 188.294 188.215C188.086 188.02 187.966 187.75 187.959 187.467V153.043C187.966 152.76 188.086 152.49 188.294 152.294C188.502 152.099 188.78 151.992 189.067 151.998H199.918C200.206 151.992 200.483 152.099 200.691 152.294C200.899 152.49 201.02 152.76 201.027 153.043V187.467C201.02 187.75 200.899 188.02 200.691 188.215C200.483 188.411 200.206 188.518 199.918 188.512Z" fill="#00ADB5"/>
<path d="M219.707 188.512H208.856C208.562 188.512 208.28 188.396 208.073 188.191C207.865 187.986 207.748 187.707 207.748 187.417V143.135C207.748 142.844 207.865 142.566 208.073 142.361C208.28 142.156 208.562 142.04 208.856 142.04H219.707C220.001 142.04 220.283 142.156 220.491 142.361C220.698 142.566 220.815 142.844 220.816 143.135V187.417C220.815 187.707 220.698 187.986 220.491 188.191C220.283 188.396 220.001 188.512 219.707 188.512Z" fill="#00ADB5"/>
<path d="M135.126 167.12C136.363 167.12 137.366 166.129 137.366 164.907C137.366 163.685 136.363 162.694 135.126 162.694C133.889 162.694 132.886 163.685 132.886 164.907C132.886 166.129 133.889 167.12 135.126 167.12Z" fill="#3F3D56"/>
<path d="M154.915 152.736C156.152 152.736 157.155 151.745 157.155 150.523C157.155 149.301 156.152 148.31 154.915 148.31C153.678 148.31 152.675 149.301 152.675 150.523C152.675 151.745 153.678 152.736 154.915 152.736Z" fill="#3F3D56"/>
<path d="M174.704 167.12C175.941 167.12 176.944 166.129 176.944 164.907C176.944 163.685 175.941 162.694 174.704 162.694C173.467 162.694 172.464 163.685 172.464 164.907C172.464 166.129 173.467 167.12 174.704 167.12Z" fill="#3F3D56"/>
<path d="M194.493 145.728C195.73 145.728 196.733 144.737 196.733 143.515C196.733 142.293 195.73 141.302 194.493 141.302C193.255 141.302 192.252 142.293 192.252 143.515C192.252 144.737 193.255 145.728 194.493 145.728Z" fill="#3F3D56"/>
<path d="M214.282 137.614C215.519 137.614 216.522 136.623 216.522 135.401C216.522 134.179 215.519 133.188 214.282 133.188C213.044 133.188 212.041 134.179 212.041 135.401C212.041 136.623 213.044 137.614 214.282 137.614Z" fill="#3F3D56"/>
<path d="M174.751 165.403L154.915 150.726L135.35 165.202L134.902 164.612L154.915 149.804L174.657 164.411L194.275 143.204L194.353 143.173L214.142 135.297L214.421 135.981L194.711 143.826L174.751 165.403Z" fill="#3F3D56"/>
</g>
<defs>
<filter id="filter0_d_103_808" x="0" y="0" width="474" height="367" filterUnits="userSpaceOnUse" color-interpolation-filters="sRGB">
<feFlood flood-opacity="0" result="BackgroundImageFix"/>
<feColorMatrix in="SourceAlpha" type="matrix" values="0 0 0 0 0 0 0 0 0 0 0 0 0 0 0 0 0 0 127 0" result="hardAlpha"/>
<feOffset dx="2" dy="5"/>
<feGaussianBlur stdDeviation="5"/>
<feComposite in2="hardAlpha" operator="out"/>
<feColorMatrix type="matrix" values="0 0 0 0 0 0 0 0 0 0 0 0 0 0 0 0 0 0 0.25 0"/>
<feBlend mode="normal" in2="BackgroundImageFix" result="effect1_dropShadow_103_808"/>
<feBlend mode="normal" in="SourceGraphic" in2="effect1_dropShadow_103_808" result="shape"/>
</filter>
<filter id="filter1_d_103_808" x="32" y="33" width="474" height="367" filterUnits="userSpaceOnUse" color-interpolation-filters="sRGB">
<feFlood flood-opacity="0" result="BackgroundImageFix"/>
<feColorMatrix in="SourceAlpha" type="matrix" values="0 0 0 0 0 0 0 0 0 0 0 0 0 0 0 0 0 0 127 0" result="hardAlpha"/>
<feOffset dx="2" dy="5"/>
<feGaussianBlur stdDeviation="5"/>
<feComposite in2="hardAlpha" operator="out"/>
<feColorMatrix type="matrix" values="0 0 0 0 0 0 0 0 0 0 0 0 0 0 0 0 0 0 0.25 0"/>
<feBlend mode="normal" in2="BackgroundImageFix" result="effect1_dropShadow_103_808"/>
<feBlend mode="normal" in="SourceGraphic" in2="effect1_dropShadow_103_808" result="shape"/>
</filter>
<clipPath id="clip0_103_808">
<rect width="408" height="270" fill="white" transform="translate(63 77)"/>
</clipPath>
</defs>
</svg>
