<svg width="498" height="391" viewBox="0 0 498 391" fill="none" xmlns="http://www.w3.org/2000/svg">
<rect width="455" height="348" rx="20" fill="#00ADB5" fill-opacity="0.1"/>
<rect x="1" y="1" width="453" height="346" rx="19" stroke="black" stroke-opacity="0.5" stroke-width="2"/>
<g filter="url(#filter0_d_122_269)">
<rect x="32" y="29" width="454" height="347" rx="20" fill="white" fill-opacity="0.5" shape-rendering="crispEdges"/>
</g>
<g clip-path="url(#clip0_122_269)">
<path d="M378.49 188.766C377.684 186.709 378.835 185.68 379.296 183.851C379.756 182.022 378.259 176.306 378.259 176.306C378.259 176.306 373.424 156.529 371.927 152.642C371.293 150.998 369.918 149.866 368.542 149.106C368.448 148.602 368.313 148.277 368.127 148.184C366.794 147.522 363.471 146.083 361.257 145.685C360.843 144.979 360.352 144.32 359.793 143.72C360.182 142.979 360.362 142.148 360.315 141.314C360.174 139.157 358.529 137.224 358.743 135.073C358.905 133.442 360.106 132.102 360.57 130.529C360.764 129.822 360.81 129.084 360.705 128.359C360.6 127.634 360.345 126.938 359.958 126.315C360.299 126.675 360.639 127.034 360.98 127.394C361.443 126.705 361.666 125.883 361.615 125.056C361.563 124.229 361.24 123.441 360.695 122.814C359.616 121.631 357.813 121.187 356.976 119.825C356.117 118.425 356.578 116.523 355.765 115.096C353.773 111.601 348.675 114.079 345.621 112.859C344.366 112.357 343.412 111.805 342 111.845C340.799 111.913 339.612 112.134 338.468 112.5C336.826 112.972 335.397 113.989 334.42 115.381C334.516 115.272 334.622 115.172 334.736 115.081C335.476 114.505 336.774 114.553 337.164 115.402C337.258 115.615 337.297 115.848 337.278 116.08C337.214 117.104 336.314 117.868 335.419 118.38C334.524 118.893 333.517 119.321 332.933 120.167C331.969 121.563 332.536 123.436 332.537 125.129C332.529 126.204 332.278 127.264 331.803 128.231C331.328 129.197 330.64 130.046 329.791 130.714L333.04 129.395C331.489 132.091 330.47 135.056 330.04 138.131L334.432 134.528C332.806 137.099 331.817 140.017 331.547 143.041L335.073 139.454C335.234 139.734 335.314 140.053 335.306 140.375L334.938 141.783C334.808 142.062 334.664 142.335 334.507 142.6C333.939 143.567 333.353 144.758 333.883 145.746L333.886 145.745C333.327 147.61 332.485 149.478 330.61 150.385C332.689 150.601 334.859 149.569 335.798 147.926C335.951 148.221 336.136 148.5 336.35 148.756C336.41 148.831 336.47 148.905 336.529 148.98L336.011 149.323L334.623 150.242C334.623 150.242 325.527 152.071 326.103 155.5C326.126 155.641 326.155 155.81 326.187 155.999L323.57 160.416L319.77 173.219C319.77 173.219 317.813 177.335 318.158 179.049C318.504 180.764 318.158 181.45 318.158 184.536C318.158 187.623 316.662 188.88 318.158 191.395C319.655 193.91 324.145 201.226 324.145 201.226L325.132 201.961C325.084 202.402 325.101 202.848 325.182 203.284C326.103 207.857 334.738 251.64 334.738 251.64C334.738 251.64 330.363 286.277 339.228 288.449C340.34 288.722 341.432 288.969 342.493 289.189L343.834 297.937L343.028 309.026C343.028 309.026 336.926 322.744 348.094 323.544C359.262 324.344 354.196 311.655 354.196 311.655C354.785 310.572 355.026 309.335 354.887 308.111C354.773 307.094 353.814 301.798 352.874 296.705C357.112 296.201 356.319 291.734 355.755 289.771C355.999 289.629 356.182 289.403 356.268 289.135C356.396 288.679 356.099 286.885 355.56 284.371C355.121 281.872 354.371 277.827 353.859 275.086L356.614 275.532L368.242 207.857C368.242 207.857 368.319 206.779 368.284 205.204C369.874 204.387 371.514 203.67 373.193 203.056C376.993 201.569 378.489 196.082 379.756 193.796C381.023 191.51 379.295 190.824 378.49 188.766ZM337.201 145.678C337.578 145.42 338.019 145.271 338.475 145.249C338.377 145.78 337.456 145.936 336.683 146.214C336.825 146.008 337 145.827 337.201 145.678ZM331.399 179.735C332.332 181.257 330.643 185.38 329.121 188.652C328.249 187.906 327.339 188.141 328.405 186.023C329.133 184.68 329.565 183.199 329.672 181.679C329.672 181.417 329.807 179.497 330.941 178.699C331.061 179.058 331.214 179.405 331.399 179.735ZM327.905 192.868C328.433 192.654 329.232 192.327 330.311 191.962C329.794 192.636 329.204 193.439 328.61 194.316C328.386 194.147 328.205 193.928 328.082 193.676C327.96 193.424 327.899 193.147 327.905 192.868ZM365.249 194.368C364.549 193.629 363.983 192.969 363.518 192.378C364.386 192.605 365.27 192.849 366.17 193.11C366.618 193.177 367.076 193.146 367.512 193.021C367.551 193.812 367.552 194.939 367.552 194.939L366.291 195.806C366.003 195.287 365.653 194.804 365.249 194.368ZM368.822 190.403C368.809 190.415 368.794 190.428 368.78 190.44C368.718 189.988 368.615 189.543 368.473 189.109C367.718 186.746 367.315 182.554 367.1 178.977L369.279 186.251C369.279 186.251 369.394 189.909 368.822 190.403Z" fill="#D0CDE1"/>
<path d="M324.098 160.356C324.098 160.356 312.286 140.199 311.917 138C311.548 135.801 305.642 131.769 305.642 131.769C303.624 129.766 300.313 129.132 296.829 129.165C298.141 128.087 293.456 127.362 293.091 126.638C292.722 125.905 291.615 125.905 290.138 124.806C288.662 123.706 284.976 124.622 284.976 124.622C284.422 123.465 284.036 122.235 283.831 120.97C285.404 119.122 286.266 116.78 286.262 114.36C286.262 114.334 286.261 114.308 286.26 114.282C286.354 114.427 286.448 114.573 286.542 114.724C287.234 110.611 288.454 107.193 286.128 103.441C284.479 100.782 281.898 98.823 278.881 97.9404L276.665 99.7003L277.527 97.6475C276.802 97.5378 276.069 97.4957 275.337 97.5219L273.343 100.067L274.168 97.609C272.438 97.8225 270.771 98.3895 269.273 99.2743C267.775 100.159 266.478 101.343 265.463 102.75C262.926 106.383 263.096 111.432 265.591 115.093C265.6 115.068 265.606 115.043 265.614 115.017C265.725 116.73 266.266 118.388 267.188 119.839C268.111 121.29 269.386 122.488 270.895 123.324L271.522 128.303C270.958 128.824 270.234 129.141 269.467 129.204C268.36 129.204 267.252 132.136 267.252 132.136C267.252 132.136 266.625 132.45 265.948 133.935C264.206 135.112 258.89 138.812 256.918 141.398C255.752 141.968 254.498 143.236 254.702 146.063C255.071 151.194 254.702 175.016 254.702 175.016C254.702 175.016 251.38 195.174 252.487 196.64C253.594 198.106 252.118 202.87 252.118 202.87L253.225 203.114V204.336C253.225 204.336 249.895 219.667 255.071 218.996C263.561 217.897 257.286 205.436 257.286 205.436V204.01L258.762 204.336C258.762 204.336 259.501 199.205 260.977 198.839C261.491 198.711 262.093 197.341 262.661 195.61C262.993 198.311 263.192 199.938 263.192 199.938L265.502 199.429L266.145 201.771C266.304 201.859 266.469 201.934 266.641 201.994L266.145 204.703C266.145 204.703 265.776 207.635 266.145 209.467C266.331 210.391 273.183 230.145 279.93 249.501L279.803 254.18C279.803 254.18 276.48 257.845 277.219 260.411C277.957 262.976 275.373 284.233 275.373 284.233L273.158 294.862L273.716 295.032L273.204 296.894C272.763 297.115 272.371 297.421 272.051 297.794C269.098 301.092 265.407 310.621 265.407 310.621C265.407 310.621 258.762 320.517 269.098 320.15C279.434 319.784 280.172 316.119 280.172 316.119C280.172 316.119 281.648 306.59 281.648 306.223C281.648 305.857 280.91 302.089 280.91 302.089L280.623 301.775L280.824 297.203L282.756 297.794C282.756 297.794 284.601 288.265 286.078 287.165C286.594 286.781 287.967 282.5 289.534 277.002C291.137 281.583 292.688 297.421 293.192 298.859C293.013 299.101 292.856 299.357 292.722 299.626C291.063 302.788 289.214 305.847 287.185 308.789C287.185 308.789 275.373 315.752 287.185 317.585C287.185 317.585 293.83 317.951 297.152 315.752C300.474 313.553 309.333 310.255 309.333 309.522C309.333 308.789 307.118 298.014 304.904 299.186L303.42 295.798L304.904 295.228L295.558 253.579C295.779 252.691 295.942 251.79 296.044 250.882C296.044 248.962 300.824 211.591 302.04 202.112C307.393 203.618 312.286 192.608 312.286 192.608L313.5 190.439L315.239 191.509C315.239 191.509 316.716 187.844 318.93 187.477C321.145 187.111 325.206 167.686 325.206 165.121C325.172 163.474 324.795 161.851 324.098 160.356ZM306.9 189.071C306.537 188.498 306.115 187.964 305.642 187.477C306.607 184.981 307.348 182.406 307.857 179.781C308.595 175.749 306.749 162.555 306.749 162.555L306.717 161.659C308.529 164.02 310.81 167.169 310.81 168.053C310.81 168.479 310.91 168.9 311.102 169.282C311.294 169.664 311.573 169.996 311.917 170.252L309.702 177.948C309.702 177.948 308.226 181.613 307.857 183.446C307.635 184.532 307.512 185.636 307.487 186.744L308.011 187.066L306.9 189.071Z" fill="#D0CDE1"/>
<path d="M155.109 167.14L157.079 166.7L148.958 143.977L131.424 137.563C131.424 137.563 131.357 137.637 131.233 137.764C129.737 136.327 129.103 134.242 128.837 132.6C130.247 132.035 131.514 131.167 132.548 130.06C133.581 128.952 134.356 127.632 134.816 126.192C135.276 124.753 135.41 123.231 135.21 121.734C135.009 120.238 134.478 118.804 133.655 117.534C135.099 117.19 135.615 115.888 136.1 114.337C135.8 114.249 135.494 114.182 135.184 114.138C135.411 113.633 135.638 113.127 135.866 112.621C135.466 112.585 135.067 112.55 134.668 112.514C134.77 112.041 134.872 111.568 134.974 111.095C134.465 111.444 133.955 111.793 133.446 112.143C133.619 111.646 133.662 111.114 133.571 110.597C133.48 110.079 133.258 109.593 132.926 109.184C132.25 108.373 131.368 107.755 130.371 107.395C128.421 106.634 126.298 106.42 124.235 106.779C122.171 107.137 120.247 108.052 118.673 109.425L118.562 108.998C115.446 111.377 113.407 114.885 112.892 118.755C112.403 122.579 114.254 126.473 116.659 129.5C116.639 129.368 116.617 129.236 116.595 129.104C116.699 129.247 116.806 129.386 116.917 129.523L117.213 140.678L116.472 141.308C116.471 141.309 104.048 146.889 103.564 153.555L103.562 153.559C102.817 156.804 102.447 173.663 102.447 173.663H103.47L102.447 180.26L95.8031 205.915C95.8031 205.915 87.3131 216.91 94.6957 219.109C99.2833 220.476 100.592 215.191 100.926 210.993C101.192 212.034 101.987 212.737 103.555 212.879C103.678 212.89 103.81 212.899 103.937 212.909C100.447 221.866 102.817 250.995 102.817 250.995C100.971 254.66 122.75 279.948 122.75 279.948L124.061 279.254L124.345 279.817C123.615 279.887 123.119 279.948 123.119 279.948V291.31C123.119 291.31 119.797 302.671 124.226 304.87C125.372 305.439 126.568 305.025 127.711 304.101C127.492 307.607 127.179 312.839 127.179 314.033C127.179 315.865 131.978 319.164 131.978 319.164C131.978 319.164 133.085 323.195 141.944 323.195C150.803 323.195 144.159 312.567 144.159 312.567L139.36 301.938C139.36 301.938 139.001 302.113 137.915 301.234L138.304 296.984L140.468 297.174L143.421 254.293C143.421 254.293 146.005 216.177 146.374 210.313C146.46 208.433 146.416 206.549 146.24 204.676L157.079 182.459L155.109 167.14ZM147.112 181.36L146.005 185.191V176.717L147.112 181.36ZM101.029 208.539C101.038 207.196 100.971 206.282 100.971 206.282L108.187 191.952L107.984 196.386C107.984 196.386 102.205 203.645 101.029 208.539ZM117.951 249.895L124.964 225.34L129.025 255.026L128.734 265.819C128.239 264.827 127.842 263.79 127.548 262.723C126.441 258.325 117.951 249.895 117.951 249.895Z" fill="#D0CDE1"/>
<path d="M217.842 308.226C214.384 306.812 207.67 303.782 206.856 302.166C206.042 300.55 201.973 288.026 201.973 288.026L200.926 288.102C200.79 282.412 200.213 260.363 199.329 257.727C199.329 257.727 203.601 222.781 195.056 208.843L193.517 202.667C194.022 200.192 193.957 194.459 193.632 193.491C193.225 192.279 198.311 188.441 196.887 186.017C195.463 183.593 191.598 175.311 191.598 175.311C191.598 175.311 192.004 170.059 186.511 165.211C186.511 165.211 184.906 156.188 177.673 156.054C176.695 154.359 175.326 151.665 175.729 150.465C176.16 149.181 177.809 145.177 178.74 142.935C179.235 142.714 179.71 142.451 180.16 142.151C185.913 139.591 189.969 133.439 189.969 126.252C189.969 118.559 185.323 112.048 178.921 109.865C179.206 109.118 179.322 108.319 179.262 107.523C179.202 106.727 178.966 105.954 178.572 105.258C178.178 104.563 177.635 103.961 176.981 103.497C176.327 103.033 175.579 102.717 174.788 102.571C173.998 102.425 173.185 102.454 172.407 102.655C171.629 102.855 170.904 103.223 170.285 103.732C169.666 104.241 169.167 104.879 168.823 105.601C168.48 106.322 168.3 107.11 168.297 107.908C167.945 107.08 167.805 106.177 167.889 105.282C167.974 104.387 168.281 103.526 168.782 102.777C169.283 102.028 169.963 101.414 170.762 100.989C171.561 100.565 172.452 100.343 173.358 100.345C173.715 100.345 174.07 100.38 174.42 100.449C173.214 99.879 171.84 99.7657 170.556 100.13C169.272 100.494 168.165 101.311 167.444 102.427C166.723 103.543 166.436 104.882 166.638 106.193C166.84 107.504 167.516 108.696 168.54 109.548C168.603 109.747 168.678 109.943 168.764 110.134C162.74 112.547 158.443 118.853 158.443 126.252C158.443 133.116 162.141 139.037 167.485 141.785C167.456 144.018 166.899 147.782 163.798 150.076C162.196 149.349 159.972 148.551 158.546 148.913C157.808 148.342 156.695 148.154 155.18 149.657C152.129 152.687 149.484 160.565 149.484 165.413C149.484 170.261 150.094 198.339 150.094 198.339C150.094 198.339 146.839 199.551 149.077 201.369C149.539 201.751 150.119 201.965 150.721 201.975L152.942 218.337C152.942 218.337 151.518 234.093 157.011 234.295C157.442 234.318 157.87 234.214 158.241 233.995L154.163 252.273C154.163 252.273 144.805 258.333 137.48 270.25C133.708 276.389 131.827 280.165 130.888 282.388L129.546 281.562L124.867 290.45C124.867 290.45 114.491 296.712 116.729 301.358C118.967 306.004 121.001 307.216 121.001 307.216L122.425 306.61L125.07 311.458C125.07 311.458 131.987 321.356 143.177 316.306C143.702 315.605 143.986 314.755 143.986 313.882C143.986 313.009 143.702 312.159 143.177 311.458C141.346 308.832 136.667 303.176 136.667 303.176L139.718 287.824L139.087 287.436L158.436 264.19C158.436 264.19 164.132 260.757 166.167 257.727C168.201 254.697 180.815 223.387 180.815 223.387L187.935 256.111C187.935 256.111 187.529 268.028 189.36 275.704C190.358 280.01 191.008 284.388 191.306 288.797L190.784 288.834L192.004 297.924C192.004 297.924 186.715 310.852 190.377 311.862C192.982 312.53 195.635 313.003 198.311 313.276L198.718 311.862C198.718 311.862 214.384 320.346 220.08 314.084C220.08 314.084 221.301 309.64 217.842 308.226ZM162.098 209.045C162.708 209.651 162.504 212.479 162.504 212.479L161.284 220.357L160.065 225.821C159.896 223.239 159.556 220.672 159.046 218.135L158.483 203.038C158.593 203.107 158.715 203.157 158.842 203.187C159.249 203.187 159.046 199.753 159.046 199.753C159.046 199.753 159.283 199.14 159.58 198.172C160.371 200.523 161.336 202.057 162.504 202.379L162.708 205.005C162.708 205.005 160.063 206.217 162.504 206.217C162.646 206.212 162.787 206.191 162.924 206.155L162.708 207.227C162.708 207.227 161.487 208.439 162.098 209.045Z" fill="#D0CDE1"/>
<path d="M214.365 317.636C304.687 317.636 377.908 316.438 377.908 314.959C377.908 313.481 304.687 312.283 214.365 312.283C124.043 312.283 50.8218 313.481 50.8218 314.959C50.8218 316.438 124.043 317.636 214.365 317.636Z" fill="#3F3D56"/>
<path d="M271.604 328.788C370.958 328.788 451.5 325.693 451.5 321.874C451.5 318.055 370.958 314.959 271.604 314.959C172.25 314.959 91.7075 318.055 91.7075 321.874C91.7075 325.693 172.25 328.788 271.604 328.788Z" fill="#3F3D56"/>
<path d="M238.402 339.048C287.161 339.048 326.688 335.953 326.688 332.134C326.688 328.315 287.161 325.22 238.402 325.22C189.643 325.22 150.116 328.315 150.116 332.134C150.116 335.953 189.643 339.048 238.402 339.048Z" fill="#3F3D56"/>
<path d="M252.33 296.892L254.127 309.383L263.113 308.491L262.215 295.554L252.33 296.892Z" fill="#FFB8B8"/>
<path d="M209.647 296.892L207.85 309.383L198.864 308.491L199.763 295.554L209.647 296.892Z" fill="#FFB8B8"/>
<path d="M196.618 167.526C196.618 167.526 188.531 176.894 190.328 191.615C192.125 206.336 195.27 239.793 195.27 239.793L197.516 299.123L211.894 298.231L214.14 247.822L221.329 207.228L240.649 254.514C240.649 254.514 250.084 298.677 250.533 298.677C250.982 298.677 264.012 297.339 264.012 297.339L257.722 245.146C257.722 245.146 247.837 169.31 241.997 167.972C236.156 166.633 196.618 167.526 196.618 167.526Z" fill="#2F2E41"/>
<path d="M264.012 306.707C264.012 306.707 255.925 301.354 252.779 307.599C249.634 313.844 252.33 318.305 252.33 318.305C252.33 318.305 255.026 320.09 253.678 321.874C252.33 323.658 251.881 335.257 263.563 333.472C275.244 331.688 269.403 319.643 269.403 319.643L264.012 306.707Z" fill="#2F2E41"/>
<path d="M197.966 306.707C197.966 306.707 206.053 301.354 209.198 307.599C212.343 313.844 209.647 318.305 209.647 318.305C209.647 318.305 206.951 320.09 208.299 321.874C209.647 323.658 210.096 335.257 198.415 333.472C186.733 331.688 192.574 319.643 192.574 319.643L197.966 306.707Z" fill="#2F2E41"/>
<path d="M207.625 80.7605C207.625 80.7605 211.669 91.9129 208.524 98.1582C205.379 104.403 213.466 111.541 213.466 111.541C213.466 111.541 234.583 100.835 231.887 95.4816C229.192 90.1285 224.699 82.991 225.597 78.5301L207.625 80.7605Z" fill="#FFB8B8"/>
<path d="M215.488 84.9984C223.428 84.9984 229.865 78.6073 229.865 70.7234C229.865 62.8396 223.428 56.4485 215.488 56.4485C207.548 56.4485 201.111 62.8396 201.111 70.7234C201.111 78.6073 207.548 84.9984 215.488 84.9984Z" fill="#FFB8B8"/>
<path d="M205.154 97.489C205.154 97.489 219.58 109.408 230.339 92.5192L241.547 98.8273L247.388 166.633C247.388 166.633 214.59 185.369 198.864 169.31L201.111 106.411L205.154 97.489Z" fill="#D0CDE1"/>
<path d="M209.685 90.8122L189.429 104.18L196.618 137.191L187.183 188.492L202.459 165.741L209.685 90.8122Z" fill="#575A89"/>
<path d="M227.586 87.0913L232.561 90.3515L252.78 97.489L249.635 152.805L258.171 188.492L246.04 194.737C246.04 194.737 243.794 177.786 229.866 169.31C215.937 160.834 224.409 89.6302 227.586 87.0913Z" fill="#575A89"/>
<path d="M193.922 173.771L199.763 177.786C199.763 177.786 192.35 185.592 191.002 184.254C190.612 183.882 190.309 183.43 190.115 182.929C189.92 182.427 189.84 181.89 189.878 181.355L188.531 178.232L193.922 173.771Z" fill="#FFB8B8"/>
<path d="M232.75 172.903L230.764 176.001C230.764 176.001 224.923 178.678 226.271 180.462C227.619 182.247 238.852 186.262 241.098 182.247L243.344 178.232L232.75 172.903Z" fill="#FFB8B8"/>
<path d="M192.125 103.734L188.98 104.18L183.813 137.414C183.813 137.414 181.791 143.437 184.037 157.712C186.284 171.987 188.509 181.282 188.509 181.282L198.415 174.217L193.922 162.619L199.763 120.24L192.125 103.734Z" fill="#575A89"/>
<path d="M245.591 96.5968L252.78 97.489C252.78 97.489 260.867 105.965 262.215 114.887C263.563 123.809 263.113 149.236 263.113 149.236L242.446 181.801L231.213 173.771L246.939 146.113L239.301 113.102L245.591 96.5968Z" fill="#575A89"/>
<path d="M229.199 57.8125C227.024 54.3071 223.621 51.724 219.644 50.5604L216.723 52.8807L217.859 50.1744C216.904 50.0297 215.937 49.9742 214.972 50.0087L212.343 53.3639L213.431 50.1236C211.15 50.405 208.953 51.1525 206.978 52.3191C205.003 53.4856 203.293 55.0458 201.955 56.9013C198.61 61.6904 198.045 68.3504 201.335 73.177C202.239 70.4212 203.335 67.8353 204.238 65.0795C204.948 65.1756 205.667 65.1791 206.378 65.0899L207.477 62.5442L207.784 64.9822C211.19 64.6875 216.241 64.0408 219.47 63.4481L219.156 61.5778L221.035 63.132C222.024 62.9059 222.611 62.7009 222.563 62.5442C224.964 66.3879 227.343 68.843 229.745 72.6866C230.656 67.265 232.266 62.7583 229.199 57.8125Z" fill="#2F2E41"/>
<path d="M228.402 72.2077C228.94 72.2077 229.376 71.3424 229.376 70.275C229.376 69.2076 228.94 68.3423 228.402 68.3423C227.865 68.3423 227.429 69.2076 227.429 70.275C227.429 71.3424 227.865 72.2077 228.402 72.2077Z" fill="#FFB8B8"/>
<path d="M473.96 72.8342C473.973 72.7935 473.986 72.7523 473.999 72.7115C473.993 72.7294 473.987 72.7466 473.981 72.7645L473.96 72.8342Z" fill="#2F2E41"/>
</g>
<defs>
<filter id="filter0_d_122_269" x="24" y="24" width="474" height="367" filterUnits="userSpaceOnUse" color-interpolation-filters="sRGB">
<feFlood flood-opacity="0" result="BackgroundImageFix"/>
<feColorMatrix in="SourceAlpha" type="matrix" values="0 0 0 0 0 0 0 0 0 0 0 0 0 0 0 0 0 0 127 0" result="hardAlpha"/>
<feOffset dx="2" dy="5"/>
<feGaussianBlur stdDeviation="5"/>
<feComposite in2="hardAlpha" operator="out"/>
<feColorMatrix type="matrix" values="0 0 0 0 0 0 0 0 0 0 0 0 0 0 0 0 0 0 0.25 0"/>
<feBlend mode="normal" in2="BackgroundImageFix" result="effect1_dropShadow_122_269"/>
<feBlend mode="normal" in="SourceGraphic" in2="effect1_dropShadow_122_269" result="shape"/>
</filter>
<clipPath id="clip0_122_269">
<rect width="431" height="306" fill="white" transform="translate(43 50)"/>
</clipPath>
</defs>
</svg>
